<?xml version="1.0" standalone="no"?>
<!DOCTYPE svg PUBLIC "-//W3C//DTD SVG 1.1//EN" "http://www.w3.org/Graphics/SVG/1.1/DTD/svg11.dtd" >
<svg xmlns="http://www.w3.org/2000/svg" xmlns:xlink="http://www.w3.org/1999/xlink" version="1.1">
<metadata>
Created by FontForge 20170731 at Tue May 16 19:52:21 2000
 By Aleksey,,,
Copyright (c) 2000 Adobe Systems Incorporated. All Rights Reserved. U.S. Patent Des. pending.
</metadata>
<defs>
<font id="MyriadPro-SemiExt" horiz-adv-x="300" >
  <font-face 
    font-family="Myriad Pro SemiExt"
    font-weight="400"
    font-stretch="semi-expanded"
    units-per-em="1000"
    panose-1="2 11 5 5 3 4 3 2 2 4"
    ascent="750"
    descent="-250"
    x-height="484"
    cap-height="674"
    bbox="-51 -250 1200 889"
    underline-thickness="50"
    underline-position="-250"
    unicode-range="U+0020-FB04"
  />
<missing-glyph horiz-adv-x="500" 
d="M0 0v700h500v-700h-500zM250 395l170 255h-340zM280 350l170 -255v510zM80 50h340l-170 255zM50 605v-510l170 255z" />
    <glyph glyph-name="f_f_j" unicode="ffj" horiz-adv-x="865" 
d="M750 695l-28 -68q-45 28 -105 28q-68 0 -98 -41t-30 -106v-24h303v-437q0 -142 -61 -204q-57 -58 -164 -58l-9 72q72 3 106 37q20 22 28.5 61.5t8.5 129.5v330h-211v-415h-91v415h-222v-415h-91v415h-70v69h70v17q0 106 60 166q51 49 132 49q45 0 91 -23l-25 -67
q-32 19 -66 19q-41 0 -66 -25q-36 -36 -36 -119v-17h223v25q0 104 59.5 161.5t163.5 57.5q79 0 128 -33z" />
    <glyph glyph-name="f_j" unicode="fj" horiz-adv-x="557" 
d="M177 0h-91v415h-70v69h70v25q0 104 59.5 161.5t163.5 57.5q35 0 73.5 -10t58.5 -25l-27 -69q-42 31 -110 31t-98 -41t-30 -106v-24h303v-437q0 -142 -61 -204q-57 -58 -164 -58l-9 72q72 3 106 37q20 22 28.5 61.5t8.5 129.5v330h-211v-415z" />
    <glyph glyph-name="ff" unicode="ff" horiz-adv-x="627" 
d="M490 0h-91v415h-222v-415h-91v415h-70v69h70v11q0 116 58 173q46 48 129 48q41 0 75 -19l-20 -68q-26 15 -56 15q-96 0 -96 -141v-19h223v21q0 122 61 177q49 46 124 46q46 0 80 -15l-11 -70q-26 12 -62 12q-102 0 -102 -147v-24h127v-69h-126v-415z" />
    <glyph glyph-name="fi" unicode="fi" horiz-adv-x="559" 
d="M177 0h-91v415h-70v69h70v25q0 104 59.5 161.5t163.5 57.5q35 0 73.5 -10t58.5 -25l-27 -69q-42 31 -110 31t-98 -41t-30 -106v-24h303v-484h-91v415h-211v-415z" />
    <glyph glyph-name="fl" unicode="fl" horiz-adv-x="559" 
d="M177 0h-91v415h-70v69h70v20q0 110 73 174q62 50 165 50q93 0 155 -34v-694h-91v645q-28 14 -78 14q-70 0 -102 -42.5t-32 -109.5v-23h124v-69h-123v-415z" />
    <glyph glyph-name="ffi" unicode="ffi" horiz-adv-x="872" 
d="M750 695l-28 -68q-45 28 -105 28q-68 0 -98 -41t-30 -106v-24h303v-484h-91v415h-211v-415h-91v415h-222v-415h-91v415h-70v69h70v17q0 106 60 166q51 49 132 49q45 0 91 -23l-25 -67q-32 19 -66 19q-41 0 -66 -25q-36 -36 -36 -119v-17h223v25q0 104 59.5 161.5
t163.5 57.5q79 0 128 -33z" />
    <glyph glyph-name="ffl" unicode="ffl" horiz-adv-x="872" 
d="M369 696l-24 -68q-29 16 -65 16q-42 0 -67 -25q-37 -37 -37 -117v-18h223v20q0 110 73 174q62 50 165 50q93 0 155 -34v-694h-91v645q-28 14 -78 14q-70 0 -102 -42.5t-32 -109.5v-23h124v-69h-123v-415h-91v415h-222v-415h-91v415h-70v69h70v8q0 115 58 173
q53 51 140 51q45 0 85 -20z" />
    <glyph glyph-name=".notdef" horiz-adv-x="500" 
d="M0 0v700h500v-700h-500zM250 395l170 255h-340zM280 350l170 -255v510zM80 50h340l-170 255zM50 605v-510l170 255z" />
    <glyph glyph-name=".null" horiz-adv-x="0" 
 />
    <glyph glyph-name="nonmarkingreturn" horiz-adv-x="333" 
 />
    <glyph glyph-name="space" unicode=" " horiz-adv-x="231" 
 />
    <glyph glyph-name="space" unicode="&#xa0;" horiz-adv-x="231" 
 />
    <glyph glyph-name="exclam" unicode="!" horiz-adv-x="239" 
d="M153 195h-69l-16 479h101zM119 -12h-1q-27 0 -44.5 18.5t-16.5 45.5q0 29 17 47t45 18t45 -18t17 -47q0 -27 -17.5 -45.5t-44.5 -18.5z" />
    <glyph glyph-name="quotedbl" unicode="&#x22;" horiz-adv-x="347" 
d="M51 695h93l-18 -242h-57zM203 695h93l-18 -242h-57z" />
    <glyph glyph-name="numbersign" unicode="#" horiz-adv-x="535" 
d="M202 257h113l18 141h-112zM167 0h-63l26 195h-89v62h98l19 141h-92v62h101l26 190h62l-26 -190h113l26 190h62l-25 -190h88v-62h-97l-19 -141h92v-62h-102l-25 -195h-63l26 195h-113z" />
    <glyph glyph-name="dollar" unicode="$" horiz-adv-x="556" 
d="M302 -86h-65v100q-105 3 -167 48l26 70q70 -47 158 -47q56 0 92 27t36 70q0 39 -29.5 65.5t-92.5 49.5q-92 33 -136 73t-44 104q0 63 44 107.5t120 55.5v101h65v-99q82 -2 140 -38l-25 -68q-70 38 -140 38q-58 0 -85.5 -26t-27.5 -60q0 -36 30.5 -60.5t102.5 -51.5
q87 -32 128 -74.5t41 -109.5q0 -61 -44.5 -110t-126.5 -62v-103z" />
    <glyph glyph-name="percent" unicode="%" horiz-adv-x="840" 
d="M199 662h1q73 0 116 -50t43 -143q0 -99 -47.5 -153.5t-119.5 -54.5q-68 0 -114.5 50.5t-47.5 145.5q0 96 48 150.5t121 54.5zM195 608h-1q-42 0 -66.5 -40.5t-24.5 -106.5q-1 -66 24 -106t68 -40q45 0 68 39t23 110q0 144 -91 144zM251 -12h-58l395 673h58zM650 393h1
q73 0 116 -50t43 -143q0 -99 -47.5 -153t-119.5 -54q-68 0 -114 50t-47 145q0 96 48 150.5t120 54.5zM647 339h-1q-42 0 -66.5 -40.5t-24.5 -105.5q-1 -66 24 -106t67 -40q45 0 68 39t23 109q0 144 -90 144z" />
    <glyph glyph-name="ampersand" unicode="&#x26;" horiz-adv-x="642" 
d="M645 0h-111q-11 10 -32.5 32t-35.5 35q-91 -79 -214 -79q-99 0 -159.5 55t-60.5 135q0 128 141 198v3q-58 69 -58 137t48.5 119t133.5 51q69 0 114 -40.5t45 -104.5q0 -55 -37.5 -98t-120.5 -81l-1 -3q85 -93 176 -187q50 65 73 198h84q-33 -173 -105 -250
q84 -86 120 -120zM268 56h1q89 0 150 61q-70 66 -203 213q-96 -54 -96 -137q0 -60 42 -98.5t106 -38.5zM291 625h-1q-43 0 -67.5 -29t-24.5 -70q0 -57 56 -120q62 32 92 61t30 70q0 35 -22 61.5t-63 26.5z" />
    <glyph glyph-name="quotesingle" unicode="'" horiz-adv-x="194" 
d="M51 695h93l-18 -242h-57z" />
    <glyph glyph-name="parenleft" unicode="(" horiz-adv-x="294" 
d="M204 695h71q-132 -173 -132 -411q0 -224 132 -405h-71q-137 174 -137 406t137 410z" />
    <glyph glyph-name="parenright" unicode=")" horiz-adv-x="294" 
d="M90 -121h-71q132 180 132 409q0 228 -132 407h71q137 -174 137 -408q0 -230 -137 -408z" />
    <glyph glyph-name="asterisk" unicode="*" horiz-adv-x="429" 
d="M278 686l62 -36l-99 -126v-2l157 20v-69l-157 19v-3l99 -122l-65 -37l-61 143h-2l-66 -143l-59 37l98 123v2l-153 -19v69l152 -19v1l-97 126l64 36l62 -143h2z" />
    <glyph glyph-name="plus" unicode="+" horiz-adv-x="596" 
d="M265 532h66v-234h225v-62h-225v-236h-66v236h-225v62h225v234z" />
    <glyph glyph-name="comma" unicode="," horiz-adv-x="211" 
d="M81 -116l-65 -7q40 111 61 242l101 10q-18 -65 -46.5 -137.5t-50.5 -107.5z" />
    <glyph glyph-name="hyphen" unicode="-" horiz-adv-x="316" 
d="M30 306h256v-66h-256v66z" />
    <glyph glyph-name="hyphen" unicode="&#xad;" horiz-adv-x="316" 
d="M30 306h256v-66h-256v66z" />
    <glyph glyph-name="period" unicode="." horiz-adv-x="211" 
d="M115 -12h-1q-27 0 -44.5 18.5t-16.5 45.5q0 29 17 47t45 18t45 -18t17 -47q0 -27 -17.5 -45.5t-44.5 -18.5z" />
    <glyph glyph-name="slash" unicode="/" horiz-adv-x="364" 
d="M66 -40h-70l300 726h72z" />
    <glyph glyph-name="zero" unicode="0" horiz-adv-x="556" 
d="M273 -12h-1q-104 0 -167.5 88t-65.5 246q0 160 68 250t177 90q111 0 172 -86.5t61 -241.5q0 -164 -63 -255t-181 -91zM276 57h1q73 0 110.5 71.5t37.5 200.5q0 126 -36.5 195t-110.5 69q-65 0 -106 -71.5t-41 -192.5q-2 -127 38 -199.5t107 -72.5z" />
    <glyph glyph-name="one" unicode="1" horiz-adv-x="556" 
d="M252 0v567h-2l-114 -60l-18 69l144 74h78v-650h-88z" />
    <glyph glyph-name="two" unicode="2" horiz-adv-x="556" 
d="M498 0h-449v54l74 65q156 140 210.5 207t55.5 131q0 56 -32.5 93.5t-107.5 37.5q-81 0 -153 -62l-31 63q86 73 203 73q104 0 158.5 -57.5t54.5 -134.5q0 -83 -56 -157t-189 -192l-54 -45v-2h316v-74z" />
    <glyph glyph-name="three" unicode="3" horiz-adv-x="556" 
d="M48 37l25 70q26 -16 70.5 -30.5t91.5 -14.5q85 0 122 40t36 85q-1 65 -53.5 96.5t-126.5 31.5h-60v69h61q60 0 107 27.5t47 80.5q0 40 -30.5 68.5t-93.5 28.5q-80 0 -146 -47l-26 66q31 22 82.5 38t105.5 16q99 0 150 -46t51 -111q0 -52 -32.5 -92t-94.5 -61v-2
q67 -12 110.5 -57t43.5 -109q0 -82 -66.5 -139t-187.5 -57q-58 0 -108 14.5t-78 34.5z" />
    <glyph glyph-name="four" unicode="4" horiz-adv-x="556" 
d="M432 0h-87v177h-331v58l316 415h102v-404h98v-69h-98v-177zM108 246h237v229q0 47 3 93l-4 1q-35 -59 -54 -88l-182 -233v-2z" />
    <glyph glyph-name="five" unicode="5" horiz-adv-x="556" 
d="M466 650v-76h-272l-24 -165q34 4 62 4q85 0 146 -31q45 -21 75 -66t30 -106q0 -95 -72.5 -158.5t-183.5 -63.5q-109 0 -180 44l24 69q68 -40 156 -40q67 0 115.5 39t47.5 100q-1 63 -49 102.5t-150 39.5q-48 0 -104 -8l42 316h337z" />
    <glyph glyph-name="six" unicode="6" horiz-adv-x="556" 
d="M448 661v-74q-33 2 -73 -4q-106 -15 -169.5 -79t-74.5 -151h2q27 35 71.5 57.5t100.5 22.5q95 0 155 -59t60 -154q0 -93 -65 -162.5t-170 -69.5q-112 0 -180.5 75.5t-68.5 205.5q0 92 32.5 168t86.5 125q87 80 224 95q39 6 69 4zM286 58h1q62 0 101 45t39 111
q0 69 -40.5 109.5t-108.5 40.5q-44 0 -82.5 -23.5t-58.5 -59.5q-10 -20 -10 -38q1 -79 42 -132t117 -53z" />
    <glyph glyph-name="seven" unicode="7" horiz-adv-x="556" 
d="M65 650h441v-61l-307 -589h-95l306 574v2h-345v74z" />
    <glyph glyph-name="eight" unicode="8" horiz-adv-x="556" 
d="M283 662h1q97 0 151.5 -47.5t54.5 -114.5q0 -103 -114 -151v-4q67 -21 103.5 -63.5t36.5 -100.5q0 -87 -69 -140t-171 -53q-106 0 -171 51t-65 128q0 119 136 171v3q-110 45 -110 145q0 77 61.5 126.5t155.5 49.5zM277 55h1q65 0 104.5 33.5t39.5 81.5q0 57 -40 89.5
t-120 49.5q-62 -13 -95 -47.5t-33 -82.5q-3 -50 37 -87t106 -37zM280 597h-1q-59 0 -92.5 -30.5t-33.5 -74.5q-1 -46 35 -75t103 -43q49 12 79.5 42.5t30.5 74.5q0 42 -30 74t-91 32z" />
    <glyph glyph-name="nine" unicode="9" horiz-adv-x="556" 
d="M106 -11v74q28 -3 78 3q91 10 152 66q72 64 89 170h-3q-61 -75 -170 -75q-93 0 -150.5 58.5t-57.5 142.5q0 96 68.5 165t173.5 69q106 0 169 -74.5t63 -204.5q0 -199 -121 -306q-84 -73 -202 -83q-49 -7 -89 -5zM278 593h-1q-63 0 -102.5 -47t-39.5 -113q0 -59 38 -98
t100 -39q48 0 85.5 20t58.5 52q8 14 8 29q1 84 -36 140t-111 56z" />
    <glyph glyph-name="colon" unicode=":" horiz-adv-x="211" 
d="M115 337h-1q-27 0 -44.5 18.5t-16.5 45.5q0 29 17 47t45 18t45 -18t17 -47q0 -27 -17.5 -45.5t-44.5 -18.5zM115 -12h-1q-27 0 -44.5 18.5t-16.5 45.5q0 29 17 47t45 18t45 -18t17 -47q0 -27 -17.5 -45.5t-44.5 -18.5z" />
    <glyph glyph-name="semicolon" unicode=";" horiz-adv-x="211" 
d="M82 -116l-65 -6q41 115 60 242l101 10q-43 -154 -96 -246zM122 337h-1q-27 0 -44.5 18.5t-16.5 45.5q0 29 17 47t45 18t45 -18t17 -47q0 -27 -17.5 -45.5t-44.5 -18.5z" />
    <glyph glyph-name="less" unicode="&#x3c;" horiz-adv-x="596" 
d="M66 238v56l464 238v-70l-392 -195v-2l392 -195v-70z" />
    <glyph glyph-name="equal" unicode="=" horiz-adv-x="596" 
d="M556 338h-516v62h516v-62zM556 139h-516v62h516v-62z" />
    <glyph glyph-name="greater" unicode="&#x3e;" horiz-adv-x="596" 
d="M530 294v-56l-464 -238v70l392 195v2l-392 195v70z" />
    <glyph glyph-name="question" unicode="?" horiz-adv-x="438" 
d="M235 194h-82l-2 30q-8 82 68 167q74 79 74 133q0 39 -25.5 63t-75.5 25q-67 0 -113 -35l-26 64q64 45 158 45q85 0 130.5 -43.5t45.5 -107.5q0 -45 -22 -83t-68 -86q-67 -74 -64 -144zM193 -12h-1q-27 0 -44.5 18.5t-16.5 45.5q0 29 17 47t45 18t45 -18t17 -47
q0 -27 -17.5 -45.5t-44.5 -18.5z" />
    <glyph glyph-name="at" unicode="@" horiz-adv-x="786" 
d="M482 262l19 102q-27 9 -58 9q-69 0 -118.5 -49.5t-49.5 -121.5q0 -35 19.5 -58t55.5 -23q45 0 84 45.5t48 95.5zM541 -19l17 -47q-80 -40 -188 -40q-135 0 -230 90.5t-95 231.5q0 156 105 266t277 110q140 0 229 -86t89 -219q0 -99 -55 -160.5t-130 -61.5q-34 0 -57.5 23
t-22.5 68h-3q-56 -91 -154 -91q-48 0 -82 36.5t-34 95.5q0 97 70.5 164.5t174.5 67.5q68 0 119 -23l-32 -175q-22 -113 33 -115q43 -2 78 44.5t35 123.5q0 115 -71.5 187.5t-195.5 72.5q-132 0 -222 -88t-90 -233q0 -124 78.5 -201.5t195.5 -77.5q98 0 161 37z" />
    <glyph glyph-name="A" unicode="A" horiz-adv-x="671" 
d="M469 215h-269l-78 -215h-95l254 674h111l257 -674h-99zM220 285h229l-77 202q-16 43 -38 113h-2q-19 -68 -35 -112z" />
    <glyph glyph-name="B" unicode="B" horiz-adv-x="585" 
d="M81 1v664q77 15 175 15q134 0 197 -49q60 -45 60 -121q0 -49 -32 -89t-86 -58v-3q55 -13 99.5 -55t44.5 -114q0 -81 -61 -135q-72 -63 -250 -63q-62 0 -147 8zM172 604v-215h94q74 0 114.5 31t40.5 81q0 110 -159 110q-62 0 -90 -7zM172 321v-254q25 -5 84 -5
q81 0 134 30.5t53 100.5q0 65 -51.5 96.5t-134.5 31.5h-85z" />
    <glyph glyph-name="C" unicode="C" horiz-adv-x="648" 
d="M592 96l19 -71q-76 -37 -205 -37q-161 0 -264.5 92t-103.5 252q0 150 106.5 252t283.5 102q117 0 185 -34l-23 -72q-68 32 -158 32q-139 0 -218.5 -76t-79.5 -203q0 -118 76.5 -193.5t214.5 -75.5q100 0 167 32z" />
    <glyph glyph-name="D" unicode="D" horiz-adv-x="740" 
d="M81 1v664q114 15 212 15q210 0 312 -96q97 -89 97 -231q0 -153 -102 -255q-111 -105 -337 -105q-99 0 -182 8zM172 598v-528q33 -5 107 -5q160 -1 243.5 76.5t83.5 207.5q2 120 -77.5 189.5t-232.5 69.5q-70 0 -124 -10z" />
    <glyph glyph-name="E" unicode="E" horiz-adv-x="537" 
d="M464 389v-74h-292v-241h326v-74h-417v674h400v-74h-309v-211h292z" />
    <glyph glyph-name="F" unicode="F" horiz-adv-x="534" 
d="M81 0v674h398v-74h-307v-221h283v-74h-283v-305h-91z" />
    <glyph glyph-name="G" unicode="G" horiz-adv-x="716" 
d="M655 355v-320q-113 -42 -236 -42q-180 0 -283 97q-98 92 -98 245q0 143 107 244.5t294 101.5q120 0 192 -35l-23 -72q-73 33 -172 33q-140 0 -221 -75t-81 -194q0 -121 79 -196t214 -75q96 0 138 22v194h-153v72h243z" />
    <glyph glyph-name="H" unicode="H" horiz-adv-x="715" 
d="M81 674h91v-280h371v280h91v-674h-91v317h-371v-317h-91v674z" />
    <glyph glyph-name="I" unicode="I" horiz-adv-x="253" 
d="M81 674h91v-674h-91v674z" />
    <glyph glyph-name="J" unicode="J" horiz-adv-x="405" 
d="M240 244v430h91v-439q0 -247 -219 -247q-60 0 -108 19l15 73q37 -16 86 -16q68 0 101.5 40t33.5 140z" />
    <glyph glyph-name="K" unicode="K" horiz-adv-x="588" 
d="M81 0v674h91v-326h3q10 13 57 68l233 258h115l-270 -286l294 -388h-109l-250 333l-73 -78v-255h-91z" />
    <glyph glyph-name="L" unicode="L" horiz-adv-x="515" 
d="M81 0v674h91v-598h321v-76h-412z" />
    <glyph glyph-name="M" unicode="M" horiz-adv-x="872" 
d="M720 0l-17 298q-12 228 -12 299h-2q-38 -116 -96 -262l-130 -331h-72l-120 327q-53 150 -84 266h-2q-13 -278 -15 -306l-20 -291h-87l49 674h121l126 -333q40 -106 73 -225h2q30 103 79 226l134 332h120l43 -674h-90z" />
    <glyph glyph-name="N" unicode="N" horiz-adv-x="722" 
d="M167 0h-86v674h103l247 -349q87 -125 131 -214l3 1q-10 94 -10 266v296h86v-674h-93l-243 347q-99 146 -141 225l-3 -1q6 -101 6 -265v-306z" />
    <glyph glyph-name="O" unicode="O" horiz-adv-x="770" 
d="M380 -12h-1q-150 0 -245.5 96.5t-95.5 244.5q0 157 99 257t251 100q153 0 248 -96.5t95 -245.5q0 -163 -101 -259.5t-250 -96.5zM383 60h1q114 0 182.5 79t68.5 201q0 111 -66.5 192.5t-182.5 81.5q-119 0 -185.5 -81t-66.5 -201q0 -114 68.5 -193t180.5 -79z" />
    <glyph glyph-name="P" unicode="P" horiz-adv-x="576" 
d="M81 0v666q80 14 186 14q134 0 202 -58q63 -55 63 -142q0 -93 -56 -147q-76 -73 -222 -73q-56 0 -82 8v-268h-91zM172 602v-261q30 -9 86 -9q87 0 135 37.5t48 106.5q0 68 -47.5 100.5t-126.5 32.5q-55 0 -95 -7z" />
    <glyph glyph-name="Q" unicode="Q" horiz-adv-x="770" 
d="M733 -25l-25 -76q-154 36 -292 79q-26 9 -46 10q-140 6 -236 97t-96 243q0 158 99 258t252 100t247.5 -96.5t94.5 -244.5q0 -123 -60 -207.5t-158 -117.5v-4q133 -29 220 -41zM382 60h1q114 0 183 79t69 201q0 110 -66.5 192t-180.5 82q-120 0 -187 -82t-67 -202
q0 -113 68.5 -191.5t179.5 -78.5z" />
    <glyph glyph-name="R" unicode="R" horiz-adv-x="581" 
d="M81 0v665q80 15 186 15q144 0 210 -57q55 -48 55 -127q0 -64 -38 -109t-96 -63v-2q74 -27 102 -132q44 -168 56 -190h-94q-16 27 -47 160q-17 70 -49 100t-95 32h-99v-292h-91zM172 602v-242h107q75 0 118.5 34.5t43.5 91.5q0 65 -45.5 95t-122.5 30q-65 0 -101 -9z" />
    <glyph glyph-name="S" unicode="S" horiz-adv-x="537" 
d="M46 36l25 75q77 -49 175 -49q70 0 110.5 31.5t40.5 83.5q0 48 -31.5 77.5t-108.5 53.5q-100 31 -148 76.5t-48 116.5q0 81 64.5 133t167.5 52t167 -36l-26 -72q-62 35 -143 35q-70 0 -104 -31t-34 -71q0 -45 33.5 -73.5t112.5 -53.5q98 -32 144 -77.5t46 -122.5
q0 -82 -63.5 -139t-188.5 -57q-52 0 -106 13.5t-85 34.5z" />
    <glyph glyph-name="T" unicode="T" horiz-adv-x="544" 
d="M226 0v600h-233v74h558v-74h-234v-600h-91z" />
    <glyph glyph-name="U" unicode="U" horiz-adv-x="711" 
d="M81 674h91v-382q0 -116 48.5 -173.5t131.5 -57.5q88 0 137.5 58t49.5 173v382h91v-378q0 -156 -77 -232t-206 -76q-121 0 -193.5 74t-72.5 232v380z" />
    <glyph glyph-name="V" unicode="V" horiz-adv-x="603" 
d="M344 0h-101l-243 674h99l117 -338q56 -159 80 -249h2q25 84 88 247l130 340h97z" />
    <glyph glyph-name="W" unicode="W" horiz-adv-x="910" 
d="M296 0h-98l-185 674h97l88 -347q13 -52 55 -229h2q13 71 59 230l100 346h99l89 -350q37 -151 50 -224h2q13 61 59 228l100 346h94l-211 -674h-97l-91 358q-38 145 -48 220h-2q-16 -84 -57 -219z" />
    <glyph glyph-name="X" unicode="X" horiz-adv-x="631" 
d="M602 0h-108l-95 145q-64 96 -89 138h-2q-21 -40 -84 -139l-88 -144h-108l229 341l-220 333h108l99 -159q38 -61 70 -116h2q23 40 70 115l103 160h109l-230 -329z" />
    <glyph glyph-name="Y" unicode="Y" horiz-adv-x="590" 
d="M340 0h-91v286l-235 388h105l107 -192q67 -123 72 -135h2q14 30 74 135l110 192h105l-249 -387v-287z" />
    <glyph glyph-name="Z" unicode="Z" horiz-adv-x="619" 
d="M33 0v52l422 545v3h-386v74h508v-53l-420 -544v-3h427v-74h-551z" />
    <glyph glyph-name="bracketleft" unicode="[" horiz-adv-x="294" 
d="M279 -112h-195v798h195v-55h-124v-688h124v-55z" />
    <glyph glyph-name="backslash" unicode="\" horiz-adv-x="367" 
d="M371 -40h-71l-298 726h71z" />
    <glyph glyph-name="bracketright" unicode="]" horiz-adv-x="294" 
d="M15 686h195v-798h-195v55h124v688h-124v55z" />
    <glyph glyph-name="asciicircum" unicode="^" horiz-adv-x="596" 
d="M537 189h-72l-166 388h-2l-167 -388h-71l207 461h64z" />
    <glyph glyph-name="underscore" unicode="_" horiz-adv-x="500" 
d="M0 -75h500v-50h-500v50z" />
    <glyph glyph-name="grave" unicode="`" 
d="M16 697h103l91 -146h-66z" />
    <glyph glyph-name="a" unicode="a" horiz-adv-x="522" 
d="M448 289v-171q0 -73 8 -118h-83l-8 64h-3q-24 -31 -67.5 -53.5t-97.5 -22.5q-76 0 -117.5 42t-41.5 97q0 88 81 135.5t238 46.5v9q0 16 -3.5 31t-14.5 35.5t-37.5 33t-65.5 12.5q-82 0 -141 -40l-22 60q72 46 176 46q59 0 100.5 -18.5t61.5 -51t28.5 -65.5t8.5 -72z
M359 167v79q-228 6 -228 -107q0 -40 25.5 -62t64.5 -22q50 0 84.5 25t48.5 59q5 11 5 28z" />
    <glyph glyph-name="b" unicode="b" horiz-adv-x="626" 
d="M80 128v588h91v-316h2q57 96 186 96q100 0 164 -69.5t63 -177.5q0 -122 -72 -191.5t-169 -69.5q-124 0 -184 97h-2l-4 -85h-79q4 47 4 128zM171 273v-71q0 -18 4 -33q13 -45 54.5 -77t96.5 -32q77 0 122.5 50t45.5 136q0 77 -44 128.5t-120 51.5q-52 0 -95 -31t-58 -85
q-6 -20 -6 -37z" />
    <glyph glyph-name="c" unicode="c" horiz-adv-x="496" 
d="M445 88l16 -69q-70 -31 -158 -31q-119 0 -191 69.5t-72 178.5q0 115 78 187.5t205 72.5q84 0 140 -29l-21 -69q-50 26 -119 26q-88 0 -139 -51.5t-51 -130.5q0 -82 53 -131.5t134 -49.5q62 0 125 27z" />
    <glyph glyph-name="d" unicode="d" horiz-adv-x="619" 
d="M448 716h91v-588q0 -81 4 -128h-82l-4 91h-2q-24 -47 -72.5 -75t-112.5 -28q-98 0 -164 69.5t-66 175.5q-1 117 69 190t172 73q60 0 103 -23.5t62 -55.5h2v299zM448 214v69q0 23 -4 39q-13 45 -52.5 74.5t-93.5 29.5q-75 0 -120.5 -52t-45.5 -134q0 -77 43.5 -128
t121.5 -51q52 0 93 32t53 81q5 16 5 40z" />
    <glyph glyph-name="e" unicode="e" horiz-adv-x="547" 
d="M504 223h-377q1 -79 52.5 -121.5t130.5 -42.5q85 0 152 27l16 -65q-81 -33 -180 -33q-119 0 -189 67.5t-70 177.5q0 111 68 187t182 76q51 0 90.5 -16.5t63 -41.5t39 -57.5t21 -61t5.5 -56.5t-4 -40zM128 288h292q0 19 -5 40.5t-18 46.5t-43 41t-72 16
q-70 0 -108.5 -44.5t-45.5 -99.5z" />
    <glyph glyph-name="f" unicode="f" horiz-adv-x="314" 
d="M177 0h-91v415h-70v69h70v21q0 122 61 177q49 46 124 46q46 0 80 -15l-11 -70q-26 12 -62 12q-102 0 -102 -147v-24h127v-69h-126v-415z" />
    <glyph glyph-name="g" unicode="g" horiz-adv-x="613" 
d="M533 358v-284q0 -159 -76 -226q-69 -60 -192 -60q-115 0 -179 45l23 70q69 -44 159 -44q80 0 127.5 43t47.5 134v55h-2q-56 -89 -174 -89q-98 0 -162.5 68.5t-64.5 167.5q0 115 71 186.5t169 71.5q122 0 171 -91h2l3 79h81q-4 -47 -4 -126zM442 217v69q0 19 -5 41
q-15 44 -52.5 72t-89.5 28q-71 0 -117 -50t-46 -134q0 -70 42 -121t120 -51q48 0 86.5 27.5t53.5 70.5q8 22 8 48z" />
    <glyph glyph-name="h" unicode="h" horiz-adv-x="605" 
d="M80 0v716h91v-315h2q27 45 71 68q44 27 98 27q29 0 58 -9.5t60 -31.5t50 -68t19 -110v-277h-91v268q0 68 -31 110.5t-96 42.5q-46 0 -82 -27t-51 -64q-7 -15 -7 -44v-286h-91z" />
    <glyph glyph-name="i" unicode="i" horiz-adv-x="250" 
d="M171 0h-91v484h91v-484zM125 568h-1q-25 0 -40.5 16.5t-15.5 39.5t16 39.5t42 16.5q25 0 41 -16t16 -40q0 -23 -16 -39.5t-42 -16.5z" />
    <glyph glyph-name="j" unicode="j" horiz-adv-x="262" 
d="M-42 -215l-9 72q72 3 106 37q20 22 28.5 61.5t8.5 129.5v399h91v-437q0 -142 -61 -204q-57 -58 -164 -58zM137 568h-1q-25 0 -40.5 16.5t-15.5 39.5t16.5 39.5t42.5 16.5q25 0 40.5 -16.5t15.5 -39.5t-15.5 -39.5t-42.5 -16.5z" />
    <glyph glyph-name="k" unicode="k" horiz-adv-x="507" 
d="M171 716v-453h2q30 37 48 55l158 166h113l-207 -198l238 -286h-114l-187 234l-51 -52v-182h-91v716h91z" />
    <glyph glyph-name="l" unicode="l" horiz-adv-x="250" 
d="M80 0v716h91v-716h-91z" />
    <glyph glyph-name="m" unicode="m" horiz-adv-x="906" 
d="M80 0v351q0 78 -4 133h79l5 -83h3q57 95 167 95q53 0 92.5 -29t55.5 -75h2q24 42 57 65q51 39 120 39q21 0 42.5 -5.5t46 -20.5t43 -38.5t30.5 -64.5t12 -94v-273h-89v264q0 77 -30.5 117.5t-87.5 40.5q-39 0 -70 -23.5t-46 -57.5q-8 -26 -8 -45v-296h-89v282
q0 64 -30 102t-82 38q-43 0 -75.5 -27.5t-46.5 -63.5q-8 -21 -8 -44v-287h-89z" />
    <glyph glyph-name="n" unicode="n" horiz-adv-x="605" 
d="M80 0v351q0 78 -4 133h81l5 -86h3q21 40 67.5 69t108.5 29q29 0 58 -9.5t60 -31.5t50.5 -68t19.5 -110v-277h-91v269q0 69 -31 111t-96 42q-47 0 -82.5 -27.5t-50.5 -66.5q-7 -19 -7 -40v-288h-91z" />
    <glyph glyph-name="o" unicode="o" horiz-adv-x="604" 
d="M298 -12h-1q-111 0 -184.5 69.5t-73.5 179.5q0 116 75.5 187.5t190.5 71.5q116 0 187.5 -70.5t71.5 -177.5q0 -124 -79.5 -192t-186.5 -68zM299 55h1q72 0 121 51t49 138q0 72 -43 128.5t-124 56.5q-82 0 -126 -55t-44 -133q0 -84 48 -135t118 -51z" />
    <glyph glyph-name="p" unicode="p" horiz-adv-x="626" 
d="M80 -200v524q0 93 -4 160h82l5 -89h2q63 101 194 101q97 0 162 -69.5t65 -175.5q0 -124 -71 -193.5t-172 -69.5q-55 0 -100 21.5t-70 61.5h-2v-271h-91zM171 273v-70q0 -19 4 -34q13 -46 54.5 -78.5t96.5 -32.5q77 0 122.5 51t45.5 138q0 75 -44 126.5t-119 51.5
q-53 0 -95.5 -31t-57.5 -85q-7 -19 -7 -36z" />
    <glyph glyph-name="q" unicode="q" horiz-adv-x="617" 
d="M448 -200v283h-2q-54 -95 -180 -95q-95 0 -160.5 69.5t-65.5 175.5q0 66 22 118.5t57.5 83t77 46t84.5 15.5q62 0 105 -26t64 -64h2l3 78h88q-4 -57 -4 -127v-557h-91zM448 204v79q0 23 -4 38q-14 45 -52.5 74.5t-93.5 29.5q-75 0 -120.5 -51.5t-45.5 -134.5
q0 -76 42 -127.5t121 -51.5q50 0 89.5 28t55.5 73q8 19 8 43z" />
    <glyph glyph-name="r" unicode="r" horiz-adv-x="354" 
d="M80 0v325q0 95 -4 159h80l3 -101h3q19 53 58.5 83t87.5 30q14 0 27 -3v-84q-15 3 -34 3q-49 0 -82.5 -31.5t-43.5 -84.5q-4 -17 -4 -41v-255h-91z" />
    <glyph glyph-name="s" unicode="s" horiz-adv-x="432" 
d="M45 24l22 68q62 -37 130 -37q51 0 76 20.5t25 52.5t-22.5 51t-76.5 35q-139 42 -139 137q0 61 48.5 103t130.5 42q77 0 129 -32l-22 -66q-49 31 -111 31q-41 0 -63.5 -19t-22.5 -49t23.5 -47t78.5 -35q71 -23 103.5 -56.5t32.5 -88.5q0 -64 -51 -105t-142 -41
q-84 0 -149 36z" />
    <glyph glyph-name="t" unicode="t" horiz-adv-x="357" 
d="M100 576l89 25v-117h137v-69h-137v-253q0 -99 72 -99q33 0 57 7l5 -68q-33 -14 -86 -14q-67 0 -101 40q-36 39 -36 128v259h-80v69h80v92z" />
    <glyph glyph-name="u" unicode="u" horiz-adv-x="602" 
d="M522 484v-351q0 -81 4 -133h-81l-5 88h-2q-23 -41 -68 -70.5t-111 -29.5q-25 0 -47.5 5t-48 19.5t-44 38t-31 64.5t-12.5 94v275h91v-259q0 -162 123 -162q45 0 80 25t52 61q9 23 9 46v289h91z" />
    <glyph glyph-name="v" unicode="v" horiz-adv-x="526" 
d="M13 484h99l106 -272q29 -75 46 -127h2q12 38 48 128l106 271h97l-211 -484h-90z" />
    <glyph glyph-name="w" unicode="w" horiz-adv-x="793" 
d="M20 484h93l71 -249q25 -89 39 -154h2q13 52 47 154l87 249h79l83 -245q29 -90 46 -158h2q13 65 41 157l77 246h90l-168 -484h-85l-79 230q-32 90 -49 164h-2q-16 -71 -49 -164l-85 -230h-85z" />
    <glyph glyph-name="x" unicode="x" horiz-adv-x="505" 
d="M16 484h103l78 -104q24 -31 55 -76h2q16 24 54 78l75 102h102l-182 -232l188 -252h-105l-80 108q-5 7 -58 85h-2q-12 -19 -58 -85l-78 -108h-103l191 248z" />
    <glyph glyph-name="y" unicode="y" horiz-adv-x="513" 
d="M8 484h101l119 -289q18 -45 35 -98h2q33 95 35 101l108 286h99l-150 -356q-55 -134 -95 -200t-86 -100q-57 -43 -115 -51l-19 76q41 9 80 37q51 35 83 104q7 11 7 20q0 10 -7 24z" />
    <glyph glyph-name="z" unicode="z" horiz-adv-x="466" 
d="M19 0v52l241 280q25 30 71 78v2h-292v72h406l-1 -56l-237 -277q-56 -63 -70 -77v-2h313v-72h-431z" />
    <glyph glyph-name="braceleft" unicode="{" horiz-adv-x="294" 
d="M28 262v51q51 0 68 21t17 55q0 27 -8 83q-9 50 -9 82q0 67 40.5 99.5t111.5 32.5h23v-56h-19q-46 0 -66 -22.5t-20 -67.5q0 -22 8 -70q8 -46 8 -76q1 -85 -73 -105v-2q74 -18 73 -106q0 -28 -8 -76q-8 -50 -8 -70q0 -91 86 -91h19v-56h-23q-152 0 -152 140q0 32 9 79
q8 54 8 79q0 76 -85 76z" />
    <glyph glyph-name="bar" unicode="|" horiz-adv-x="251" 
d="M92 750h68v-1000h-68v1000z" />
    <glyph glyph-name="braceright" unicode="}" horiz-adv-x="294" 
d="M266 313v-51q-85 0 -85 -76q0 -30 9 -79q8 -52 8 -79q0 -140 -152 -140h-23v56h19q86 0 86 91q0 20 -8 70q-8 48 -8 76q-1 88 73 106v2q-74 20 -73 105q0 30 8 76q8 48 8 70q0 45 -20 67.5t-66 22.5h-19v56h23q71 0 111.5 -32.5t40.5 -99.5q0 -26 -8 -82q-9 -50 -9 -83
q0 -34 17 -55t68 -21z" />
    <glyph glyph-name="asciitilde" unicode="~" horiz-adv-x="596" 
d="M102 207h-62q-2 75 32.5 115.5t90.5 40.5q31 0 58.5 -9t86.5 -37q93 -43 130 -43q55 0 56 86h61q3 -82 -31.5 -119t-87.5 -37q-49 0 -149 46q-9 4 -26.5 12.5t-27 12.5t-22.5 9.5t-24 7.5t-22 2q-60 0 -63 -87z" />
    <glyph glyph-name="exclamdown" unicode="&#xa1;" horiz-adv-x="239" 
d="M170 -196h-101l16 474h69zM120 486h1q27 0 44 -18t17 -47q0 -27 -17.5 -45.5t-44.5 -18.5t-45 18.5t-17 45.5q0 29 17 47t45 18z" />
    <glyph glyph-name="cent" unicode="&#xa2;" horiz-adv-x="556" 
d="M356 -17h-65v103q-101 11 -164 75q-58 65 -58 164q0 100 60.5 169t161.5 83v103h65v-101q64 0 123 -27l-22 -70q-45 28 -117 28q-79 0 -129.5 -50t-50.5 -128q0 -82 50 -129.5t124 -47.5q68 0 129 28l16 -65q-51 -28 -123 -32v-103z" />
    <glyph glyph-name="sterling" unicode="&#xa3;" horiz-adv-x="556" 
d="M510 0h-446v50q120 64 120 175q0 32 -5 66h-109v66h100q-11 68 -11 105q0 90 57 145t147 55q73 0 119 -26l-20 -69q-37 22 -99 22q-61 0 -90 -35.5t-29 -95.5q0 -48 11 -101h157v-66h-149q4 -75 -4 -107q-16 -63 -70 -107v-2h321v-75z" />
    <glyph glyph-name="currency" unicode="&#xa4;" horiz-adv-x="556" 
d="M277 536h1q76 0 121 -40l75 76l46 -47l-80 -70q38 -47 38 -119q0 -79 -38 -125l75 -73l-46 -45l-70 77q-46 -42 -124 -42q-76 0 -120 39l-69 -74l-44 45l72 70q-41 47 -41 121q0 76 43 126l-76 69l46 48l70 -76q50 40 121 40zM275 472h-1q-57 0 -93 -41.5t-36 -99.5
q0 -69 41 -104t88 -35q52 0 92 34.5t40 109.5q0 54 -35 95t-96 41z" />
    <glyph glyph-name="yen" unicode="&#xa5;" horiz-adv-x="556" 
d="M314 0h-86v171h-165v51h165v72h-165v51h139l-185 305h100l115 -210q25 -46 42 -88h3q16 39 43 90l121 208h98l-196 -305h137v-51h-166v-72h166v-51h-166v-171z" />
    <glyph glyph-name="brokenbar" unicode="&#xa6;" horiz-adv-x="251" 
d="M92 174h68v-350h-68v350zM92 674h68v-350h-68v350z" />
    <glyph glyph-name="section" unicode="&#xa7;" horiz-adv-x="558" 
d="M143 351v-1q0 -29 25.5 -52.5t88.5 -44.5q94 -31 120 -46q37 31 37 76q0 63 -96 95q-100 33 -130 50q-45 -32 -45 -77zM448 648l-23 -58q-55 34 -130 34q-48 0 -78.5 -21t-30.5 -54q0 -34 31.5 -53.5t102.5 -41.5q84 -26 127.5 -60.5t43.5 -97.5q0 -72 -66 -121
q40 -33 40 -90q0 -74 -59.5 -112.5t-140.5 -38.5q-106 0 -168 44l26 58q58 -42 141 -42q52 0 84.5 22t32.5 60q0 36 -27.5 58.5t-100.5 45.5q-93 29 -139 63.5t-46 95.5q0 70 75 117q-16 11 -27 35.5t-11 48.5q0 65 54.5 104t137.5 39q86 0 151 -35z" />
    <glyph glyph-name="dieresis" unicode="&#xa8;" 
d="M53 571h-1q-22 0 -36.5 15.5t-14.5 37.5t15.5 37.5t37.5 15.5q21 0 35.5 -15.5t14.5 -37.5t-14 -37.5t-37 -15.5zM248 571h-2q-22 0 -36 15.5t-14 37.5t15 37.5t37 15.5t36.5 -15.5t14.5 -37.5t-14 -37.5t-37 -15.5z" />
    <glyph glyph-name="copyright" unicode="&#xa9;" horiz-adv-x="677" 
d="M340 648h1q125 0 212 -90t87 -218q0 -129 -87 -219.5t-213 -90.5q-127 0 -215 90.5t-88 219.5q0 128 88 218t215 90zM340 606h-1q-107 0 -179.5 -77.5t-72.5 -191.5q0 -112 73 -188.5t180 -76.5q105 -1 177.5 76.5t72.5 191.5q0 112 -72.5 189t-177.5 77zM474 492
l-12 -39q-39 24 -98 24q-67 0 -103 -38.5t-36 -101.5q0 -61 37 -101t104 -40q63 0 102 27l12 -38q-47 -32 -124 -32q-85 0 -134 51t-49 130q0 83 56.5 134.5t133.5 51.5q37 0 68.5 -8.5t42.5 -19.5z" />
    <glyph glyph-name="ordfeminine" unicode="&#xaa;" horiz-adv-x="370" 
d="M325 267h-63l-6 44h-2q-45 -49 -110 -49q-52 0 -80.5 27.5t-28.5 68.5q0 54 55.5 85.5t159.5 27.5v10q0 9 -3.5 20.5t-23 26t-52.5 14.5q-56 0 -93 -28l-17 43q49 35 123 35q135 0 135 -147v-99q0 -43 6 -79zM252 377v50q-147 4 -147 -66q0 -23 17.5 -37t43.5 -14
q24 0 44 11.5t30 27.5q12 17 12 28z" />
    <glyph glyph-name="guillemotleft" unicode="&#xab;" horiz-adv-x="441" 
d="M246 440l-143 -188l144 -187h-74l-143 187l142 188h74zM417 440l-143 -188l144 -187h-74l-143 187l142 188h74z" />
    <glyph glyph-name="logicalnot" unicode="&#xac;" horiz-adv-x="596" 
d="M40 400h516v-278h-66v216h-450v62z" />
    <glyph glyph-name="registered" unicode="&#xae;" horiz-adv-x="435" 
d="M192 496v-66h-40v166q40 5 66 5q38 0 58 -13q17 -12 17 -35q0 -29 -35 -39v-2q23 -8 30 -41q6 -33 13 -41h-43q-4 5 -13 40q-4 26 -35 26h-18zM193 571v-47h18q39 0 39 24q0 25 -36 25q-13 0 -21 -2zM219 683h1q71 0 120.5 -48.5t49.5 -117.5q0 -71 -49.5 -120
t-121.5 -49q-73 0 -123 49t-50 120q0 69 50 117.5t123 48.5zM218 649h-1q-54 0 -91 -39t-37 -94q0 -56 37 -94.5t93 -38.5q55 -1 91.5 38t36.5 95t-36.5 94.5t-92.5 38.5z" />
    <glyph glyph-name="macron" unicode="&#xaf;" 
d="M34 646h234v-58h-234v58z" />
    <glyph glyph-name="macron" unicode="&#x2c9;" 
d="M34 646h234v-58h-234v58z" />
    <glyph glyph-name="degree" unicode="&#xb0;" horiz-adv-x="330" 
d="M166 686h1q61 0 97.5 -38.5t36.5 -92.5q0 -59 -41 -97t-96 -38q-59 0 -97 38t-38 91q0 58 39.5 97.5t97.5 39.5zM164 637h-1q-37 0 -57 -26.5t-20 -60.5t22.5 -57.5t55.5 -23.5q35 0 57.5 24t22.5 61q0 31 -19.5 57t-60.5 26z" />
    <glyph glyph-name="plusminus" unicode="&#xb1;" horiz-adv-x="596" 
d="M265 573h66v-194h225v-62h-225v-200h-66v200h-225v62h225v194zM40 62h516v-62h-516v62z" />
    <glyph glyph-name="twosuperior" unicode="&#xb2;" horiz-adv-x="333" 
d="M15 451v40l71 61q75 66 102.5 99t27.5 66q0 30 -20 50.5t-61 20.5q-44 0 -90 -32l-22 46q53 44 130 44q69 0 104.5 -35t35.5 -80q0 -52 -33 -93t-109 -104l-31 -25v-2h180v-56h-285z" />
    <glyph glyph-name="threesuperior" unicode="&#xb3;" horiz-adv-x="328" 
d="M50 764l-19 49q54 33 125 33q65 0 97 -27.5t32 -67.5q0 -30 -22 -54t-59 -37v-2q44 -5 71 -32t27 -64q0 -48 -44 -82t-121 -34q-81 0 -126 30l20 51q43 -28 101 -28q47 0 70.5 21t22.5 45q-1 35 -34 52t-78 17h-33v47h34q36 0 65 15.5t30 47.5q0 19 -16.5 34t-50.5 15
q-50 0 -92 -29z" />
    <glyph glyph-name="acute" unicode="&#xb4;" 
d="M189 697h103l-128 -146h-66z" />
    <glyph glyph-name="mu" unicode="&#xb5;" horiz-adv-x="604" 
d="M444 83h-4q-21 -38 -60.5 -66t-95.5 -28q-86 0 -120 59v-56q0 -145 12 -192h-81q-15 44 -15 189v495h91v-275q0 -65 31 -105.5t93 -40.5q44 0 79 25t52 61q9 23 9 46v289h91v-341q0 -45 11 -63.5t40 -20.5l-7 -66q-20 -5 -32 -5q-38 0 -63.5 23.5t-30.5 71.5z" />
    <glyph glyph-name="paragraph" unicode="&#xb6;" horiz-adv-x="549" 
d="M312 -49h-66v310h-8q-75 0 -139 52t-64 142q0 42 12.5 78t43 70.5t91 54t145.5 19.5q91 0 127 -9v-717h-66v663h-76v-663z" />
    <glyph glyph-name="periodcentered" unicode="&#xb7;" horiz-adv-x="211" 
d="M105 200h-1q-27 0 -44.5 18.5t-16.5 45.5q0 29 17 47t45 18t45 -18t17 -47q0 -27 -17.5 -45.5t-44.5 -18.5z" />
    <glyph glyph-name="periodcentered" unicode="&#x2219;" horiz-adv-x="211" 
d="M105 200h-1q-27 0 -44.5 18.5t-16.5 45.5q0 29 17 47t45 18t45 -18t17 -47q0 -27 -17.5 -45.5t-44.5 -18.5z" />
    <glyph glyph-name="cedilla" unicode="&#xb8;" 
d="M133 2h56l-34 -52q29 -3 50 -22t21 -46q0 -42 -30 -62t-79 -20q-39 0 -68 17l14 43q26 -14 56 -14q20 0 33 7.5t12 24.5q-1 35 -81 41z" />
    <glyph glyph-name="onesuperior" unicode="&#xb9;" horiz-adv-x="255" 
d="M183 451h-73v327h-2l-71 -33l-12 53l93 43h65v-390z" />
    <glyph glyph-name="ordmasculine" unicode="&#xba;" horiz-adv-x="373" 
d="M187 592h1q77 0 125 -47t48 -115q-1 -80 -53.5 -124t-121.5 -44q-73 0 -123 45.5t-50 115.5q0 75 51 122t123 47zM186 541h-1q-48 0 -75 -35t-27 -81q0 -50 31.5 -81t72.5 -31q44 0 73.5 30t29.5 84q0 43 -27 78.5t-77 35.5z" />
    <glyph glyph-name="guillemotright" unicode="&#xbb;" horiz-adv-x="441" 
d="M168 252l-144 188h73l143 -188l-143 -187h-72zM338 252l-144 188h73l143 -188l-143 -187h-73z" />
    <glyph glyph-name="onequarter" unicode="&#xbc;" horiz-adv-x="808" 
d="M205 267h-73v327h-2l-71 -33l-12 53l93 43h65v-390zM207 -12h-58l392 674h59zM706 0h-70v101h-218v40l210 254h78v-244h65v-50h-65v-101zM636 151v124q0 31 3 60h-2q-5 -8 -16 -25.5t-17 -24.5l-110 -133l1 -1h141z" />
    <glyph glyph-name="onehalf" unicode="&#xbd;" horiz-adv-x="808" 
d="M191 267h-73v327h-2l-71 -33l-12 53l93 43h65v-390zM190 -12h-59l392 674h59zM469 0v40l70 61q75 65 103 98.5t28 66.5q0 30 -20 50.5t-61 20.5q-44 0 -90 -32l-22 46q53 44 130 44q69 0 104.5 -35t35.5 -79q0 -28 -8.5 -51.5t-32 -50.5t-41.5 -43.5t-60 -52.5l-31 -25
v-2h180v-56h-285z" />
    <glyph glyph-name="threequarters" unicode="&#xbe;" horiz-adv-x="808" 
d="M69 580l-19 48q52 34 124 34q65 0 97.5 -27.5t32.5 -67.5q0 -30 -22 -54t-59 -37v-2q44 -5 71 -32t27 -64q0 -48 -44 -82t-121 -34q-81 0 -126 30l20 51q43 -28 101 -28q47 0 70.5 21t22.5 45q-1 35 -34 52t-78 17h-33v47h34q36 0 65 15.5t30 47.5q0 19 -16.5 34
t-50.5 15q-50 0 -92 -29zM251 -12h-58l392 674h59zM720 0h-70v101h-219v40l211 254h78v-244h65v-50h-65v-101zM650 151v124q0 31 3 60h-2q-30 -46 -33 -50l-111 -133l1 -1h142z" />
    <glyph glyph-name="questiondown" unicode="&#xbf;" horiz-adv-x="438" 
d="M258 486h1q27 0 44 -18t17 -47q0 -27 -17.5 -45.5t-44.5 -18.5t-44.5 18.5t-17.5 45.5q0 29 17 47t45 18zM217 281h82l2 -30q8 -82 -68 -167q-74 -79 -74 -133q0 -39 25.5 -63t75.5 -25q68 0 113 36l26 -65q-64 -45 -158 -45q-85 0 -130.5 43.5t-45.5 107.5q0 45 22 83
t68 86q67 74 64 144z" />
    <glyph glyph-name="Agrave" unicode="&#xc0;" horiz-adv-x="671" 
d="M469 215h-269l-78 -215h-95l254 674h111l257 -674h-99zM220 285h229l-77 202q-16 43 -38 113h-2q-19 -68 -35 -112zM185 830h111l92 -119h-75z" />
    <glyph glyph-name="Aacute" unicode="&#xc1;" horiz-adv-x="671" 
d="M469 215h-269l-78 -215h-95l254 674h111l257 -674h-99zM220 285h229l-77 202q-16 43 -38 113h-2q-19 -68 -35 -112zM377 830h111l-128 -120h-75z" />
    <glyph glyph-name="Acircumflex" unicode="&#xc2;" horiz-adv-x="671" 
d="M469 215h-269l-78 -215h-95l254 674h111l257 -674h-99zM220 285h229l-77 202q-16 43 -38 113h-2q-19 -68 -35 -112zM307 830h67l111 -120h-76l-67 74h-2l-68 -74h-73z" />
    <glyph glyph-name="Atilde" unicode="&#xc3;" horiz-adv-x="671" 
d="M469 215h-269l-78 -215h-95l254 674h111l257 -674h-99zM220 285h229l-77 202q-16 43 -38 113h-2q-19 -68 -35 -112zM258 715h-49q-2 47 17.5 75.5t53.5 28.5q24 0 63 -22q34 -18 51 -18q12 0 18.5 8.5t8.5 31.5h48q2 -99 -69 -99q-27 0 -65 20q-36 20 -50 20
q-22 0 -27 -45z" />
    <glyph glyph-name="Adieresis" unicode="&#xc4;" horiz-adv-x="671" 
d="M469 215h-269l-78 -215h-95l254 674h111l257 -674h-99zM220 285h229l-77 202q-16 43 -38 113h-2q-19 -68 -35 -112zM243 720h-1q-22 0 -36 15.5t-14 36.5t15 36.5t37 15.5q21 0 35 -15t14 -37q0 -21 -14 -36.5t-36 -15.5zM436 720h-1q-21 0 -35 15.5t-14 36.5t15 36.5
t36 15.5q22 0 36 -15t14 -37q0 -21 -14.5 -36.5t-36.5 -15.5z" />
    <glyph glyph-name="Aring" unicode="&#xc5;" horiz-adv-x="671" 
d="M469 215h-269l-78 -215h-95l254 674h111l257 -674h-99zM220 285h229l-77 202q-16 43 -38 113h-2q-19 -68 -35 -112zM337 882h1q45 0 72.5 -26t27.5 -66q0 -38 -28.5 -63.5t-72.5 -25.5q-45 0 -73.5 25.5t-28.5 63.5q0 39 28 65.5t74 26.5zM336 845h-1q-22 0 -35 -16
t-13 -39q0 -21 14 -36.5t35 -15.5q22 0 35.5 15t13.5 38t-14 38.5t-35 15.5z" />
    <glyph glyph-name="AE" unicode="&#xc6;" horiz-adv-x="865" 
d="M91 0h-95l343 674h461v-74h-320l30 -212h278v-74h-266l36 -240h269v-74h-347l-35 243h-231zM247 317h187l-27 189q-12 82 -13 102h-4q-20 -45 -44 -93z" />
    <glyph glyph-name="Ccedilla" unicode="&#xc7;" horiz-adv-x="648" 
d="M592 96l19 -71q-69 -35 -206 -36l-26 -39q31 -6 51.5 -26t20.5 -50q0 -42 -30.5 -62t-75.5 -20q-46 0 -73 16l14 46q24 -13 57 -13q44 0 44 32t-81 42l44 77q-140 15 -226 105t-86 235q0 150 106.5 252t283.5 102q117 0 185 -34l-23 -72q-68 32 -158 32
q-139 0 -218.5 -76t-79.5 -203q0 -118 76.5 -193.5t214.5 -75.5q100 0 167 32z" />
    <glyph glyph-name="Egrave" unicode="&#xc8;" horiz-adv-x="537" 
d="M464 389v-74h-292v-241h326v-74h-417v674h400v-74h-309v-211h292zM140 830h111l92 -119h-75z" />
    <glyph glyph-name="Eacute" unicode="&#xc9;" horiz-adv-x="537" 
d="M464 389v-74h-292v-241h326v-74h-417v674h400v-74h-309v-211h292zM322 830h111l-128 -120h-75z" />
    <glyph glyph-name="Ecircumflex" unicode="&#xca;" horiz-adv-x="537" 
d="M464 389v-74h-292v-241h326v-74h-417v674h400v-74h-309v-211h292zM246 830h67l111 -120h-76l-67 74h-2l-68 -74h-73z" />
    <glyph glyph-name="Edieresis" unicode="&#xcb;" horiz-adv-x="537" 
d="M464 389v-74h-292v-241h326v-74h-417v674h400v-74h-309v-211h292zM181 720h-1q-22 0 -36 15.5t-14 36.5t15 36.5t37 15.5q21 0 35 -15t14 -37q0 -21 -14 -36.5t-36 -15.5zM374 720h-1q-21 0 -35 15.5t-14 36.5t15 36.5t36 15.5q22 0 36 -15t14 -37q0 -21 -14.5 -36.5
t-36.5 -15.5z" />
    <glyph glyph-name="Igrave" unicode="&#xcc;" horiz-adv-x="253" 
d="M81 674h91v-674h-91v674zM-21 830h111l92 -119h-75z" />
    <glyph glyph-name="Iacute" unicode="&#xcd;" horiz-adv-x="253" 
d="M81 674h91v-674h-91v674zM166 830h111l-128 -120h-75z" />
    <glyph glyph-name="Icircumflex" unicode="&#xce;" horiz-adv-x="253" 
d="M81 674h91v-674h-91v674zM92 830h67l111 -120h-76l-67 74h-2l-68 -74h-73z" />
    <glyph glyph-name="Idieresis" unicode="&#xcf;" horiz-adv-x="253" 
d="M81 674h91v-674h-91v674zM31 720h-1q-22 0 -36 15.5t-14 36.5t15 36.5t37 15.5q21 0 35 -15t14 -37q0 -21 -14 -36.5t-36 -15.5zM224 720h-1q-21 0 -35 15.5t-14 36.5t15 36.5t36 15.5q22 0 36 -15t14 -37q0 -21 -14.5 -36.5t-36.5 -15.5z" />
    <glyph glyph-name="Eth" unicode="&#xd0;" horiz-adv-x="744" 
d="M-3 302v74h87v292q114 15 212 15q211 0 312 -95q97 -89 97 -234q0 -155 -102 -257q-111 -105 -337 -105q-99 0 -182 8v302h-87zM382 376v-74h-207v-233q32 -5 107 -5q161 0 244 78t83 210q2 122 -77 190.5t-233 68.5q-70 0 -124 -10v-225h207z" />
    <glyph glyph-name="Ntilde" unicode="&#xd1;" horiz-adv-x="722" 
d="M167 0h-86v674h103l247 -349q87 -125 131 -214l3 1q-10 94 -10 266v296h86v-674h-93l-243 347q-99 146 -141 225l-3 -1q6 -101 6 -265v-306zM286 715h-49q-2 47 17.5 75.5t53.5 28.5q24 0 63 -22q34 -18 51 -18q12 0 18.5 8.5t8.5 31.5h48q2 -99 -69 -99q-27 0 -65 20
q-36 20 -50 20q-22 0 -27 -45z" />
    <glyph glyph-name="Ograve" unicode="&#xd2;" horiz-adv-x="770" 
d="M380 -12h-1q-150 0 -245.5 96.5t-95.5 244.5q0 157 99 257t251 100q153 0 248 -96.5t95 -245.5q0 -163 -101 -259.5t-250 -96.5zM383 60h1q114 0 182.5 79t68.5 201q0 111 -66.5 192.5t-182.5 81.5q-119 0 -185.5 -81t-66.5 -201q0 -114 68.5 -193t180.5 -79zM237 833
h111l92 -119h-75z" />
    <glyph glyph-name="Oacute" unicode="&#xd3;" horiz-adv-x="770" 
d="M380 -12h-1q-150 0 -245.5 96.5t-95.5 244.5q0 157 99 257t251 100q153 0 248 -96.5t95 -245.5q0 -163 -101 -259.5t-250 -96.5zM383 60h1q114 0 182.5 79t68.5 201q0 111 -66.5 192.5t-182.5 81.5q-119 0 -185.5 -81t-66.5 -201q0 -114 68.5 -193t180.5 -79zM423 833
h111l-128 -120h-75z" />
    <glyph glyph-name="Ocircumflex" unicode="&#xd4;" horiz-adv-x="770" 
d="M380 -12h-1q-150 0 -245.5 96.5t-95.5 244.5q0 157 99 257t251 100q153 0 248 -96.5t95 -245.5q0 -163 -101 -259.5t-250 -96.5zM383 60h1q114 0 182.5 79t68.5 201q0 111 -66.5 192.5t-182.5 81.5q-119 0 -185.5 -81t-66.5 -201q0 -114 68.5 -193t180.5 -79zM350 833h67
l111 -120h-76l-67 74h-2l-68 -74h-73z" />
    <glyph glyph-name="Otilde" unicode="&#xd5;" horiz-adv-x="770" 
d="M380 -12h-1q-150 0 -245.5 96.5t-95.5 244.5q0 157 99 257t251 100q153 0 248 -96.5t95 -245.5q0 -163 -101 -259.5t-250 -96.5zM383 60h1q114 0 182.5 79t68.5 201q0 111 -66.5 192.5t-182.5 81.5q-119 0 -185.5 -81t-66.5 -201q0 -114 68.5 -193t180.5 -79zM304 718
h-49q-2 47 17.5 75.5t53.5 28.5q24 0 63 -22q34 -18 51 -18q12 0 18.5 8.5t8.5 31.5h48q2 -99 -69 -99q-27 0 -65 20q-36 20 -50 20q-22 0 -27 -45z" />
    <glyph glyph-name="Odieresis" unicode="&#xd6;" horiz-adv-x="770" 
d="M380 -12h-1q-150 0 -245.5 96.5t-95.5 244.5q0 157 99 257t251 100q153 0 248 -96.5t95 -245.5q0 -163 -101 -259.5t-250 -96.5zM383 60h1q114 0 182.5 79t68.5 201q0 111 -66.5 192.5t-182.5 81.5q-119 0 -185.5 -81t-66.5 -201q0 -114 68.5 -193t180.5 -79zM289 720h-1
q-22 0 -36 15.5t-14 36.5t15 36.5t37 15.5q21 0 35 -15t14 -37q0 -21 -14 -36.5t-36 -15.5zM482 720h-1q-21 0 -35 15.5t-14 36.5t15 36.5t36 15.5q22 0 36 -15t14 -37q0 -21 -14.5 -36.5t-36.5 -15.5z" />
    <glyph glyph-name="multiply" unicode="&#xd7;" horiz-adv-x="596" 
d="M40 481l46 45l212 -217l212 217l46 -45l-213 -218l213 -218l-46 -45l-212 217l-212 -217l-46 45l213 218z" />
    <glyph glyph-name="Oslash" unicode="&#xd8;" horiz-adv-x="770" 
d="M121 -44l-51 44l69 85q-101 98 -101 247q0 155 100 254.5t250 99.5q106 0 191 -57l68 85l55 -42l-69 -85q98 -95 98 -244q0 -164 -101 -259.5t-244 -95.5q-108 0 -193 57zM192 154l340 413q-64 48 -146 48q-119 0 -187 -82t-68 -196q0 -99 59 -184zM578 518l-337 -412
q62 -47 143 -47q116 0 185 80.5t69 200.5q0 101 -57 177z" />
    <glyph glyph-name="Ugrave" unicode="&#xd9;" horiz-adv-x="711" 
d="M81 674h91v-382q0 -116 48.5 -173.5t131.5 -57.5q88 0 137.5 58t49.5 173v382h91v-378q0 -156 -77 -232t-206 -76q-121 0 -193.5 74t-72.5 232v380zM216 830h111l92 -119h-75z" />
    <glyph glyph-name="Uacute" unicode="&#xda;" horiz-adv-x="711" 
d="M81 674h91v-382q0 -116 48.5 -173.5t131.5 -57.5q88 0 137.5 58t49.5 173v382h91v-378q0 -156 -77 -232t-206 -76q-121 0 -193.5 74t-72.5 232v380zM398 830h111l-128 -120h-75z" />
    <glyph glyph-name="Ucircumflex" unicode="&#xdb;" horiz-adv-x="711" 
d="M81 674h91v-382q0 -116 48.5 -173.5t131.5 -57.5q88 0 137.5 58t49.5 173v382h91v-378q0 -156 -77 -232t-206 -76q-121 0 -193.5 74t-72.5 232v380zM329 830h67l111 -120h-76l-67 74h-2l-68 -74h-73z" />
    <glyph glyph-name="Udieresis" unicode="&#xdc;" horiz-adv-x="711" 
d="M81 674h91v-382q0 -116 48.5 -173.5t131.5 -57.5q88 0 137.5 58t49.5 173v382h91v-378q0 -156 -77 -232t-206 -76q-121 0 -193.5 74t-72.5 232v380zM263 720h-1q-22 0 -36 15.5t-14 36.5t15 36.5t37 15.5q21 0 35 -15t14 -37q0 -21 -14 -36.5t-36 -15.5zM456 720h-1
q-21 0 -35 15.5t-14 36.5t15 36.5t36 15.5q22 0 36 -15t14 -37q0 -21 -14.5 -36.5t-36.5 -15.5z" />
    <glyph glyph-name="Yacute" unicode="&#xdd;" horiz-adv-x="590" 
d="M340 0h-91v286l-235 388h105l107 -192q67 -123 72 -135h2q14 30 74 135l110 192h105l-249 -387v-287zM343 823h111l-128 -120h-75z" />
    <glyph glyph-name="Thorn" unicode="&#xde;" horiz-adv-x="576" 
d="M81 0v674h90v-131q48 9 111 9q126 0 192 -58q58 -51 58 -129q0 -105 -74 -161t-198 -56q-53 0 -89 6v-154h-90zM171 472v-245q31 -7 89 -7q87 0 134 36t47 99q0 66 -45.5 96t-121.5 30q-62 0 -103 -9z" />
    <glyph glyph-name="germandbls" unicode="&#xdf;" horiz-adv-x="587" 
d="M171 0h-91v453q0 155 74 222q59 53 156 53q79 0 133.5 -46.5t54.5 -126.5q0 -49 -23 -82q-73 -32 -73 -81q0 -24 11.5 -41t40.5 -45q23 -22 31.5 -31t25 -31t23 -44.5t6.5 -49.5q0 -72 -49 -117t-137 -45q-69 0 -115 23l17 69q46 -22 91 -22q48 0 75 24.5t27 61.5
q0 52 -55 100q-41 38 -62 68t-21 68q0 78 91 124q8 20 8 41q0 50 -29 81t-81 31q-65 0 -97 -47t-32 -151v-459z" />
    <glyph glyph-name="agrave" unicode="&#xe0;" horiz-adv-x="522" 
d="M448 289v-171q0 -73 8 -118h-83l-8 64h-3q-24 -31 -67.5 -53.5t-97.5 -22.5q-76 0 -117.5 42t-41.5 97q0 88 81 135.5t238 46.5v9q0 16 -3.5 31t-14.5 35.5t-37.5 33t-65.5 12.5q-82 0 -141 -40l-22 60q72 46 176 46q59 0 100.5 -18.5t61.5 -51t28.5 -65.5t8.5 -72z
M359 167v79q-228 6 -228 -107q0 -40 25.5 -62t64.5 -22q50 0 84.5 25t48.5 59q5 11 5 28zM107 697h103l91 -146h-66z" />
    <glyph glyph-name="aacute" unicode="&#xe1;" horiz-adv-x="522" 
d="M448 289v-171q0 -73 8 -118h-83l-8 64h-3q-24 -31 -67.5 -53.5t-97.5 -22.5q-76 0 -117.5 42t-41.5 97q0 88 81 135.5t238 46.5v9q0 16 -3.5 31t-14.5 35.5t-37.5 33t-65.5 12.5q-82 0 -141 -40l-22 60q72 46 176 46q59 0 100.5 -18.5t61.5 -51t28.5 -65.5t8.5 -72z
M359 167v79q-228 6 -228 -107q0 -40 25.5 -62t64.5 -22q50 0 84.5 25t48.5 59q5 11 5 28zM294 697h103l-128 -146h-66z" />
    <glyph glyph-name="acircumflex" unicode="&#xe2;" horiz-adv-x="522" 
d="M448 289v-171q0 -73 8 -118h-83l-8 64h-3q-24 -31 -67.5 -53.5t-97.5 -22.5q-76 0 -117.5 42t-41.5 97q0 88 81 135.5t238 46.5v9q0 16 -3.5 31t-14.5 35.5t-37.5 33t-65.5 12.5q-82 0 -141 -40l-22 60q72 46 176 46q59 0 100.5 -18.5t61.5 -51t28.5 -65.5t8.5 -72z
M359 167v79q-228 6 -228 -107q0 -40 25.5 -62t64.5 -22q50 0 84.5 25t48.5 59q5 11 5 28zM223 697h64l101 -146h-70l-62 97h-2l-62 -97h-68z" />
    <glyph glyph-name="atilde" unicode="&#xe3;" horiz-adv-x="522" 
d="M448 289v-171q0 -73 8 -118h-83l-8 64h-3q-24 -31 -67.5 -53.5t-97.5 -22.5q-76 0 -117.5 42t-41.5 97q0 88 81 135.5t238 46.5v9q0 16 -3.5 31t-14.5 35.5t-37.5 33t-65.5 12.5q-82 0 -141 -40l-22 60q72 46 176 46q59 0 100.5 -18.5t61.5 -51t28.5 -65.5t8.5 -72z
M359 167v79q-228 6 -228 -107q0 -40 25.5 -62t64.5 -22q50 0 84.5 25t48.5 59q5 11 5 28zM178 569h-50q-1 51 18 79.5t52 28.5q22 0 67 -24q30 -17 43 -17q25 0 28 44h49q2 -104 -70 -104q-24 0 -66 22q-32 18 -44 18q-24 0 -27 -47z" />
    <glyph glyph-name="adieresis" unicode="&#xe4;" horiz-adv-x="522" 
d="M448 289v-171q0 -73 8 -118h-83l-8 64h-3q-24 -31 -67.5 -53.5t-97.5 -22.5q-76 0 -117.5 42t-41.5 97q0 88 81 135.5t238 46.5v9q0 16 -3.5 31t-14.5 35.5t-37.5 33t-65.5 12.5q-82 0 -141 -40l-22 60q72 46 176 46q59 0 100.5 -18.5t61.5 -51t28.5 -65.5t8.5 -72z
M359 167v79q-228 6 -228 -107q0 -40 25.5 -62t64.5 -22q50 0 84.5 25t48.5 59q5 11 5 28zM164 571h-1q-22 0 -36.5 15.5t-14.5 37.5t15.5 37.5t37.5 15.5q21 0 35.5 -15.5t14.5 -37.5t-14 -37.5t-37 -15.5zM359 571h-2q-22 0 -36 15.5t-14 37.5t15 37.5t37 15.5t36.5 -15.5
t14.5 -37.5t-14 -37.5t-37 -15.5z" />
    <glyph glyph-name="aring" unicode="&#xe5;" horiz-adv-x="522" 
d="M448 289v-171q0 -73 8 -118h-83l-8 64h-3q-24 -31 -67.5 -53.5t-97.5 -22.5q-76 0 -117.5 42t-41.5 97q0 88 81 135.5t238 46.5v9q0 16 -3.5 31t-14.5 35.5t-37.5 33t-65.5 12.5q-82 0 -141 -40l-22 60q72 46 176 46q59 0 100.5 -18.5t61.5 -51t28.5 -65.5t8.5 -72z
M359 167v79q-228 6 -228 -107q0 -40 25.5 -62t64.5 -22q50 0 84.5 25t48.5 59q5 11 5 28zM261 728h1q45 0 73 -27t28 -69q0 -40 -29.5 -66.5t-72.5 -26.5q-45 0 -74.5 27t-29.5 66q0 41 29 68.5t75 27.5zM260 690h-1q-23 0 -36.5 -16.5t-13.5 -41.5q0 -22 14.5 -38.5
t36.5 -16.5q24 0 38.5 16t14.5 40t-14.5 40.5t-38.5 16.5z" />
    <glyph glyph-name="ae" unicode="&#xe6;" horiz-adv-x="844" 
d="M802 230h-358q-3 -76 44.5 -123.5t123.5 -47.5q80 0 148 29l17 -64q-70 -36 -174 -36q-69 0 -123.5 29.5t-77.5 82.5h-3q-25 -53 -77 -82.5t-121 -29.5q-78 0 -120 41.5t-42 95.5q0 85 82 132t238 44v18q0 6 -2 16.5t-9.5 27.5t-19.5 31t-36 24.5t-56 10.5
q-82 0 -140 -40l-22 60q78 47 165 47q133 0 171 -108h2q28 51 75.5 79.5t109.5 28.5q58 0 101.5 -25t65 -63t31.5 -73t10 -66q0 -27 -3 -39zM361 178v63q-230 6 -230 -108q0 -35 26 -56.5t65 -21.5q52 -1 86 24t47 62q6 16 6 37zM443 295h274q1 16 -4.5 37t-18.5 44.5
t-41 39.5t-65 16q-67 0 -104.5 -44.5t-40.5 -92.5z" />
    <glyph glyph-name="ccedilla" unicode="&#xe7;" horiz-adv-x="496" 
d="M444 88l16 -69q-63 -29 -143 -31l-26 -38q31 -6 51.5 -25t20.5 -49q0 -43 -31 -63.5t-77 -20.5q-42 0 -70 17l14 45q23 -13 55 -13q46 0 46 32q-1 34 -81 42l44 76q-101 10 -162 77.5t-61 167.5q0 115 77.5 187.5t204.5 72.5q84 0 140 -29l-21 -69q-50 26 -119 26
q-88 0 -138.5 -51.5t-50.5 -130.5q0 -82 52.5 -131.5t133.5 -49.5q62 0 125 27z" />
    <glyph glyph-name="egrave" unicode="&#xe8;" horiz-adv-x="547" 
d="M504 223h-377q1 -79 52.5 -121.5t130.5 -42.5q85 0 152 27l16 -65q-81 -33 -180 -33q-119 0 -189 67.5t-70 177.5q0 111 68 187t182 76q51 0 90.5 -16.5t63 -41.5t39 -57.5t21 -61t5.5 -56.5t-4 -40zM128 288h292q0 19 -5 40.5t-18 46.5t-43 41t-72 16
q-70 0 -108.5 -44.5t-45.5 -99.5zM156 697h103l91 -146h-66z" />
    <glyph glyph-name="eacute" unicode="&#xe9;" horiz-adv-x="547" 
d="M504 223h-377q1 -79 52.5 -121.5t130.5 -42.5q85 0 152 27l16 -65q-81 -33 -180 -33q-119 0 -189 67.5t-70 177.5q0 111 68 187t182 76q51 0 90.5 -16.5t63 -41.5t39 -57.5t21 -61t5.5 -56.5t-4 -40zM128 288h292q0 19 -5 40.5t-18 46.5t-43 41t-72 16
q-70 0 -108.5 -44.5t-45.5 -99.5zM327 697h103l-128 -146h-66z" />
    <glyph glyph-name="ecircumflex" unicode="&#xea;" horiz-adv-x="547" 
d="M504 223h-377q1 -79 52.5 -121.5t130.5 -42.5q85 0 152 27l16 -65q-81 -33 -180 -33q-119 0 -189 67.5t-70 177.5q0 111 68 187t182 76q51 0 90.5 -16.5t63 -41.5t39 -57.5t21 -61t5.5 -56.5t-4 -40zM128 288h292q0 19 -5 40.5t-18 46.5t-43 41t-72 16
q-70 0 -108.5 -44.5t-45.5 -99.5zM253 697h64l101 -146h-70l-62 97h-2l-62 -97h-68z" />
    <glyph glyph-name="edieresis" unicode="&#xeb;" horiz-adv-x="547" 
d="M504 223h-377q1 -79 52.5 -121.5t130.5 -42.5q85 0 152 27l16 -65q-81 -33 -180 -33q-119 0 -189 67.5t-70 177.5q0 111 68 187t182 76q51 0 90.5 -16.5t63 -41.5t39 -57.5t21 -61t5.5 -56.5t-4 -40zM128 288h292q0 19 -5 40.5t-18 46.5t-43 41t-72 16
q-70 0 -108.5 -44.5t-45.5 -99.5zM195 571h-1q-22 0 -36.5 15.5t-14.5 37.5t15.5 37.5t37.5 15.5q21 0 35.5 -15.5t14.5 -37.5t-14 -37.5t-37 -15.5zM390 571h-2q-22 0 -36 15.5t-14 37.5t15 37.5t37 15.5t36.5 -15.5t14.5 -37.5t-14 -37.5t-37 -15.5z" />
    <glyph glyph-name="igrave" unicode="&#xec;" horiz-adv-x="250" 
d="M171 0h-91v484h91v-484zM-28 697h103l91 -146h-66z" />
    <glyph glyph-name="iacute" unicode="&#xed;" horiz-adv-x="250" 
d="M171 0h-91v484h91v-484zM163 697h103l-128 -146h-66z" />
    <glyph glyph-name="icircumflex" unicode="&#xee;" horiz-adv-x="250" 
d="M171 0h-91v484h91v-484zM92 697h64l101 -146h-70l-62 97h-2l-62 -97h-68z" />
    <glyph glyph-name="idieresis" unicode="&#xef;" horiz-adv-x="250" 
d="M171 0h-91v484h91v-484zM28 571h-1q-22 0 -36.5 15.5t-14.5 37.5t15.5 37.5t37.5 15.5q21 0 35.5 -15.5t14.5 -37.5t-14 -37.5t-37 -15.5zM223 571h-2q-22 0 -36 15.5t-14 37.5t15 37.5t37 15.5t36.5 -15.5t14.5 -37.5t-14 -37.5t-37 -15.5z" />
    <glyph glyph-name="eth" unicode="&#xf0;" horiz-adv-x="595" 
d="M293 55h1q73 0 118.5 50t45.5 140q0 50 -9 79.5t-32 51.5q-49 47 -120 47q-80 0 -122 -57.5t-42 -130.5q0 -80 46.5 -130t113.5 -50zM128 507l-19 47l127 57q-50 32 -115 54l36 60q87 -32 160 -80l140 64l21 -47l-113 -51q95 -70 144 -169q43 -86 43 -188
q0 -88 -38.5 -150t-95.5 -89t-125 -27q-110 0 -182 69t-72 177q0 111 74 180.5t175 69.5q78 0 134 -52l2 3q-56 85 -137 142z" />
    <glyph glyph-name="ntilde" unicode="&#xf1;" horiz-adv-x="605" 
d="M80 0v351q0 78 -4 133h81l5 -86h3q21 40 67.5 69t108.5 29q29 0 58 -9.5t60 -31.5t50.5 -68t19.5 -110v-277h-91v269q0 69 -31 111t-96 42q-47 0 -82.5 -27.5t-50.5 -66.5q-7 -19 -7 -40v-288h-91zM225 569h-50q-1 51 18 79.5t52 28.5q22 0 67 -24q30 -17 43 -17
q25 0 28 44h49q2 -104 -70 -104q-24 0 -66 22q-32 18 -44 18q-24 0 -27 -47z" />
    <glyph glyph-name="ograve" unicode="&#xf2;" horiz-adv-x="604" 
d="M298 -12h-1q-111 0 -184.5 69.5t-73.5 179.5q0 116 75.5 187.5t190.5 71.5q116 0 187.5 -70.5t71.5 -177.5q0 -124 -79.5 -192t-186.5 -68zM299 55h1q72 0 121 51t49 138q0 72 -43 128.5t-124 56.5q-82 0 -126 -55t-44 -133q0 -84 48 -135t118 -51zM168 697h103l91 -146
h-66z" />
    <glyph glyph-name="oacute" unicode="&#xf3;" horiz-adv-x="604" 
d="M298 -12h-1q-111 0 -184.5 69.5t-73.5 179.5q0 116 75.5 187.5t190.5 71.5q116 0 187.5 -70.5t71.5 -177.5q0 -124 -79.5 -192t-186.5 -68zM299 55h1q72 0 121 51t49 138q0 72 -43 128.5t-124 56.5q-82 0 -126 -55t-44 -133q0 -84 48 -135t118 -51zM335 697h103
l-128 -146h-66z" />
    <glyph glyph-name="ocircumflex" unicode="&#xf4;" horiz-adv-x="604" 
d="M298 -12h-1q-111 0 -184.5 69.5t-73.5 179.5q0 116 75.5 187.5t190.5 71.5q116 0 187.5 -70.5t71.5 -177.5q0 -124 -79.5 -192t-186.5 -68zM299 55h1q72 0 121 51t49 138q0 72 -43 128.5t-124 56.5q-82 0 -126 -55t-44 -133q0 -84 48 -135t118 -51zM269 697h64l101 -146
h-70l-62 97h-2l-62 -97h-68z" />
    <glyph glyph-name="otilde" unicode="&#xf5;" horiz-adv-x="604" 
d="M298 -12h-1q-111 0 -184.5 69.5t-73.5 179.5q0 116 75.5 187.5t190.5 71.5q116 0 187.5 -70.5t71.5 -177.5q0 -124 -79.5 -192t-186.5 -68zM299 55h1q72 0 121 51t49 138q0 72 -43 128.5t-124 56.5q-82 0 -126 -55t-44 -133q0 -84 48 -135t118 -51zM224 569h-50
q-1 51 18 79.5t52 28.5q22 0 67 -24q30 -17 43 -17q25 0 28 44h49q2 -104 -70 -104q-24 0 -66 22q-31 18 -44 18q-24 0 -27 -47z" />
    <glyph glyph-name="odieresis" unicode="&#xf6;" horiz-adv-x="604" 
d="M298 -12h-1q-111 0 -184.5 69.5t-73.5 179.5q0 116 75.5 187.5t190.5 71.5q116 0 187.5 -70.5t71.5 -177.5q0 -124 -79.5 -192t-186.5 -68zM299 55h1q72 0 121 51t49 138q0 72 -43 128.5t-124 56.5q-82 0 -126 -55t-44 -133q0 -84 48 -135t118 -51zM205 571h-1
q-22 0 -36.5 15.5t-14.5 37.5t15.5 37.5t37.5 15.5q21 0 35.5 -15.5t14.5 -37.5t-14 -37.5t-37 -15.5zM400 571h-2q-22 0 -36 15.5t-14 37.5t15 37.5t37 15.5t36.5 -15.5t14.5 -37.5t-14 -37.5t-37 -15.5z" />
    <glyph glyph-name="divide" unicode="&#xf7;" horiz-adv-x="596" 
d="M298 383h-1q-24 0 -40 17t-15 41q0 26 15.5 42.5t40.5 16.5t40.5 -16.5t15.5 -42.5q0 -24 -16 -41t-40 -17zM556 236h-516v62h516v-62zM298 34h-1q-24 0 -40 17t-15 41q0 26 15.5 42.5t40.5 16.5t40.5 -16.5t15.5 -42.5q0 -24 -16 -41t-40 -17z" />
    <glyph glyph-name="oslash" unicode="&#xf8;" horiz-adv-x="604" 
d="M303 496h1q76 0 137 -35l47 62l39 -29l-46 -61q83 -72 83 -186q0 -123 -78.5 -191t-183.5 -68q-78 0 -137 36l-50 -64l-36 32l45 59q-84 71 -84 187q0 115 74.5 186.5t188.5 71.5zM173 115l225 286q-42 28 -97 28q-84 0 -128 -55.5t-44 -132.5q0 -75 42 -126h2zM431 367
l-224 -284q37 -28 91 -28q77 0 127 51t50 139q0 71 -42 121z" />
    <glyph glyph-name="ugrave" unicode="&#xf9;" horiz-adv-x="602" 
d="M522 484v-351q0 -81 4 -133h-81l-5 88h-2q-23 -41 -68 -70.5t-111 -29.5q-25 0 -47.5 5t-48 19.5t-44 38t-31 64.5t-12.5 94v275h91v-259q0 -162 123 -162q45 0 80 25t52 61q9 23 9 46v289h91zM158 697h103l91 -146h-66z" />
    <glyph glyph-name="uacute" unicode="&#xfa;" horiz-adv-x="602" 
d="M522 484v-351q0 -81 4 -133h-81l-5 88h-2q-23 -41 -68 -70.5t-111 -29.5q-25 0 -47.5 5t-48 19.5t-44 38t-31 64.5t-12.5 94v275h91v-259q0 -162 123 -162q45 0 80 25t52 61q9 23 9 46v289h91zM346 697h103l-128 -146h-66z" />
    <glyph glyph-name="ucircumflex" unicode="&#xfb;" horiz-adv-x="602" 
d="M522 484v-351q0 -81 4 -133h-81l-5 88h-2q-23 -41 -68 -70.5t-111 -29.5q-25 0 -47.5 5t-48 19.5t-44 38t-31 64.5t-12.5 94v275h91v-259q0 -162 123 -162q45 0 80 25t52 61q9 23 9 46v289h91zM268 697h64l101 -146h-70l-62 97h-2l-62 -97h-68z" />
    <glyph glyph-name="udieresis" unicode="&#xfc;" horiz-adv-x="602" 
d="M522 484v-351q0 -81 4 -133h-81l-5 88h-2q-23 -41 -68 -70.5t-111 -29.5q-25 0 -47.5 5t-48 19.5t-44 38t-31 64.5t-12.5 94v275h91v-259q0 -162 123 -162q45 0 80 25t52 61q9 23 9 46v289h91zM207 571h-1q-22 0 -36.5 15.5t-14.5 37.5t15.5 37.5t37.5 15.5
q21 0 35.5 -15.5t14.5 -37.5t-14 -37.5t-37 -15.5zM402 571h-2q-22 0 -36 15.5t-14 37.5t15 37.5t37 15.5t36.5 -15.5t14.5 -37.5t-14 -37.5t-37 -15.5z" />
    <glyph glyph-name="yacute" unicode="&#xfd;" horiz-adv-x="513" 
d="M8 484h101l119 -289q18 -45 35 -98h2q33 95 35 101l108 286h99l-150 -356q-55 -134 -95 -200t-86 -100q-57 -43 -115 -51l-19 76q41 9 80 37q51 35 83 104q7 11 7 20q0 10 -7 24zM308 697h103l-128 -146h-66z" />
    <glyph glyph-name="thorn" unicode="&#xfe;" horiz-adv-x="626" 
d="M80 671h91v-268h2q61 93 185 93q97 1 162.5 -68t65.5 -178q0 -125 -72.5 -193.5t-172.5 -68.5q-113 0 -168 82h-2v-270h-91v871zM171 274v-78q0 -26 11 -46q17 -39 57 -65.5t91 -26.5q72 0 118 50.5t46 140.5q0 73 -44.5 124.5t-117.5 51.5q-49 0 -90 -25.5t-59 -72.5
q-12 -30 -12 -53z" />
    <glyph glyph-name="ydieresis" unicode="&#xff;" horiz-adv-x="513" 
d="M8 484h101l119 -289q18 -45 35 -98h2q33 95 35 101l108 286h99l-150 -356q-55 -134 -95 -200t-86 -100q-57 -43 -115 -51l-19 76q41 9 80 37q51 35 83 104q7 11 7 20q0 10 -7 24zM174 571h-1q-22 0 -36.5 15.5t-14.5 37.5t15.5 37.5t37.5 15.5q21 0 35.5 -15.5
t14.5 -37.5t-14 -37.5t-37 -15.5zM369 571h-2q-22 0 -36 15.5t-14 37.5t15 37.5t37 15.5t36.5 -15.5t14.5 -37.5t-14 -37.5t-37 -15.5z" />
    <glyph glyph-name="Amacron" unicode="&#x100;" horiz-adv-x="671" 
d="M469 215h-269l-78 -215h-95l254 674h111l257 -674h-99zM220 285h229l-77 202q-16 43 -38 113h-2q-19 -68 -35 -112zM211 789h248v-56h-248v56z" />
    <glyph glyph-name="amacron" unicode="&#x101;" horiz-adv-x="522" 
d="M448 289v-171q0 -73 8 -118h-83l-8 64h-3q-24 -31 -67.5 -53.5t-97.5 -22.5q-76 0 -117.5 42t-41.5 97q0 88 81 135.5t238 46.5v9q0 16 -3.5 31t-14.5 35.5t-37.5 33t-65.5 12.5q-82 0 -141 -40l-22 60q72 46 176 46q59 0 100.5 -18.5t61.5 -51t28.5 -65.5t8.5 -72z
M359 167v79q-228 6 -228 -107q0 -40 25.5 -62t64.5 -22q50 0 84.5 25t48.5 59q5 11 5 28zM145 646h234v-58h-234v58z" />
    <glyph glyph-name="Abreve" unicode="&#x102;" horiz-adv-x="671" 
d="M469 215h-269l-78 -215h-95l254 674h111l257 -674h-99zM220 285h229l-77 202q-16 43 -38 113h-2q-19 -68 -35 -112zM206 820h54q12 -50 76 -50q66 0 76 50h53q-2 -48 -33.5 -78.5t-97.5 -30.5q-65 0 -95.5 30t-32.5 79z" />
    <glyph glyph-name="abreve" unicode="&#x103;" horiz-adv-x="522" 
d="M448 289v-171q0 -73 8 -118h-83l-8 64h-3q-24 -31 -67.5 -53.5t-97.5 -22.5q-76 0 -117.5 42t-41.5 97q0 88 81 135.5t238 46.5v9q0 16 -3.5 31t-14.5 35.5t-37.5 33t-65.5 12.5q-82 0 -141 -40l-22 60q72 46 176 46q59 0 100.5 -18.5t61.5 -51t28.5 -65.5t8.5 -72z
M359 167v79q-228 6 -228 -107q0 -40 25.5 -62t64.5 -22q50 0 84.5 25t48.5 59q5 11 5 28zM131 687h55q6 -32 25.5 -52t49.5 -20q35 0 53.5 21.5t21.5 50.5h55q-1 -59 -36 -94t-94 -35q-65 0 -97 37.5t-33 91.5z" />
    <glyph glyph-name="Aogonek" unicode="&#x104;" horiz-adv-x="671" 
d="M392 674l257 -674l-41 -3q-56 -52 -56 -92q0 -25 15 -39.5t39 -14.5t46 10l15 -45q-30 -24 -83 -24q-45 0 -71 22.5t-26 65.5q0 55 62 124l-80 211h-269l-78 -215h-96l255 674h111zM220 285h229l-77 202q-12 31 -38 113h-2q-14 -51 -35 -112z" />
    <glyph glyph-name="aogonek" unicode="&#x105;" horiz-adv-x="522" 
d="M448 289v-171q0 -73 8 -118h-27q-39 -52 -39 -94q0 -51 51 -51q24 0 46 10l15 -46q-33 -26 -86 -26q-40 0 -65.5 22.5t-25.5 63.5q0 49 48 125l-8 60h-3q-24 -31 -67.5 -53.5t-97.5 -22.5q-76 0 -117.5 42t-41.5 97q0 88 81 135.5t238 46.5v9q0 16 -3.5 31t-14.5 35.5
t-37.5 33t-65.5 12.5q-82 0 -141 -40l-22 60q72 46 176 46q59 0 100.5 -18.5t61.5 -51t28.5 -65.5t8.5 -72zM359 167v79q-228 6 -228 -107q0 -40 25.5 -62t64.5 -22q50 0 84.5 25t48.5 59q5 11 5 28z" />
    <glyph glyph-name="Cacute" unicode="&#x106;" horiz-adv-x="648" 
d="M592 96l19 -71q-76 -37 -205 -37q-161 0 -264.5 92t-103.5 252q0 150 106.5 252t283.5 102q117 0 185 -34l-23 -72q-68 32 -158 32q-139 0 -218.5 -76t-79.5 -203q0 -118 76.5 -193.5t214.5 -75.5q100 0 167 32zM438 833h111l-128 -120h-75z" />
    <glyph glyph-name="cacute" unicode="&#x107;" horiz-adv-x="496" 
d="M445 88l16 -69q-70 -31 -158 -31q-119 0 -191 69.5t-72 178.5q0 115 78 187.5t205 72.5q84 0 140 -29l-21 -69q-50 26 -119 26q-88 0 -139 -51.5t-51 -130.5q0 -82 53 -131.5t134 -49.5q62 0 125 27zM324 697h103l-128 -146h-66z" />
    <glyph glyph-name="Ccircumflex" unicode="&#x108;" horiz-adv-x="648" 
d="M592 96l19 -71q-76 -37 -205 -37q-161 0 -264.5 92t-103.5 252q0 150 106.5 252t283.5 102q117 0 185 -34l-23 -72q-68 32 -158 32q-139 0 -218.5 -76t-79.5 -203q0 -118 76.5 -193.5t214.5 -75.5q100 0 167 32zM351 835h67l111 -120h-76l-67 74h-2l-68 -74h-73z" />
    <glyph glyph-name="ccircumflex" unicode="&#x109;" horiz-adv-x="496" 
d="M445 88l16 -69q-70 -31 -158 -31q-119 0 -191 69.5t-72 178.5q0 115 78 187.5t205 72.5q84 0 140 -29l-21 -69q-50 26 -119 26q-88 0 -139 -51.5t-51 -130.5q0 -82 53 -131.5t134 -49.5q62 0 125 27zM249 697h64l101 -146h-70l-62 97h-2l-62 -97h-68z" />
    <glyph glyph-name="Cdotaccent" unicode="&#x10a;" horiz-adv-x="648" 
d="M592 96l19 -71q-76 -37 -205 -37q-161 0 -264.5 92t-103.5 252q0 150 106.5 252t283.5 102q117 0 185 -34l-23 -72q-68 32 -158 32q-139 0 -218.5 -76t-79.5 -203q0 -118 76.5 -193.5t214.5 -75.5q100 0 167 32zM383 720h-1q-21 0 -35.5 15.5t-14.5 36.5t15 36.5t37 15.5
q21 0 35 -15.5t14 -36.5t-14.5 -36.5t-35.5 -15.5z" />
    <glyph glyph-name="cdotaccent" unicode="&#x10b;" horiz-adv-x="496" 
d="M445 88l16 -69q-70 -31 -158 -31q-119 0 -191 69.5t-72 178.5q0 115 78 187.5t205 72.5q84 0 140 -29l-21 -69q-50 26 -119 26q-88 0 -139 -51.5t-51 -130.5q0 -82 53 -131.5t134 -49.5q62 0 125 27zM289 572h-1q-22 0 -37 16t-15 37q0 22 16 38t38 16t36.5 -15.5
t14.5 -38.5q0 -22 -14.5 -37.5t-37.5 -15.5z" />
    <glyph glyph-name="Ccaron" unicode="&#x10c;" horiz-adv-x="648" 
d="M592 96l19 -71q-76 -37 -205 -37q-161 0 -264.5 92t-103.5 252q0 150 106.5 252t283.5 102q117 0 185 -34l-23 -72q-68 32 -158 32q-139 0 -218.5 -76t-79.5 -203q0 -118 76.5 -193.5t214.5 -75.5q100 0 167 32zM423 713h-67l-111 120h76l68 -73h2l67 73h73z" />
    <glyph glyph-name="ccaron" unicode="&#x10d;" horiz-adv-x="496" 
d="M445 88l16 -69q-70 -31 -158 -31q-119 0 -191 69.5t-72 178.5q0 115 78 187.5t205 72.5q84 0 140 -29l-21 -69q-50 26 -119 26q-88 0 -139 -51.5t-51 -130.5q0 -82 53 -131.5t134 -49.5q62 0 125 27zM319 551h-67l-101 146h71l63 -98h2l63 98h68z" />
    <glyph glyph-name="Dcaron" unicode="&#x10e;" horiz-adv-x="740" 
d="M81 1v664q114 15 212 15q210 0 312 -96q97 -89 97 -231q0 -153 -102 -255q-111 -105 -337 -105q-99 0 -182 8zM172 598v-528q33 -5 107 -5q160 -1 243.5 76.5t83.5 207.5q2 120 -77.5 189.5t-232.5 69.5q-70 0 -124 -10zM380 713h-67l-111 120h76l68 -73h2l67 73h73z" />
    <glyph glyph-name="dcaron" unicode="&#x10f;" horiz-adv-x="629" 
d="M448 716h91v-588q0 -81 4 -128h-82l-4 91h-2q-24 -47 -72.5 -75t-112.5 -28q-98 0 -164 69.5t-66 175.5q-1 117 69 190t172 73q60 0 103 -23.5t62 -55.5h2v299zM448 214v69q0 23 -4 39q-13 45 -52.5 74.5t-93.5 29.5q-75 0 -120.5 -52t-45.5 -134q0 -77 43.5 -128
t121.5 -51q52 0 93 32t53 81q5 16 5 40zM622 528l-38 32q38 38 38 88q0 36 -30 64l65 14q14 -9 25 -29.5t11 -43.5q0 -79 -71 -125z" />
    <glyph glyph-name="Dcroat" unicode="&#x110;" horiz-adv-x="744" 
d="M-3 302v74h87v292q114 15 212 15q211 0 312 -95q97 -89 97 -234q0 -155 -102 -257q-111 -105 -337 -105q-99 0 -182 8v302h-87zM382 376v-74h-207v-233q32 -5 107 -5q161 0 244 78t83 210q2 122 -77 190.5t-233 68.5q-70 0 -124 -10v-225h207z" />
    <glyph glyph-name="dcroat" unicode="&#x111;" horiz-adv-x="619" 
d="M623 555h-84v-427q0 -81 4 -128h-82l-4 91h-2q-24 -47 -72.5 -75t-112.5 -28q-98 0 -164 69.5t-66 175.5q-1 117 69 190t172 73q60 0 103 -23.5t62 -55.5h2v138h-220v56h220v105h91v-105h84v-56zM448 214v69q0 23 -4 39q-13 45 -52.5 74.5t-93.5 29.5q-75 0 -120.5 -52
t-45.5 -134q0 -77 43.5 -128t121.5 -51q52 0 93 32t53 81q5 16 5 40z" />
    <glyph glyph-name="Emacron" unicode="&#x112;" horiz-adv-x="537" 
d="M464 389v-74h-292v-241h326v-74h-417v674h400v-74h-309v-211h292zM159 789h248v-56h-248v56z" />
    <glyph glyph-name="emacron" unicode="&#x113;" horiz-adv-x="547" 
d="M504 223h-377q1 -79 52.5 -121.5t130.5 -42.5q85 0 152 27l16 -65q-81 -33 -180 -33q-119 0 -189 67.5t-70 177.5q0 111 68 187t182 76q51 0 90.5 -16.5t63 -41.5t39 -57.5t21 -61t5.5 -56.5t-4 -40zM128 288h292q0 19 -5 40.5t-18 46.5t-43 41t-72 16
q-70 0 -108.5 -44.5t-45.5 -99.5zM160 646h234v-58h-234v58z" />
    <glyph glyph-name="Ebreve" unicode="&#x114;" horiz-adv-x="537" 
d="M464 389v-74h-292v-241h326v-74h-417v674h400v-74h-309v-211h292zM147 830h54q12 -50 76 -50q66 0 76 50h53q-2 -48 -33.5 -78.5t-97.5 -30.5q-65 0 -95.5 30t-32.5 79z" />
    <glyph glyph-name="ebreve" unicode="&#x115;" horiz-adv-x="547" 
d="M504 223h-377q1 -79 52.5 -121.5t130.5 -42.5q85 0 152 27l16 -65q-81 -33 -180 -33q-119 0 -189 67.5t-70 177.5q0 111 68 187t182 76q51 0 90.5 -16.5t63 -41.5t39 -57.5t21 -61t5.5 -56.5t-4 -40zM128 288h292q0 19 -5 40.5t-18 46.5t-43 41t-72 16
q-70 0 -108.5 -44.5t-45.5 -99.5zM146 687h55q6 -32 25.5 -52t49.5 -20q35 0 53.5 21.5t21.5 50.5h55q-1 -59 -36 -94t-94 -35q-65 0 -97 37.5t-33 91.5z" />
    <glyph glyph-name="Edotaccent" unicode="&#x116;" horiz-adv-x="537" 
d="M464 389v-74h-292v-241h326v-74h-417v674h400v-74h-309v-211h292zM270 720h-1q-21 0 -35.5 15.5t-14.5 36.5t15 36.5t37 15.5q21 0 35 -15.5t14 -36.5t-14.5 -36.5t-35.5 -15.5z" />
    <glyph glyph-name="edotaccent" unicode="&#x117;" horiz-adv-x="547" 
d="M504 223h-377q1 -79 52.5 -121.5t130.5 -42.5q85 0 152 27l16 -65q-81 -33 -180 -33q-119 0 -189 67.5t-70 177.5q0 111 68 187t182 76q51 0 90.5 -16.5t63 -41.5t39 -57.5t21 -61t5.5 -56.5t-4 -40zM128 288h292q0 19 -5 40.5t-18 46.5t-43 41t-72 16
q-70 0 -108.5 -44.5t-45.5 -99.5zM277 572h-1q-22 0 -37 16t-15 37q0 22 16 38t38 16t36.5 -15.5t14.5 -38.5q0 -22 -14.5 -37.5t-37.5 -15.5z" />
    <glyph glyph-name="Eogonek" unicode="&#x118;" horiz-adv-x="537" 
d="M487 -139l15 -48q-36 -21 -83 -21q-44 0 -69.5 21.5t-25.5 60.5q0 38 24 71.5t56 54.5h-323v674h400v-74h-309v-211h292v-74h-292v-241h325v-74h-17q-34 -22 -59 -51t-25 -56q0 -19 12.5 -29.5t34.5 -10.5q24 0 44 8z" />
    <glyph glyph-name="eogonek" unicode="&#x119;" horiz-adv-x="547" 
d="M421 -137l15 -46q-35 -24 -84 -24q-43 0 -67.5 21t-24.5 59q0 34 22 64.5t50 50.5v1q-5 0 -16.5 -0.5t-18.5 -0.5q-118 0 -188 67.5t-70 177.5q0 111 68 187t182 76q51 0 90.5 -16.5t63 -41.5t39 -57.5t21 -61t5.5 -56.5t-4 -40h-377q1 -79 52.5 -121.5t130.5 -42.5
q85 0 152 27l16 -65q-10 -5 -30 -11.5t-22 -7.5q-32 -13 -63.5 -45t-31.5 -60q0 -21 12.5 -32t30.5 -11q28 0 47 9zM128 288h292q0 19 -5 40.5t-18.5 46.5t-43 41t-71.5 16q-70 0 -108.5 -44.5t-45.5 -99.5z" />
    <glyph glyph-name="Ecaron" unicode="&#x11a;" horiz-adv-x="537" 
d="M464 389v-74h-292v-241h326v-74h-417v674h400v-74h-309v-211h292zM314 710h-67l-111 120h76l68 -73h2l67 73h73z" />
    <glyph glyph-name="ecaron" unicode="&#x11b;" horiz-adv-x="547" 
d="M504 223h-377q1 -79 52.5 -121.5t130.5 -42.5q85 0 152 27l16 -65q-81 -33 -180 -33q-119 0 -189 67.5t-70 177.5q0 111 68 187t182 76q51 0 90.5 -16.5t63 -41.5t39 -57.5t21 -61t5.5 -56.5t-4 -40zM128 288h292q0 19 -5 40.5t-18 46.5t-43 41t-72 16
q-70 0 -108.5 -44.5t-45.5 -99.5zM310 551h-67l-101 146h71l63 -98h2l63 98h68z" />
    <glyph glyph-name="Gcircumflex" unicode="&#x11c;" horiz-adv-x="716" 
d="M655 355v-320q-113 -42 -236 -42q-180 0 -283 97q-98 92 -98 245q0 143 107 244.5t294 101.5q120 0 192 -35l-23 -72q-73 33 -172 33q-140 0 -221 -75t-81 -194q0 -121 79 -196t214 -75q96 0 138 22v194h-153v72h243zM361 834h67l111 -120h-76l-67 74h-2l-68 -74h-73z
" />
    <glyph glyph-name="gcircumflex" unicode="&#x11d;" horiz-adv-x="613" 
d="M533 358v-284q0 -159 -76 -226q-69 -60 -192 -60q-115 0 -179 45l23 70q69 -44 159 -44q80 0 127.5 43t47.5 134v55h-2q-56 -89 -174 -89q-98 0 -162.5 68.5t-64.5 167.5q0 115 71 186.5t169 71.5q122 0 171 -91h2l3 79h81q-4 -47 -4 -126zM442 217v69q0 19 -5 41
q-15 44 -52.5 72t-89.5 28q-71 0 -117 -50t-46 -134q0 -70 42 -121t120 -51q48 0 86.5 27.5t53.5 70.5q8 22 8 48zM274 701h64l101 -146h-70l-62 97h-2l-62 -97h-68z" />
    <glyph glyph-name="Gbreve" unicode="&#x11e;" horiz-adv-x="716" 
d="M655 355v-320q-113 -42 -236 -42q-180 0 -283 97q-98 92 -98 245q0 143 107 244.5t294 101.5q120 0 192 -35l-23 -72q-73 33 -172 33q-140 0 -221 -75t-81 -194q0 -121 79 -196t214 -75q96 0 138 22v194h-153v72h243zM259 833h54q12 -50 76 -50q66 0 76 50h53
q-2 -48 -33.5 -78.5t-97.5 -30.5q-65 0 -95.5 30t-32.5 79z" />
    <glyph glyph-name="gbreve" unicode="&#x11f;" horiz-adv-x="613" 
d="M533 358v-284q0 -159 -76 -226q-69 -60 -192 -60q-115 0 -179 45l23 70q69 -44 159 -44q80 0 127.5 43t47.5 134v55h-2q-56 -89 -174 -89q-98 0 -162.5 68.5t-64.5 167.5q0 115 71 186.5t169 71.5q122 0 171 -91h2l3 79h81q-4 -47 -4 -126zM442 217v69q0 19 -5 41
q-15 44 -52.5 72t-89.5 28q-71 0 -117 -50t-46 -134q0 -70 42 -121t120 -51q48 0 86.5 27.5t53.5 70.5q8 22 8 48zM167 687h55q6 -32 25.5 -52t49.5 -20q35 0 53.5 21.5t21.5 50.5h55q-1 -59 -36 -94t-94 -35q-65 0 -97 37.5t-33 91.5z" />
    <glyph glyph-name="Gdotaccent" unicode="&#x120;" horiz-adv-x="716" 
d="M655 355v-320q-113 -42 -236 -42q-180 0 -283 97q-98 92 -98 245q0 143 107 244.5t294 101.5q120 0 192 -35l-23 -72q-73 33 -172 33q-140 0 -221 -75t-81 -194q0 -121 79 -196t214 -75q96 0 138 22v194h-153v72h243zM397 720h-1q-21 0 -35.5 15.5t-14.5 36.5t15 36.5
t37 15.5q21 0 35 -15.5t14 -36.5t-14.5 -36.5t-35.5 -15.5z" />
    <glyph glyph-name="gdotaccent" unicode="&#x121;" horiz-adv-x="613" 
d="M533 358v-284q0 -159 -76 -226q-69 -60 -192 -60q-115 0 -179 45l23 70q69 -44 159 -44q80 0 127.5 43t47.5 134v55h-2q-56 -89 -174 -89q-98 0 -162.5 68.5t-64.5 167.5q0 115 71 186.5t169 71.5q122 0 171 -91h2l3 79h81q-4 -47 -4 -126zM442 217v69q0 19 -5 41
q-15 44 -52.5 72t-89.5 28q-71 0 -117 -50t-46 -134q0 -70 42 -121t120 -51q48 0 86.5 27.5t53.5 70.5q8 22 8 48zM306 576h-1q-22 0 -37 16t-15 37q0 22 16 38t38 16t36.5 -15.5t14.5 -38.5q0 -22 -14.5 -37.5t-37.5 -15.5z" />
    <glyph glyph-name="Gcommaaccent" unicode="&#x122;" horiz-adv-x="716" 
d="M655 355v-320q-113 -42 -236 -42q-180 0 -283 97q-98 92 -98 245q0 143 107 244.5t294 101.5q120 0 192 -35l-23 -72q-73 33 -172 33q-140 0 -221 -75t-81 -194q0 -121 79 -196t214 -75q96 0 138 22v194h-153v72h243zM329 -224l-17 42q79 11 79 66q0 33 -34 61l66 15
q41 -27 41 -75q0 -53 -40 -80t-95 -29z" />
    <glyph glyph-name="gcommaaccent" unicode="&#x123;" horiz-adv-x="613" 
d="M533 358v-284q0 -159 -76 -226q-69 -60 -192 -60q-115 0 -179 45l23 70q69 -44 160 -44q79 0 126.5 43t47.5 134v55h-2q-56 -89 -173 -89q-99 0 -163.5 68.5t-64.5 167.5q0 115 71 186.5t169 71.5q122 0 171 -91h2l3 79h81q-4 -47 -4 -126zM442 217v69q0 19 -5 41
q-15 44 -52 72t-89 28q-72 0 -118 -50t-46 -134q0 -70 42.5 -121t120.5 -51q47 0 85.5 27.5t53.5 70.5q8 22 8 48zM365 712l17 -38q-81 -9 -81 -65q0 -32 34 -58l-64 -14q-41 25 -41 72q0 50 40.5 75.5t94.5 27.5z" />
    <glyph glyph-name="Hcircumflex" unicode="&#x124;" horiz-adv-x="715" 
d="M81 674h91v-280h371v280h91v-674h-91v317h-371v-317h-91v674zM323 830h67l111 -120h-76l-67 74h-2l-68 -74h-73z" />
    <glyph glyph-name="hcircumflex" unicode="&#x125;" horiz-adv-x="605" 
d="M80 0v716h91v-315h2q27 45 71 68q44 27 98 27q29 0 58 -9.5t60 -31.5t50 -68t19 -110v-277h-91v268q0 68 -31 110.5t-96 42.5q-46 0 -82 -27t-51 -64q-7 -15 -7 -44v-286h-91zM94 852h67l111 -120h-76l-67 74h-2l-68 -74h-73z" />
    <glyph glyph-name="Hbar" unicode="&#x126;" horiz-adv-x="721" 
d="M698 478h-61v-478h-91v301h-371v-301h-91v478h-61v59h61v137h91v-137h371v137h91v-137h61v-59zM546 378v100h-371v-100h371z" />
    <glyph glyph-name="hbar" unicode="&#x127;" horiz-adv-x="605" 
d="M529 0h-91v268q0 68 -31 110.5t-96 42.5q-46 0 -82 -27t-51 -64q-7 -15 -7 -44v-286h-91v555h-83v56h83v105h91v-105h214v-56h-214v-154h2q27 45 71 68q47 27 98 27q29 0 58 -9.5t60 -31.5t50 -68t19 -110v-277z" />
    <glyph glyph-name="Itilde" unicode="&#x128;" horiz-adv-x="253" 
d="M81 674h91v-674h-91v674zM46 715h-49q-2 47 17.5 75.5t53.5 28.5q24 0 63 -22q34 -18 51 -18q12 0 18.5 8.5t8.5 31.5h48q2 -99 -69 -99q-27 0 -65 20q-36 20 -50 20q-22 0 -27 -45z" />
    <glyph glyph-name="itilde" unicode="&#x129;" horiz-adv-x="250" 
d="M171 0h-91v484h91v-484zM47 569h-50q-1 51 18 79.5t52 28.5q22 0 67 -24q30 -17 43 -17q25 0 28 44h49q2 -104 -70 -104q-24 0 -66 22q-31 18 -44 18q-24 0 -27 -47z" />
    <glyph glyph-name="Imacron" unicode="&#x12a;" horiz-adv-x="253" 
d="M81 674h91v-674h-91v674zM4 789h248v-56h-248v56z" />
    <glyph glyph-name="imacron" unicode="&#x12b;" horiz-adv-x="250" 
d="M171 0h-91v484h91v-484zM9 646h234v-58h-234v58z" />
    <glyph glyph-name="Ibreve" unicode="&#x12c;" horiz-adv-x="253" 
d="M81 674h91v-674h-91v674zM-2 827h54q12 -50 76 -50q66 0 76 50h53q-2 -48 -33.5 -78.5t-97.5 -30.5q-65 0 -95.5 30t-32.5 79z" />
    <glyph glyph-name="ibreve" unicode="&#x12d;" horiz-adv-x="250" 
d="M171 0h-91v484h91v-484zM-1 687h55q6 -32 25.5 -52t49.5 -20q35 0 53.5 21.5t21.5 50.5h55q-1 -59 -36 -94t-94 -35q-65 0 -97 37.5t-33 91.5z" />
    <glyph glyph-name="Iogonek" unicode="&#x12e;" horiz-adv-x="253" 
d="M172 674v-674h-32q-42 -59 -42 -97q0 -25 15 -39t39 -14q26 0 46 9l15 -46q-30 -24 -84 -24q-44 0 -70 23t-26 65q0 52 48 123v674h91z" />
    <glyph glyph-name="iogonek" unicode="&#x12f;" horiz-adv-x="250" 
d="M125 575h-1q-26 0 -42 17t-16 41q0 23 16.5 40t42.5 17t42.5 -16.5t16.5 -40.5t-16.5 -41t-42.5 -17zM171 484v-484h-32q-42 -59 -42 -97q0 -25 15 -39t39 -14q26 0 46 9l15 -46q-30 -24 -84 -24q-44 0 -70 23t-26 65q0 52 48 123v484h91z" />
    <glyph glyph-name="Idotaccent" unicode="&#x130;" horiz-adv-x="253" 
d="M81 674h91v-674h-91v674zM128 720h-1q-21 0 -35.5 15.5t-14.5 36.5t15 36.5t37 15.5q21 0 35 -15.5t14 -36.5t-14.5 -36.5t-35.5 -15.5z" />
    <glyph glyph-name="dotlessi" unicode="&#x131;" horiz-adv-x="250" 
d="M171 0h-91v484h91v-484z" />
    <glyph glyph-name="IJ" unicode="&#x132;" horiz-adv-x="658" 
d="M81 674h91v-674h-91v674zM493 244v430h91v-439q0 -247 -219 -247q-61 0 -108 19l15 73q37 -16 86 -16q68 0 101.5 40t33.5 140z" />
    <glyph glyph-name="ij" unicode="&#x133;" horiz-adv-x="512" 
d="M171 0h-91v484h91v-484zM125 568h-1q-25 0 -40.5 16.5t-15.5 39.5t16 39.5t42 16.5q25 0 41 -16t16 -40q0 -23 -16 -39.5t-42 -16.5zM208 -215l-9 72q72 3 106 37q20 22 28.5 61.5t8.5 129.5v399h91v-437q0 -142 -61 -204q-57 -58 -164 -58zM387 568h-1q-25 0 -40.5 16.5
t-15.5 39.5t16.5 39.5t42.5 16.5q25 0 40.5 -16.5t15.5 -39.5t-15.5 -39.5t-42.5 -16.5z" />
    <glyph glyph-name="Jcircumflex" unicode="&#x134;" horiz-adv-x="405" 
d="M240 244v430h91v-439q0 -247 -219 -247q-60 0 -108 19l15 73q37 -16 86 -16q68 0 101.5 40t33.5 140zM247 830h67l111 -120h-76l-67 74h-2l-68 -74h-73z" />
    <glyph glyph-name="jcircumflex" unicode="&#x135;" horiz-adv-x="262" 
d="M-42 -215l-9 72q72 3 106 37q20 22 28.5 61.5t8.5 129.5v399h91v-437q0 -142 -61 -204q-57 -58 -164 -58zM97 690h64l101 -146h-70l-62 98h-2l-62 -98h-68z" />
    <glyph glyph-name="Kcommaaccent" unicode="&#x136;" horiz-adv-x="588" 
d="M81 0v674h91v-326h3q10 13 57 68l233 258h115l-270 -286l294 -388h-109l-250 333l-73 -78v-255h-91zM234 -224l-17 42q79 11 79 66q0 33 -34 61l66 15q41 -27 41 -75q0 -53 -40 -80t-95 -29z" />
    <glyph glyph-name="kcommaaccent" unicode="&#x137;" horiz-adv-x="507" 
d="M171 716v-453h2q30 37 48 55l158 166h113l-207 -198l238 -286h-114l-187 234l-51 -52v-182h-91v716h91zM194 -224l-17 42q34 4 56.5 20.5t22.5 45.5q0 33 -34 61l66 15q41 -27 41 -75q0 -53 -40 -80t-95 -29z" />
    <glyph glyph-name="kgreenlandic" unicode="&#x138;" horiz-adv-x="507" 
d="M171 484v-221h2q30 37 48 55l158 166h113l-207 -198l238 -286h-114l-187 234l-51 -52v-182h-91v484h91z" />
    <glyph glyph-name="Lacute" unicode="&#x139;" horiz-adv-x="515" 
d="M81 0v674h91v-598h321v-76h-412zM186 830h111l-128 -120h-75z" />
    <glyph glyph-name="lacute" unicode="&#x13a;" horiz-adv-x="250" 
d="M80 0v716h91v-716h-91zM157 866h111l-128 -120h-75z" />
    <glyph glyph-name="Lcommaaccent" unicode="&#x13b;" horiz-adv-x="515" 
d="M81 0v674h91v-598h321v-76h-412zM208 -224l-17 42q79 11 79 66q0 33 -34 61l66 15q41 -27 41 -75q0 -53 -40 -80t-95 -29z" />
    <glyph glyph-name="lcommaaccent" unicode="&#x13c;" horiz-adv-x="250" 
d="M80 0v716h91v-716h-91zM55 -224l-17 42q34 4 56.5 20.5t22.5 45.5q0 33 -34 61l66 15q41 -27 41 -75q0 -53 -40 -80t-95 -29z" />
    <glyph glyph-name="Lcaron" unicode="&#x13d;" horiz-adv-x="515" 
d="M81 0v674h91v-598h321v-76h-412zM280 505l-17 42q79 11 79 66q0 33 -34 61l66 15q41 -27 41 -75q0 -53 -40 -80t-95 -29z" />
    <glyph glyph-name="lcaron" unicode="&#x13e;" horiz-adv-x="261" 
d="M80 0v716h91v-716h-91zM251 528l-41 31q38 45 38 89q0 36 -30 64l65 14q14 -9 25 -29.5t11 -45.5q0 -11 -1.5 -22t-4 -19.5t-6.5 -17t-7.5 -15t-9 -13t-9.5 -10.5t-9.5 -9t-8 -7l-7.5 -6z" />
    <glyph glyph-name="Ldot" unicode="&#x13f;" horiz-adv-x="515" 
d="M81 0v674h91v-598h321v-76h-412zM374 323h-1q-21 0 -35.5 15.5t-14.5 36.5t15 36.5t37 15.5q21 0 35 -15.5t14 -36.5t-14.5 -36.5t-35.5 -15.5z" />
    <glyph glyph-name="ldot" unicode="&#x140;" horiz-adv-x="284" 
d="M80 0v716h91v-716h-91zM267 339h-1q-21 0 -35 15.5t-14 36.5t14.5 36.5t35.5 15.5t34.5 -15t13.5 -37q0 -21 -14 -36.5t-34 -15.5z" />
    <glyph glyph-name="Lslash" unicode="&#x141;" horiz-adv-x="518" 
d="M496 0h-412v274l-89 -60v66l89 60v334h91v-275l143 96v-68l-143 -95v-256h321v-76z" />
    <glyph glyph-name="lslash" unicode="&#x142;" horiz-adv-x="256" 
d="M174 0h-91v286l-70 -57v69l70 57v361h91v-290l73 59v-70l-73 -60v-355z" />
    <glyph glyph-name="Nacute" unicode="&#x143;" horiz-adv-x="722" 
d="M167 0h-86v674h103l247 -349q87 -125 131 -214l3 1q-10 94 -10 266v296h86v-674h-93l-243 347q-99 146 -141 225l-3 -1q6 -101 6 -265v-306zM398 830h111l-128 -120h-75z" />
    <glyph glyph-name="nacute" unicode="&#x144;" horiz-adv-x="605" 
d="M80 0v351q0 78 -4 133h81l5 -86h3q21 40 67.5 69t108.5 29q29 0 58 -9.5t60 -31.5t50.5 -68t19.5 -110v-277h-91v269q0 69 -31 111t-96 42q-47 0 -82.5 -27.5t-50.5 -66.5q-7 -19 -7 -40v-288h-91zM342 697h103l-128 -146h-66z" />
    <glyph glyph-name="Ncommaaccent" unicode="&#x145;" horiz-adv-x="722" 
d="M167 0h-86v674h103l247 -349q87 -125 131 -214l3 1q-10 94 -10 266v296h86v-674h-93l-243 347q-99 146 -141 225l-3 -1q6 -101 6 -265v-306zM301 -224l-17 42q79 11 79 66q0 33 -34 61l66 15q41 -27 41 -75q0 -53 -40 -80t-95 -29z" />
    <glyph glyph-name="ncommaaccent" unicode="&#x146;" horiz-adv-x="605" 
d="M80 0v351q0 78 -4 133h81l5 -86h3q21 40 67.5 69t108.5 29q29 0 58 -9.5t60 -31.5t50.5 -68t19.5 -110v-277h-91v269q0 69 -31 111t-96 42q-47 0 -82.5 -27.5t-50.5 -66.5q-7 -19 -7 -40v-288h-91zM243 -224l-17 42q34 4 56.5 20.5t22.5 45.5q0 33 -34 61l66 15
q41 -27 41 -75q0 -53 -40 -80t-95 -29z" />
    <glyph glyph-name="Ncaron" unicode="&#x147;" horiz-adv-x="722" 
d="M167 0h-86v674h103l247 -349q87 -125 131 -214l3 1q-10 94 -10 266v296h86v-674h-93l-243 347q-99 146 -141 225l-3 -1q6 -101 6 -265v-306zM398 703h-67l-111 120h76l68 -73h2l67 73h73z" />
    <glyph glyph-name="ncaron" unicode="&#x148;" horiz-adv-x="605" 
d="M80 0v351q0 78 -4 133h81l5 -86h3q21 40 67.5 69t108.5 29q29 0 58 -9.5t60 -31.5t50.5 -68t19.5 -110v-277h-91v269q0 69 -31 111t-96 42q-47 0 -82.5 -27.5t-50.5 -66.5q-7 -19 -7 -40v-288h-91zM337 551h-67l-101 146h71l63 -98h2l63 98h68z" />
    <glyph glyph-name="napostrophe" unicode="&#x149;" horiz-adv-x="605" 
d="M80 0v351q0 78 -4 133h81l5 -86h3q21 40 67.5 69t108.5 29q29 0 58 -9.5t60 -31.5t50.5 -68t19.5 -110v-277h-91v269q0 69 -31 111t-96 42q-47 0 -82.5 -27.5t-50.5 -66.5q-7 -19 -7 -40v-288h-91zM57 539l-38 32q39 41 39 82q0 33 -30 58l65 19q14 -9 25 -29t11 -45
q0 -68 -72 -117z" />
    <glyph glyph-name="Eng" unicode="&#x14a;" horiz-adv-x="722" 
d="M167 0h-86v674h103l247 -349q87 -125 131 -214l3 1q-10 94 -10 266v296h86v-630q0 -219 -211 -248l-17 72q65 12 98.5 42.5t40.5 83.5l-247 353q-99 146 -141 225l-3 -1q6 -101 6 -265v-306z" />
    <glyph glyph-name="eng" unicode="&#x14b;" horiz-adv-x="605" 
d="M80 0v351q0 78 -4 133h81l5 -86h3q21 40 67.5 69t108.5 29q29 0 58 -9.5t60 -31.5t50.5 -68t19.5 -110v-208q0 -114 -56 -175.5t-150 -74.5l-17 73q132 27 132 167v210q0 69 -31 111t-96 42q-47 0 -82.5 -27.5t-50.5 -66.5q-7 -19 -7 -40v-288h-91z" />
    <glyph glyph-name="Omacron" unicode="&#x14c;" horiz-adv-x="770" 
d="M380 -12h-1q-150 0 -245.5 96.5t-95.5 244.5q0 157 99 257t251 100q153 0 248 -96.5t95 -245.5q0 -163 -101 -259.5t-250 -96.5zM383 60h1q114 0 182.5 79t68.5 201q0 111 -66.5 192.5t-182.5 81.5q-119 0 -185.5 -81t-66.5 -201q0 -114 68.5 -193t180.5 -79zM262 796
h248v-56h-248v56z" />
    <glyph glyph-name="omacron" unicode="&#x14d;" horiz-adv-x="604" 
d="M298 -12h-1q-111 0 -184.5 69.5t-73.5 179.5q0 116 75.5 187.5t190.5 71.5q116 0 187.5 -70.5t71.5 -177.5q0 -124 -79.5 -192t-186.5 -68zM299 55h1q72 0 121 51t49 138q0 72 -43 128.5t-124 56.5q-82 0 -126 -55t-44 -133q0 -84 48 -135t118 -51zM186 646h234v-58h-234
v58z" />
    <glyph glyph-name="Obreve" unicode="&#x14e;" horiz-adv-x="770" 
d="M380 -12h-1q-150 0 -245.5 96.5t-95.5 244.5q0 157 99 257t251 100q153 0 248 -96.5t95 -245.5q0 -163 -101 -259.5t-250 -96.5zM383 60h1q114 0 182.5 79t68.5 201q0 111 -66.5 192.5t-182.5 81.5q-119 0 -185.5 -81t-66.5 -201q0 -114 68.5 -193t180.5 -79zM256 836h54
q12 -50 76 -50q66 0 76 50h53q-2 -48 -33.5 -78.5t-97.5 -30.5q-65 0 -95.5 30t-32.5 79z" />
    <glyph glyph-name="obreve" unicode="&#x14f;" horiz-adv-x="604" 
d="M298 -12h-1q-111 0 -184.5 69.5t-73.5 179.5q0 116 75.5 187.5t190.5 71.5q116 0 187.5 -70.5t71.5 -177.5q0 -124 -79.5 -192t-186.5 -68zM299 55h1q72 0 121 51t49 138q0 72 -43 128.5t-124 56.5q-82 0 -126 -55t-44 -133q0 -84 48 -135t118 -51zM172 687h55
q6 -32 25.5 -52t49.5 -20q35 0 53.5 21.5t21.5 50.5h55q-1 -59 -36 -94t-94 -35q-65 0 -97 37.5t-33 91.5z" />
    <glyph glyph-name="Ohungarumlaut" unicode="&#x150;" horiz-adv-x="770" 
d="M380 -12h-1q-150 0 -245.5 96.5t-95.5 244.5q0 157 99 257t251 100q153 0 248 -96.5t95 -245.5q0 -163 -101 -259.5t-250 -96.5zM383 60h1q114 0 182.5 79t68.5 201q0 111 -66.5 192.5t-182.5 81.5q-119 0 -185.5 -81t-66.5 -201q0 -114 68.5 -193t180.5 -79zM357 833
h101l-115 -116h-68zM511 833h101l-115 -116h-68z" />
    <glyph glyph-name="ohungarumlaut" unicode="&#x151;" horiz-adv-x="604" 
d="M298 -12h-1q-111 0 -184.5 69.5t-73.5 179.5q0 116 75.5 187.5t190.5 71.5q116 0 187.5 -70.5t71.5 -177.5q0 -124 -79.5 -192t-186.5 -68zM299 55h1q72 0 121 51t49 138q0 72 -43 128.5t-124 56.5q-82 0 -126 -55t-44 -133q0 -84 48 -135t118 -51zM258 697h92l-112 -137
h-59zM409 697h92l-112 -137h-59z" />
    <glyph glyph-name="OE" unicode="&#x152;" horiz-adv-x="988" 
d="M948 74v-74h-378q-19 0 -75 -6q-58 -6 -99 -6q-163 0 -260.5 96.5t-97.5 247.5q0 161 100 257.5t262 96.5q47 0 105 -6t74 -6h352v-74h-309v-212h292v-74h-292v-240h326zM531 75v523q-55 16 -124 16q-129 0 -201 -79.5t-72 -198.5q0 -118 75 -197t208 -79q71 0 114 15z
" />
    <glyph glyph-name="oe" unicode="&#x153;" horiz-adv-x="948" 
d="M905 224h-362q-1 -73 48.5 -119.5t126.5 -46.5q75 0 145 30l18 -64q-66 -36 -172 -36q-147 0 -210 119h-2q-29 -59 -86 -89t-123 -30q-107 0 -178 70t-71 180q0 114 72.5 186t182.5 72q70 0 124.5 -32t79.5 -89h2q29 60 79.5 90.5t113.5 30.5q50 0 89.5 -17t62 -42
t37.5 -57.5t20.5 -60.5t5.5 -54q0 -29 -3 -41zM296 429h-1q-80 0 -121 -56.5t-41 -131.5q0 -83 47.5 -134.5t114.5 -51.5q70 0 116 49.5t46 137.5q0 78 -42 132.5t-119 54.5zM541 289h279q0 19 -5 40t-17.5 46t-41.5 41t-70 16q-66 0 -102 -44.5t-43 -98.5z" />
    <glyph glyph-name="Racute" unicode="&#x154;" horiz-adv-x="581" 
d="M81 0v665q80 15 186 15q144 0 210 -57q55 -48 55 -127q0 -64 -38 -109t-96 -63v-2q74 -27 102 -132q44 -168 56 -190h-94q-16 27 -47 160q-17 70 -49 100t-95 32h-99v-292h-91zM172 602v-242h107q75 0 118.5 34.5t43.5 91.5q0 65 -45.5 95t-122.5 30q-65 0 -101 -9z
M322 833h111l-128 -120h-75z" />
    <glyph glyph-name="racute" unicode="&#x155;" horiz-adv-x="354" 
d="M80 0v325q0 95 -4 159h80l3 -101h3q19 53 58.5 83t87.5 30q14 0 27 -3v-84q-15 3 -34 3q-49 0 -82.5 -31.5t-43.5 -84.5q-4 -17 -4 -41v-255h-91zM228 697h103l-128 -146h-66z" />
    <glyph glyph-name="Rcommaaccent" unicode="&#x156;" horiz-adv-x="581" 
d="M81 0v665q80 15 186 15q144 0 210 -57q55 -48 55 -127q0 -64 -38 -109t-96 -63v-2q74 -27 102 -132q44 -168 56 -190h-94q-16 27 -47 160q-17 70 -49 100t-95 32h-99v-292h-91zM172 602v-242h107q75 0 118.5 34.5t43.5 91.5q0 65 -45.5 95t-122.5 30q-65 0 -101 -9z
M231 -217l-17 42q79 11 79 66q0 33 -34 61l66 15q41 -27 41 -75q0 -53 -40 -80t-95 -29z" />
    <glyph glyph-name="rcommaaccent" unicode="&#x157;" horiz-adv-x="354" 
d="M80 0v325q0 95 -4 159h80l3 -101h3q19 53 58.5 83t87.5 30q14 0 27 -3v-84q-15 3 -34 3q-49 0 -82.5 -31.5t-43.5 -84.5q-4 -17 -4 -41v-255h-91zM62 -224l-17 42q34 4 56.5 20.5t22.5 45.5q0 33 -34 61l66 15q41 -27 41 -75q0 -53 -40 -80t-95 -29z" />
    <glyph glyph-name="Rcaron" unicode="&#x158;" horiz-adv-x="581" 
d="M81 0v665q80 15 186 15q144 0 210 -57q55 -48 55 -127q0 -64 -38 -109t-96 -63v-2q74 -27 102 -132q44 -168 56 -190h-94q-16 27 -47 160q-17 70 -49 100t-95 32h-99v-292h-91zM172 602v-242h107q75 0 118.5 34.5t43.5 91.5q0 65 -45.5 95t-122.5 30q-65 0 -101 -9z
M321 713h-67l-111 120h76l68 -73h2l67 73h73z" />
    <glyph glyph-name="rcaron" unicode="&#x159;" horiz-adv-x="354" 
d="M80 0v325q0 95 -4 159h80l3 -101h3q19 53 58.5 83t87.5 30q14 0 27 -3v-84q-15 3 -34 3q-49 0 -82.5 -31.5t-43.5 -84.5q-4 -17 -4 -41v-255h-91zM231 551h-67l-101 146h71l63 -98h2l63 98h68z" />
    <glyph glyph-name="Sacute" unicode="&#x15a;" horiz-adv-x="537" 
d="M46 36l25 75q77 -49 175 -49q70 0 110.5 31.5t40.5 83.5q0 48 -31.5 77.5t-108.5 53.5q-100 31 -148 76.5t-48 116.5q0 81 64.5 133t167.5 52t167 -36l-26 -72q-62 35 -143 35q-70 0 -104 -31t-34 -71q0 -45 33.5 -73.5t112.5 -53.5q98 -32 144 -77.5t46 -122.5
q0 -82 -63.5 -139t-188.5 -57q-52 0 -106 13.5t-85 34.5zM323 833h111l-128 -120h-75z" />
    <glyph glyph-name="sacute" unicode="&#x15b;" horiz-adv-x="432" 
d="M45 24l22 68q62 -37 130 -37q51 0 76 20.5t25 52.5t-22.5 51t-76.5 35q-139 42 -139 137q0 61 48.5 103t130.5 42q77 0 129 -32l-22 -66q-49 31 -111 31q-41 0 -63.5 -19t-22.5 -49t23.5 -47t78.5 -35q71 -23 103.5 -56.5t32.5 -88.5q0 -64 -51 -105t-142 -41
q-84 0 -149 36zM262 697h103l-128 -146h-66z" />
    <glyph glyph-name="Scircumflex" unicode="&#x15c;" horiz-adv-x="537" 
d="M46 36l25 75q77 -49 175 -49q70 0 110.5 31.5t40.5 83.5q0 48 -31.5 77.5t-108.5 53.5q-100 31 -148 76.5t-48 116.5q0 81 64.5 133t167.5 52t167 -36l-26 -72q-62 35 -143 35q-70 0 -104 -31t-34 -71q0 -45 33.5 -73.5t112.5 -53.5q98 -32 144 -77.5t46 -122.5
q0 -82 -63.5 -139t-188.5 -57q-52 0 -106 13.5t-85 34.5zM234 834h67l111 -120h-76l-67 74h-2l-68 -74h-73z" />
    <glyph glyph-name="scircumflex" unicode="&#x15d;" horiz-adv-x="432" 
d="M45 24l22 68q62 -37 130 -37q51 0 76 20.5t25 52.5t-22.5 51t-76.5 35q-139 42 -139 137q0 61 48.5 103t130.5 42q77 0 129 -32l-22 -66q-49 31 -111 31q-41 0 -63.5 -19t-22.5 -49t23.5 -47t78.5 -35q71 -23 103.5 -56.5t32.5 -88.5q0 -64 -51 -105t-142 -41
q-84 0 -149 36zM186 697h64l101 -146h-70l-62 97h-2l-62 -97h-68z" />
    <glyph glyph-name="Scedilla" unicode="&#x15e;" horiz-adv-x="537" 
d="M46 36l25 75q77 -49 175 -49q70 0 110.5 31.5t40.5 83.5q0 48 -32 77.5t-109 53.5q-99 31 -147 77t-48 116q0 81 64.5 133t167.5 52t167 -36l-26 -72q-62 35 -143 35q-70 0 -104 -31t-34 -71q0 -45 33.5 -73.5t112.5 -53.5q98 -32 144 -77.5t46 -122.5q0 -71 -47.5 -124
t-142.5 -68l-28 -42q30 -4 51 -23.5t21 -46.5q0 -40 -30.5 -60t-77.5 -20q-43 0 -70 17l14 43q28 -14 57 -14q18 0 30.5 8t12.5 23q0 34 -80 42l42 69h-7q-48 0 -101.5 13.5t-86.5 34.5z" />
    <glyph glyph-name="Scedilla" unicode="&#xf6c1;" horiz-adv-x="537" 
d="M46 36l25 75q77 -49 175 -49q70 0 110.5 31.5t40.5 83.5q0 48 -32 77.5t-109 53.5q-99 31 -147 77t-48 116q0 81 64.5 133t167.5 52t167 -36l-26 -72q-62 35 -143 35q-70 0 -104 -31t-34 -71q0 -45 33.5 -73.5t112.5 -53.5q98 -32 144 -77.5t46 -122.5q0 -71 -47.5 -124
t-142.5 -68l-28 -42q30 -4 51 -23.5t21 -46.5q0 -40 -30.5 -60t-77.5 -20q-43 0 -70 17l14 43q28 -14 57 -14q18 0 30.5 8t12.5 23q0 34 -80 42l42 69h-7q-48 0 -101.5 13.5t-86.5 34.5z" />
    <glyph glyph-name="scedilla" unicode="&#x15f;" horiz-adv-x="432" 
d="M45 24l22 69q62 -37 130 -37q50 0 75.5 20.5t25.5 51.5q0 33 -22.5 51.5t-76.5 35.5q-139 41 -139 136q0 61 48.5 103t130.5 42q77 0 129 -32l-22 -65q-52 30 -111 30q-41 0 -63.5 -19t-22.5 -49t23.5 -47t78.5 -35q71 -22 103.5 -55.5t32.5 -88.5q0 -53 -36.5 -92
t-103.5 -50l-28 -42q30 -4 50.5 -22.5t20.5 -46.5q0 -42 -30 -62t-79 -20q-39 0 -68 17l14 43q26 -14 56 -14q20 0 33 7.5t12 24.5q-1 35 -81 41l42 70h-4q-73 0 -140 35z" />
    <glyph glyph-name="scedilla" unicode="&#xf6c2;" horiz-adv-x="432" 
d="M45 24l22 69q62 -37 130 -37q50 0 75.5 20.5t25.5 51.5q0 33 -22.5 51.5t-76.5 35.5q-139 41 -139 136q0 61 48.5 103t130.5 42q77 0 129 -32l-22 -65q-52 30 -111 30q-41 0 -63.5 -19t-22.5 -49t23.5 -47t78.5 -35q71 -22 103.5 -55.5t32.5 -88.5q0 -53 -36.5 -92
t-103.5 -50l-28 -42q30 -4 50.5 -22.5t20.5 -46.5q0 -42 -30 -62t-79 -20q-39 0 -68 17l14 43q26 -14 56 -14q20 0 33 7.5t12 24.5q-1 35 -81 41l42 70h-4q-73 0 -140 35z" />
    <glyph glyph-name="Scaron" unicode="&#x160;" horiz-adv-x="537" 
d="M46 36l25 75q77 -49 175 -49q70 0 110.5 31.5t40.5 83.5q0 48 -31.5 77.5t-108.5 53.5q-100 31 -148 76.5t-48 116.5q0 81 64.5 133t167.5 52t167 -36l-26 -72q-62 35 -143 35q-70 0 -104 -31t-34 -71q0 -45 33.5 -73.5t112.5 -53.5q98 -32 144 -77.5t46 -122.5
q0 -82 -63.5 -139t-188.5 -57q-52 0 -106 13.5t-85 34.5zM314 713h-67l-111 120h76l68 -73h2l67 73h73z" />
    <glyph glyph-name="scaron" unicode="&#x161;" horiz-adv-x="432" 
d="M45 24l22 68q62 -37 130 -37q51 0 76 20.5t25 52.5t-22.5 51t-76.5 35q-139 42 -139 137q0 61 48.5 103t130.5 42q77 0 129 -32l-22 -66q-49 31 -111 31q-41 0 -63.5 -19t-22.5 -49t23.5 -47t78.5 -35q71 -23 103.5 -56.5t32.5 -88.5q0 -64 -51 -105t-142 -41
q-84 0 -149 36zM255 551h-67l-101 146h71l63 -98h2l63 98h68z" />
    <glyph glyph-name="Tcommaaccent" unicode="&#x162;" horiz-adv-x="544" 
d="M226 0v600h-233v74h558v-74h-234v-600h-91zM200 -224l-17 42q79 11 79 66q0 33 -34 61l66 15q41 -27 41 -75q0 -53 -40 -80t-95 -29z" />
    <glyph glyph-name="Tcommaaccent" unicode="&#x21a;" horiz-adv-x="544" 
d="M226 0v600h-233v74h558v-74h-234v-600h-91zM200 -224l-17 42q79 11 79 66q0 33 -34 61l66 15q41 -27 41 -75q0 -53 -40 -80t-95 -29z" />
    <glyph glyph-name="tcommaaccent" unicode="&#x163;" horiz-adv-x="357" 
d="M100 576l89 25v-117h137v-69h-137v-253q0 -99 72 -99q33 0 57 7l5 -68q-33 -14 -86 -14q-67 0 -101 40q-36 39 -36 128v259h-80v69h80v92zM135 -231l-17 42q34 4 56.5 20.5t22.5 45.5q0 33 -34 61l66 15q41 -27 41 -75q0 -53 -40 -80t-95 -29z" />
    <glyph glyph-name="tcommaaccent" unicode="&#x21b;" horiz-adv-x="357" 
d="M100 576l89 25v-117h137v-69h-137v-253q0 -99 72 -99q33 0 57 7l5 -68q-33 -14 -86 -14q-67 0 -101 40q-36 39 -36 128v259h-80v69h80v92zM135 -231l-17 42q34 4 56.5 20.5t22.5 45.5q0 33 -34 61l66 15q41 -27 41 -75q0 -53 -40 -80t-95 -29z" />
    <glyph glyph-name="Tcaron" unicode="&#x164;" horiz-adv-x="544" 
d="M226 0v600h-233v74h558v-74h-234v-600h-91zM307 710h-67l-111 120h76l68 -73h2l67 73h73z" />
    <glyph glyph-name="tcaron" unicode="&#x165;" horiz-adv-x="364" 
d="M100 576l89 25v-117h138v-69h-138v-253q0 -99 72 -99q32 0 58 7l4 -68q-31 -14 -86 -14q-67 0 -101 40q-36 39 -36 128v259h-80v69h80v92zM282 543l-23 39q41 26 41 73q0 32 -30 57l65 14q14 -9 25 -28.5t11 -41.5q0 -48 -29.5 -76.5t-59.5 -36.5z" />
    <glyph glyph-name="Tbar" unicode="&#x166;" horiz-adv-x="544" 
d="M551 600h-234v-222h138v-59h-138v-319h-91v319h-138v59h138v222h-233v74h558v-74z" />
    <glyph glyph-name="tbar" unicode="&#x167;" horiz-adv-x="357" 
d="M326 415h-137v-116h107v-54h-107v-88q0 -94 72 -94q33 0 57 7l5 -68q-33 -14 -86 -14q-67 0 -101 40q-36 39 -36 127v90h-70v54h70v116h-80v69h80v92l89 25v-117h137v-69z" />
    <glyph glyph-name="Utilde" unicode="&#x168;" horiz-adv-x="711" 
d="M81 674h91v-382q0 -116 48.5 -173.5t131.5 -57.5q88 0 137.5 58t49.5 173v382h91v-378q0 -156 -77 -232t-206 -76q-121 0 -193.5 74t-72.5 232v380zM275 715h-49q-2 47 17.5 75.5t53.5 28.5q24 0 63 -22q34 -18 51 -18q12 0 18.5 8.5t8.5 31.5h48q2 -99 -69 -99
q-27 0 -65 20q-36 20 -50 20q-22 0 -27 -45z" />
    <glyph glyph-name="utilde" unicode="&#x169;" horiz-adv-x="602" 
d="M522 484v-351q0 -81 4 -133h-81l-5 88h-2q-23 -41 -68 -70.5t-111 -29.5q-25 0 -47.5 5t-48 19.5t-44 38t-31 64.5t-12.5 94v275h91v-259q0 -162 123 -162q45 0 80 25t52 61q9 23 9 46v289h91zM223 569h-50q-1 51 18 79.5t52 28.5q22 0 67 -24q30 -17 43 -17q25 0 28 44
h49q2 -104 -70 -104q-24 0 -66 22q-32 18 -44 18q-24 0 -27 -47z" />
    <glyph glyph-name="Umacron" unicode="&#x16a;" horiz-adv-x="711" 
d="M81 674h91v-382q0 -116 48.5 -173.5t131.5 -57.5q88 0 137.5 58t49.5 173v382h91v-378q0 -156 -77 -232t-206 -76q-121 0 -193.5 74t-72.5 232v380zM233 789h248v-56h-248v56z" />
    <glyph glyph-name="umacron" unicode="&#x16b;" horiz-adv-x="602" 
d="M522 484v-351q0 -81 4 -133h-81l-5 88h-2q-23 -41 -68 -70.5t-111 -29.5q-25 0 -47.5 5t-48 19.5t-44 38t-31 64.5t-12.5 94v275h91v-259q0 -162 123 -162q45 0 80 25t52 61q9 23 9 46v289h91zM185 646h234v-58h-234v58z" />
    <glyph glyph-name="Ubreve" unicode="&#x16c;" horiz-adv-x="711" 
d="M81 674h91v-382q0 -116 48.5 -173.5t131.5 -57.5q88 0 137.5 58t49.5 173v382h91v-378q0 -156 -77 -232t-206 -76q-121 0 -193.5 74t-72.5 232v380zM227 833h54q12 -50 76 -50q66 0 76 50h53q-2 -48 -33.5 -78.5t-97.5 -30.5q-65 0 -95.5 30t-32.5 79z" />
    <glyph glyph-name="ubreve" unicode="&#x16d;" horiz-adv-x="602" 
d="M522 484v-351q0 -81 4 -133h-81l-5 88h-2q-23 -41 -68 -70.5t-111 -29.5q-25 0 -47.5 5t-48 19.5t-44 38t-31 64.5t-12.5 94v275h91v-259q0 -162 123 -162q45 0 80 25t52 61q9 23 9 46v289h91zM171 687h55q6 -32 25.5 -52t49.5 -20q35 0 53.5 21.5t21.5 50.5h55
q-1 -59 -36 -94t-94 -35q-65 0 -97 37.5t-33 91.5z" />
    <glyph glyph-name="Uring" unicode="&#x16e;" horiz-adv-x="711" 
d="M81 674h91v-382q0 -116 48.5 -173.5t131.5 -57.5q88 0 137.5 58t49.5 173v382h91v-378q0 -156 -77 -232t-206 -76q-121 0 -193.5 74t-72.5 232v380zM357 876h1q45 0 72.5 -26t27.5 -66q0 -38 -28.5 -63.5t-72.5 -25.5q-45 0 -73.5 25.5t-28.5 63.5q0 39 28 65.5t74 26.5z
M356 839h-1q-22 0 -35 -16t-13 -39q0 -21 14 -36.5t35 -15.5q22 0 35.5 15t13.5 38t-14 38.5t-35 15.5z" />
    <glyph glyph-name="uring" unicode="&#x16f;" horiz-adv-x="602" 
d="M522 484v-351q0 -81 4 -133h-81l-5 88h-2q-23 -41 -68 -70.5t-111 -29.5q-25 0 -47.5 5t-48 19.5t-44 38t-31 64.5t-12.5 94v275h91v-259q0 -162 123 -162q45 0 80 25t52 61q9 23 9 46v289h91zM302 728h1q45 0 73 -27t28 -69q0 -40 -29.5 -66.5t-72.5 -26.5
q-45 0 -74.5 27t-29.5 66q0 41 29 68.5t75 27.5zM301 690h-1q-23 0 -36.5 -16.5t-13.5 -41.5q0 -22 14.5 -38.5t36.5 -16.5q24 0 38.5 16t14.5 40t-14.5 40.5t-38.5 16.5z" />
    <glyph glyph-name="Uhungarumlaut" unicode="&#x170;" horiz-adv-x="711" 
d="M81 674h91v-382q0 -116 48.5 -173.5t131.5 -57.5q88 0 137.5 58t49.5 173v382h91v-378q0 -156 -77 -232t-206 -76q-121 0 -193.5 74t-72.5 232v380zM311 830h101l-115 -116h-68zM465 830h101l-115 -116h-68z" />
    <glyph glyph-name="uhungarumlaut" unicode="&#x171;" horiz-adv-x="602" 
d="M522 484v-351q0 -81 4 -133h-81l-5 88h-2q-23 -41 -68 -70.5t-111 -29.5q-25 0 -47.5 5t-48 19.5t-44 38t-31 64.5t-12.5 94v275h91v-259q0 -162 123 -162q45 0 80 25t52 61q9 23 9 46v289h91zM265 697h92l-112 -137h-59zM416 697h92l-112 -137h-59z" />
    <glyph glyph-name="Uogonek" unicode="&#x172;" horiz-adv-x="711" 
d="M447 -138l14 -46q-34 -24 -86 -24q-42 0 -67 21.5t-25 59.5q0 55 61 116h-5q-118 3 -188 76.5t-70 228.5v380h91v-382q0 -115 49 -173t131 -58q88 0 137.5 58t49.5 173v382h91v-378q0 -135 -58.5 -209.5t-157.5 -91.5q-60 -57 -60 -99q0 -21 13 -32.5t34 -11.5
q23 0 46 10z" />
    <glyph glyph-name="uogonek" unicode="&#x173;" horiz-adv-x="602" 
d="M522 484v-352q0 -80 4 -132l-22 4q-42 -56 -42 -97q0 -25 15 -39t39 -14q26 0 46 9l15 -46q-30 -24 -84 -24q-44 0 -70 23t-26 65q0 52 48 123l-5 84h-2q-23 -41 -68 -70.5t-111 -29.5q-25 0 -47.5 5t-48 19.5t-44 38t-31 64.5t-12.5 94v275h91v-259q0 -162 123 -162
q45 0 80.5 25t51.5 61q9 19 9 46v289h91z" />
    <glyph glyph-name="Wcircumflex" unicode="&#x174;" horiz-adv-x="910" 
d="M296 0h-98l-185 674h97l88 -347q13 -52 55 -229h2q13 71 59 230l100 346h99l89 -350q37 -151 50 -224h2q13 61 59 228l100 346h94l-211 -674h-97l-91 358q-38 145 -48 220h-2q-16 -84 -57 -219zM422 830h67l111 -120h-76l-67 74h-2l-68 -74h-73z" />
    <glyph glyph-name="wcircumflex" unicode="&#x175;" horiz-adv-x="793" 
d="M20 484h93l71 -249q25 -89 39 -154h2q13 52 47 154l87 249h79l83 -245q29 -90 46 -158h2q13 65 41 157l77 246h90l-168 -484h-85l-79 230q-32 90 -49 164h-2q-16 -71 -49 -164l-85 -230h-85zM364 697h64l101 -146h-70l-62 97h-2l-62 -97h-68z" />
    <glyph glyph-name="Ycircumflex" unicode="&#x176;" horiz-adv-x="590" 
d="M340 0h-91v286l-235 388h105l107 -192q67 -123 72 -135h2q14 30 74 135l110 192h105l-249 -387v-287zM260 830h67l111 -120h-76l-67 74h-2l-68 -74h-73z" />
    <glyph glyph-name="ycircumflex" unicode="&#x177;" horiz-adv-x="513" 
d="M8 484h101l119 -289q18 -45 35 -98h2q33 95 35 101l108 286h99l-150 -356q-55 -134 -95 -200t-86 -100q-57 -43 -115 -51l-19 76q41 9 80 37q51 35 83 104q7 11 7 20q0 10 -7 24zM226 697h64l101 -146h-70l-62 97h-2l-62 -97h-68z" />
    <glyph glyph-name="Ydieresis" unicode="&#x178;" horiz-adv-x="590" 
d="M340 0h-91v286l-235 388h105l107 -192q67 -123 72 -135h2q14 30 74 135l110 192h105l-249 -387v-287zM209 713h-1q-22 0 -36 15.5t-14 36.5t15 36.5t37 15.5q21 0 35 -15t14 -37q0 -21 -14 -36.5t-36 -15.5zM402 713h-1q-21 0 -35 15.5t-14 36.5t15 36.5t36 15.5
q22 0 36 -15t14 -37q0 -21 -14.5 -36.5t-36.5 -15.5z" />
    <glyph glyph-name="Zacute" unicode="&#x179;" horiz-adv-x="619" 
d="M33 0v52l422 545v3h-386v74h508v-53l-420 -544v-3h427v-74h-551zM357 830h111l-128 -120h-75z" />
    <glyph glyph-name="zacute" unicode="&#x17a;" horiz-adv-x="466" 
d="M19 0v52l241 280q25 30 71 78v2h-292v72h406l-1 -56l-237 -277q-56 -63 -70 -77v-2h313v-72h-431zM278 697h103l-128 -146h-66z" />
    <glyph glyph-name="Zdotaccent" unicode="&#x17b;" horiz-adv-x="619" 
d="M33 0v52l422 545v3h-386v74h508v-53l-420 -544v-3h427v-74h-551zM311 720h-1q-21 0 -35.5 15.5t-14.5 36.5t15 36.5t37 15.5q21 0 35 -15.5t14 -36.5t-14.5 -36.5t-35.5 -15.5z" />
    <glyph glyph-name="zdotaccent" unicode="&#x17c;" horiz-adv-x="466" 
d="M19 0v52l241 280q25 30 71 78v2h-292v72h406l-1 -56l-237 -277q-56 -63 -70 -77v-2h313v-72h-431zM235 572h-1q-22 0 -37 16t-15 37q0 22 16 38t38 16t36.5 -15.5t14.5 -38.5q0 -22 -14.5 -37.5t-37.5 -15.5z" />
    <glyph glyph-name="Zcaron" unicode="&#x17d;" horiz-adv-x="619" 
d="M33 0v52l422 545v3h-386v74h508v-53l-420 -544v-3h427v-74h-551zM355 710h-67l-111 120h76l68 -73h2l67 73h73z" />
    <glyph glyph-name="zcaron" unicode="&#x17e;" horiz-adv-x="466" 
d="M19 0v52l241 280q25 30 71 78v2h-292v72h406l-1 -56l-237 -277q-56 -63 -70 -77v-2h313v-72h-431zM281 551h-67l-101 146h71l63 -98h2l63 98h68z" />
    <glyph glyph-name="florin" unicode="&#x192;" horiz-adv-x="556" 
d="M122 335v65h106l5 43q5 41 16.5 76.5t34 69.5t61 53.5t89.5 19.5q47 -3 73 -16l-17 -66q-29 11 -56 11q-51 0 -78.5 -40t-34.5 -103l-6 -48h130v-65h-138l-23 -196q-13 -109 -54.5 -166.5t-128.5 -57.5q-52 0 -82 16l16 64q26 -11 59 -11q49 1 71.5 40t32.5 120l21 191
h-97z" />
    <glyph glyph-name="AEacute" unicode="&#x1fc;" horiz-adv-x="865" 
d="M91 0h-95l343 674h461v-74h-320l30 -212h278v-74h-266l36 -240h269v-74h-347l-35 243h-231zM247 317h187l-27 189q-12 82 -13 102h-4q-20 -45 -44 -93zM525 830h111l-128 -120h-75z" />
    <glyph glyph-name="aeacute" unicode="&#x1fd;" horiz-adv-x="844" 
d="M802 230h-358q-3 -76 44.5 -123.5t123.5 -47.5q80 0 148 29l17 -64q-70 -36 -174 -36q-69 0 -123.5 29.5t-77.5 82.5h-3q-25 -53 -77 -82.5t-121 -29.5q-78 0 -120 41.5t-42 95.5q0 85 82 132t238 44v18q0 6 -2 16.5t-9.5 27.5t-19.5 31t-36 24.5t-56 10.5
q-82 0 -140 -40l-22 60q78 47 165 47q133 0 171 -108h2q28 51 75.5 79.5t109.5 28.5q58 0 101.5 -25t65 -63t31.5 -73t10 -66q0 -27 -3 -39zM361 178v63q-230 6 -230 -108q0 -35 26 -56.5t65 -21.5q52 -1 86 24t47 62q6 16 6 37zM443 295h274q1 16 -4.5 37t-18.5 44.5
t-41 39.5t-65 16q-67 0 -104.5 -44.5t-40.5 -92.5zM461 697h103l-128 -146h-66z" />
    <glyph glyph-name="Oslashacute" unicode="&#x1fe;" horiz-adv-x="770" 
d="M121 -44l-51 44l69 85q-101 98 -101 247q0 155 100 254.5t250 99.5q106 0 191 -57l68 85l55 -42l-69 -85q98 -95 98 -244q0 -164 -101 -259.5t-244 -95.5q-108 0 -193 57zM192 154l340 413q-64 48 -146 48q-119 0 -187 -82t-68 -196q0 -99 59 -184zM578 518l-337 -412
q62 -47 143 -47q116 0 185 80.5t69 200.5q0 101 -57 177zM432 841h111l-128 -120h-75z" />
    <glyph glyph-name="oslashacute" unicode="&#x1ff;" horiz-adv-x="604" 
d="M303 496h1q76 0 137 -35l47 62l39 -29l-46 -61q83 -72 83 -186q0 -123 -78.5 -191t-183.5 -68q-78 0 -137 36l-50 -64l-36 32l45 59q-84 71 -84 187q0 115 74.5 186.5t188.5 71.5zM173 115l225 286q-42 28 -97 28q-84 0 -128 -55.5t-44 -132.5q0 -75 42 -126h2zM431 367
l-224 -284q37 -28 91 -28q77 0 127 51t50 139q0 71 -42 121zM343 697h103l-128 -146h-66z" />
    <glyph glyph-name="Scommaaccent" unicode="&#x218;" horiz-adv-x="537" 
d="M46 36l25 75q77 -49 175 -49q70 0 110.5 31.5t40.5 83.5q0 48 -31.5 77.5t-108.5 53.5q-100 31 -148 76.5t-48 116.5q0 81 64.5 133t167.5 52t167 -36l-26 -72q-62 35 -143 35q-70 0 -104 -31t-34 -71q0 -45 33.5 -73.5t112.5 -53.5q98 -32 144 -77.5t46 -122.5
q0 -82 -63.5 -139t-188.5 -57q-52 0 -106 13.5t-85 34.5zM209 -224l-17 42q79 11 79 66q0 33 -34 61l66 15q41 -27 41 -75q0 -53 -40 -80t-95 -29z" />
    <glyph glyph-name="scommaaccent" unicode="&#x219;" horiz-adv-x="432" 
d="M45 24l22 68q62 -37 130 -37q51 0 76 20.5t25 52.5t-22.5 51t-76.5 35q-139 42 -139 137q0 61 48.5 103t130.5 42q77 0 129 -32l-22 -66q-49 31 -111 31q-41 0 -63.5 -19t-22.5 -49t23.5 -47t78.5 -35q71 -23 103.5 -56.5t32.5 -88.5q0 -64 -51 -105t-142 -41
q-84 0 -149 36zM152 -224l-17 42q34 4 56.5 20.5t22.5 45.5q0 33 -34 61l66 15q41 -27 41 -75q0 -53 -40 -80t-95 -29z" />
    <glyph glyph-name="circumflex" unicode="&#x2c6;" 
d="M117 697h64l101 -146h-70l-62 97h-2l-62 -97h-68z" />
    <glyph glyph-name="caron" unicode="&#x2c7;" 
d="M184 551h-67l-101 146h71l63 -98h2l63 98h68z" />
    <glyph glyph-name="breve" unicode="&#x2d8;" 
d="M20 687h55q6 -32 25.5 -52t49.5 -20q35 0 53.5 21.5t21.5 50.5h55q-1 -59 -36 -94t-94 -35q-65 0 -97 37.5t-33 91.5z" />
    <glyph glyph-name="dotaccent" unicode="&#x2d9;" 
d="M136 572h-1q-22 0 -37 16t-15 37q0 22 16 38t38 16t36.5 -15.5t14.5 -38.5q0 -22 -14.5 -37.5t-37.5 -15.5z" />
    <glyph glyph-name="ring" unicode="&#x2da;" horiz-adv-x="400" 
d="M201 728h1q45 0 73 -27t28 -69q0 -40 -29.5 -66.5t-72.5 -26.5q-45 0 -74.5 27t-29.5 66q0 41 29 68.5t75 27.5zM200 690h-1q-23 0 -36.5 -16.5t-13.5 -41.5q0 -22 14.5 -38.5t36.5 -16.5q24 0 38.5 16t14.5 40t-14.5 40.5t-38.5 16.5z" />
    <glyph glyph-name="ogonek" unicode="&#x2db;" 
d="M123 3h58q-56 -63 -56 -100q0 -23 14 -37t39 -14t47 10l15 -46q-30 -24 -83 -24q-45 0 -71 22.5t-26 65.5q0 58 63 123z" />
    <glyph glyph-name="tilde" unicode="&#x2dc;" 
d="M72 569h-50q-1 51 18 79.5t52 28.5q22 0 67 -24q30 -17 43 -17q25 0 28 44h49q2 -104 -70 -104q-24 0 -66 22q-32 18 -44 18q-24 0 -27 -47z" />
    <glyph glyph-name="hungarumlaut" unicode="&#x2dd;" 
d="M126 697h92l-112 -137h-59zM277 697h92l-112 -137h-59z" />
    <glyph glyph-name="uni037E" unicode="&#x37e;" horiz-adv-x="222" 
d="M94 -116l-65 -7q36 123 46 239l101 5q-12 -56 -37.5 -127.5t-44.5 -109.5zM121 320h-1q-28 0 -46 20t-18 48q0 30 18.5 49.5t47.5 19.5t47 -19.5t18 -49.5q0 -29 -18.5 -48.5t-47.5 -19.5z" />
    <glyph glyph-name="tonos" unicode="&#x384;" 
d="M146 697h96l-93 -146h-63z" />
    <glyph glyph-name="dieresistonos" unicode="&#x385;" horiz-adv-x="344" 
d="M153 716h79l-54 -160h-50zM44 575h-1q-21 0 -34.5 15t-13.5 35t14.5 34.5t35.5 14.5q20 0 33.5 -14.5t13.5 -34.5t-13.5 -35t-34.5 -15zM299 575h-1q-20 0 -33.5 15t-13.5 35t14 34.5t35 14.5t34.5 -14t13.5 -35q0 -20 -13.5 -35t-35.5 -15z" />
    <glyph glyph-name="Alphatonos" unicode="&#x386;" horiz-adv-x="672" 
d="M470 215h-269l-78 -215h-95l254 674h111l257 -674h-99zM221 285h229l-77 202q-16 43 -38 113h-2q-19 -68 -35 -111zM79 674h84l-37 -157h-55z" />
    <glyph glyph-name="anoteleia" unicode="&#x387;" horiz-adv-x="222" 
d="M111 250h-1q-29 0 -48 20t-18 49q0 31 19 50.5t48 19.5q30 0 48.5 -19.5t18.5 -50.5q0 -29 -19 -49t-48 -20z" />
    <glyph glyph-name="Epsilontonos" unicode="&#x388;" horiz-adv-x="613" 
d="M539 389v-74h-292v-241h326v-74h-417v674h400v-74h-309v-211h292zM8 674h84l-37 -157h-55z" />
    <glyph glyph-name="Etatonos" unicode="&#x389;" horiz-adv-x="791" 
d="M156 674h91v-280h372v280h91v-674h-91v317h-372v-317h-91v674zM8 674h84l-37 -157h-55z" />
    <glyph glyph-name="Iotatonos" unicode="&#x38a;" horiz-adv-x="328" 
d="M156 674h91v-674h-91v674zM8 674h84l-37 -157h-55z" />
    <glyph glyph-name="Omicrontonos" unicode="&#x38c;" horiz-adv-x="810" 
d="M421 -12h-1q-150 0 -245.5 96.5t-95.5 244.5q0 157 99 257t251 100q153 0 248 -96.5t95 -245.5q0 -163 -101 -259.5t-250 -96.5zM424 60h1q114 0 182.5 79t68.5 201q0 111 -66.5 192.5t-182.5 81.5q-119 0 -185.5 -81t-66.5 -201q0 -114 68.5 -193t180.5 -79zM9 674h84
l-37 -157h-55z" />
    <glyph glyph-name="Upsilontonos" unicode="&#x38e;" horiz-adv-x="771" 
d="M139 607l15 73q46 -3 100.5 -32.5t92.5 -74.5q83 -97 101 -235h5q22 132 119 237q39 42 87 70.5t90 34.5l15 -73q-70 -22 -144 -97.5t-109 -194.5q-21 -70 -21 -144v-171h-91v172q0 77 -17 142q-32 128 -100 204t-143 89zM8 674h84l-37 -157h-55z" />
    <glyph glyph-name="Omegatonos" unicode="&#x38f;" horiz-adv-x="821" 
d="M629 73v-3h163v-70h-279v56q74 42 122 116.5t48 175.5q0 65 -28 124.5t-86.5 100.5t-135.5 41q-115 0 -185.5 -79.5t-70.5 -188.5q0 -97 49 -175t121 -115v-56h-280v70h162v3q-63 43 -105 114.5t-42 163.5q0 143 101 239t251 96q153 0 248 -94.5t95 -230.5
q0 -99 -42 -172t-106 -116zM8 674h84l-37 -157h-55z" />
    <glyph glyph-name="iotadieresistonos" unicode="&#x390;" horiz-adv-x="252" 
d="M171 484v-361q0 -36 10.5 -50t40.5 -13l-5 -66q-13 -6 -43 -6q-46 0 -70 27.5t-24 97.5v371h91zM115 700h79l-54 -160h-49zM5 560h-1q-20 0 -33 14.5t-13 33.5q0 20 14 34.5t34 14.5t33 -14t13 -35q0 -20 -13 -34t-34 -14zM262 560h-1q-20 0 -33 14t-13 34t13.5 34.5
t33.5 14.5t33.5 -14t13.5 -35q0 -20 -13 -34t-34 -14z" />
    <glyph glyph-name="Alpha" unicode="&#x391;" horiz-adv-x="671" 
d="M469 215h-269l-78 -215h-95l254 674h111l257 -674h-99zM220 285h229l-77 202q-16 43 -38 113h-2q-19 -68 -35 -112z" />
    <glyph glyph-name="Beta" unicode="&#x392;" horiz-adv-x="585" 
d="M81 1v664q77 15 175 15q134 0 197 -49q60 -45 60 -121q0 -49 -32 -89t-86 -58v-3q55 -13 99.5 -55t44.5 -114q0 -81 -61 -135q-72 -63 -250 -63q-62 0 -147 8zM172 604v-215h94q74 0 114.5 31t40.5 81q0 110 -159 110q-62 0 -90 -7zM172 321v-254q25 -5 84 -5
q81 0 134 30.5t53 100.5q0 65 -51.5 96.5t-134.5 31.5h-85z" />
    <glyph glyph-name="Gamma" unicode="&#x393;" horiz-adv-x="492" 
d="M81 674h397v-76h-306v-598h-91v674z" />
    <glyph glyph-name="Delta" unicode="&#x394;" horiz-adv-x="682" 
d="M26 0v51l262 623h104l259 -623v-51h-625zM124 74h423l-155 379q-37 89 -56 143h-2q-19 -54 -49 -126z" />
    <glyph glyph-name="Delta" unicode="&#xe000;" horiz-adv-x="682" 
d="M26 0v51l262 623h104l259 -623v-51h-625zM124 74h423l-155 379q-37 89 -56 143h-2q-19 -54 -49 -126z" />
    <glyph glyph-name="Epsilon" unicode="&#x395;" horiz-adv-x="537" 
d="M464 389v-74h-292v-241h326v-74h-417v674h400v-74h-309v-211h292z" />
    <glyph glyph-name="Zeta" unicode="&#x396;" horiz-adv-x="619" 
d="M33 0v52l422 545v3h-386v74h508v-53l-420 -544v-3h427v-74h-551z" />
    <glyph glyph-name="Eta" unicode="&#x397;" horiz-adv-x="715" 
d="M81 674h91v-280h371v280h91v-674h-91v317h-371v-317h-91v674z" />
    <glyph glyph-name="Theta" unicode="&#x398;" horiz-adv-x="770" 
d="M380 -12h-1q-150 0 -245.5 96.5t-95.5 244.5q0 157 99 257t251 100q153 0 248 -97t95 -245q0 -163 -101 -259.5t-250 -96.5zM383 60h1q114 0 182.5 79t68.5 201q0 111 -66.5 192.5t-182.5 81.5q-119 0 -185.5 -81.5t-66.5 -201.5q0 -113 68.5 -192t180.5 -79zM228 383
h312v-72h-312v72z" />
    <glyph glyph-name="Iota" unicode="&#x399;" horiz-adv-x="253" 
d="M81 674h91v-674h-91v674z" />
    <glyph glyph-name="Kappa" unicode="&#x39a;" horiz-adv-x="588" 
d="M81 0v674h91v-326h3q10 13 57 68l233 258h115l-270 -286l294 -388h-109l-250 333l-73 -78v-255h-91z" />
    <glyph glyph-name="Lambda" unicode="&#x39b;" horiz-adv-x="668" 
d="M649 0h-99l-179 484q-10 27 -37 112h-2q-22 -75 -34 -111l-176 -485h-95l254 674h111z" />
    <glyph glyph-name="Mu" unicode="&#x39c;" horiz-adv-x="872" 
d="M720 0l-17 298q-12 228 -12 299h-2q-38 -116 -96 -262l-130 -331h-72l-120 327q-53 150 -84 266h-2q-13 -278 -15 -306l-20 -291h-87l49 674h121l126 -333q40 -106 73 -225h2q30 103 79 226l134 332h120l43 -674h-90z" />
    <glyph glyph-name="Nu" unicode="&#x39d;" horiz-adv-x="722" 
d="M167 0h-86v674h103l247 -349q87 -125 131 -214l3 1q-10 94 -10 266v296h86v-674h-93l-243 347q-99 146 -141 225l-3 -1q6 -101 6 -265v-306z" />
    <glyph glyph-name="Xi" unicode="&#x39e;" horiz-adv-x="599" 
d="M60 674h491v-74h-491v74zM99 385h413v-74h-413v74zM48 74h515v-74h-515v74z" />
    <glyph glyph-name="Omicron" unicode="&#x39f;" horiz-adv-x="770" 
d="M380 -12h-1q-150 0 -245.5 96.5t-95.5 244.5q0 157 99 257t251 100q153 0 248 -96.5t95 -245.5q0 -163 -101 -259.5t-250 -96.5zM383 60h1q114 0 182.5 79t68.5 201q0 111 -66.5 192.5t-182.5 81.5q-119 0 -185.5 -81t-66.5 -201q0 -114 68.5 -193t180.5 -79z" />
    <glyph glyph-name="Pi" unicode="&#x3a0;" horiz-adv-x="695" 
d="M613 674v-674h-91v600h-350v-600h-91v674h532z" />
    <glyph glyph-name="Rho" unicode="&#x3a1;" horiz-adv-x="576" 
d="M81 0v666q80 14 186 14q134 0 202 -58q63 -55 63 -142q0 -93 -56 -147q-76 -73 -222 -73q-56 0 -82 8v-268h-91zM172 602v-261q30 -9 86 -9q87 0 135 37.5t48 106.5q0 68 -47.5 100.5t-126.5 32.5q-55 0 -95 -7z" />
    <glyph glyph-name="Sigma" unicode="&#x3a3;" horiz-adv-x="600" 
d="M151 78v-4h422v-74h-544v53l255 281l-241 279v61h495v-74h-376v-3l224 -260z" />
    <glyph glyph-name="Tau" unicode="&#x3a4;" horiz-adv-x="544" 
d="M226 0v600h-233v74h558v-74h-234v-600h-91z" />
    <glyph glyph-name="Upsilon" unicode="&#x3a5;" horiz-adv-x="643" 
d="M12 607l15 73q46 -3 100.5 -32.5t92.5 -74.5q83 -97 101 -235h5q22 132 119 237q39 42 87 70.5t90 34.5l15 -73q-70 -22 -144 -97.5t-109 -194.5q-21 -70 -21 -144v-171h-91v172q0 77 -17 142q-32 128 -100 204t-143 89z" />
    <glyph glyph-name="Phi" unicode="&#x3a6;" horiz-adv-x="790" 
d="M438 23v-53h-88v53q-60 4 -114 25.5t-99 58t-72 95t-27 130.5q0 75 29 136.5t76 99.5t100.5 59.5t108.5 25.5v51h88v-51q59 -4 113 -25.5t99.5 -59t72.5 -98t27 -134.5q0 -139 -92.5 -221.5t-221.5 -91.5zM351 88v501q-83 -5 -151 -72.5t-68 -180.5q0 -107 64.5 -173.5
t154.5 -74.5zM439 589v-501q87 6 153 71.5t66 175.5q0 114 -64.5 180t-154.5 74z" />
    <glyph glyph-name="Chi" unicode="&#x3a7;" horiz-adv-x="631" 
d="M602 0h-108l-95 145q-64 96 -89 138h-2q-21 -40 -84 -139l-88 -144h-108l229 341l-220 333h108l99 -159q38 -61 70 -116h2q23 40 70 115l103 160h109l-230 -329z" />
    <glyph glyph-name="Psi" unicode="&#x3a8;" horiz-adv-x="742" 
d="M694 674v-198q0 -129 -77 -199t-202 -74v-203h-87v203q-54 1 -101.5 14.5t-88.5 40.5t-65.5 76t-24.5 114v226h90v-208q0 -185 190 -192v400h87v-401q81 3 135 53.5t54 160.5v187h90z" />
    <glyph glyph-name="Omega" unicode="&#x3a9;" horiz-adv-x="783" 
d="M591 73v-3h162v-70h-278v56q73 43 121 119t48 175q0 103 -67.5 183.5t-182.5 80.5t-185 -79t-70 -188q0 -94 49.5 -173.5t119.5 -117.5v-56h-279v70h161v3q-62 43 -104 115.5t-42 164.5q0 143 100.5 238t250.5 95q153 0 248 -94t95 -230q0 -96 -42 -169.5t-105 -119.5z
" />
    <glyph glyph-name="Omega" unicode="&#x2126;" horiz-adv-x="783" 
d="M591 73v-3h162v-70h-278v56q73 43 121 119t48 175q0 103 -67.5 183.5t-182.5 80.5t-185 -79t-70 -188q0 -94 49.5 -173.5t119.5 -117.5v-56h-279v70h161v3q-62 43 -104 115.5t-42 164.5q0 143 100.5 238t250.5 95q153 0 248 -94t95 -230q0 -96 -42 -169.5t-105 -119.5z
" />
    <glyph glyph-name="Iotadieresis" unicode="&#x3aa;" horiz-adv-x="253" 
d="M29 712h-1q-22 0 -36 15.5t-14 36.5t15 36.5t37 15.5q21 0 35 -15t14 -37q0 -21 -14 -36.5t-36 -15.5zM222 712h-1q-21 0 -35 15.5t-14 36.5t15 36.5t36 15.5q22 0 36 -15t14 -37q0 -21 -14.5 -36.5t-36.5 -15.5zM81 674h91v-674h-91v674z" />
    <glyph glyph-name="Upsilondieresis" unicode="&#x3ab;" horiz-adv-x="643" 
d="M228 697h-1q-22 0 -36 15.5t-14 36.5t15 36.5t37 15.5q21 0 35 -15t14 -37q0 -21 -14 -36.5t-36 -15.5zM421 697h-1q-21 0 -35 15.5t-14 36.5t15 36.5t36 15.5q22 0 36 -15t14 -37q0 -21 -14.5 -36.5t-36.5 -15.5zM12 607l15 73q46 -3 100.5 -32.5t92.5 -74.5
q83 -97 101 -235h5q22 132 119 237q39 42 87 70.5t90 34.5l15 -73q-70 -22 -144 -97.5t-109 -194.5q-21 -70 -21 -144v-171h-91v172q0 77 -17 142q-32 128 -100 204t-143 89z" />
    <glyph glyph-name="alphatonos" unicode="&#x3ac;" horiz-adv-x="603" 
d="M312 690h95l-93 -146h-63zM458 484h77q-13 -153 -13 -335q0 -48 12.5 -69.5t40.5 -21.5l-6 -66q-14 -4 -35 -4q-37 0 -60.5 27t-27.5 83h-3q-62 -110 -186 -110q-95 0 -156 68t-61 177q0 113 70 188t166 75q59 0 103 -28.5t66 -76.5h4q2 52 9 93zM132 235v-1
q0 -72 40 -123t109 -51q50 0 92.5 38.5t56.5 89.5q5 20 5 64q0 31 -4 46q-12 53 -51 90.5t-92 37.5q-68 0 -112 -53.5t-44 -137.5z" />
    <glyph glyph-name="epsilontonos" unicode="&#x3ad;" horiz-adv-x="478" 
d="M279 690h95l-93 -146h-63zM167 257v4q-50 11 -75.5 38.5t-25.5 64.5q0 53 54.5 92.5t152.5 39.5q105 0 166 -42l-20 -59q-19 13 -59.5 24.5t-78.5 11.5q-55 0 -89 -19.5t-34 -53.5t39 -51.5t103 -17.5h74v-64h-75q-74 0 -118 -20t-44 -60q0 -42 41 -65t101 -23
q41 0 87 12.5t74 29.5l18 -60q-31 -22 -86.5 -36.5t-111.5 -14.5q-90 0 -154.5 36t-64.5 112q0 44 34.5 78t91.5 43z" />
    <glyph glyph-name="etatonos" unicode="&#x3ae;" horiz-adv-x="605" 
d="M333 690h95l-93 -146h-63zM162 398h3q21 40 67.5 69t108.5 29q29 0 58 -9.5t60 -31.5t50.5 -68t19.5 -110v-288q0 -146 12 -189h-88q-15 37 -15 189v280q0 69 -31 111t-96 42q-47 0 -82.5 -27.5t-50.5 -67.5q-7 -17 -7 -40v-287h-91v351q0 91 -14 133h82q16 -31 14 -86z
" />
    <glyph glyph-name="iotatonos" unicode="&#x3af;" horiz-adv-x="252" 
d="M145 690h96l-93 -146h-63zM171 484v-361q0 -36 10.5 -50t40.5 -13l-5 -66q-13 -6 -43 -6q-46 0 -70 27.5t-24 97.5v371h91z" />
    <glyph glyph-name="upsilondieresistonos" unicode="&#x3b0;" horiz-adv-x="573" 
d="M400 484h86q14 -25 26 -78.5t12 -108.5q0 -45 -6.5 -86t-24 -82.5t-43.5 -72t-69 -49.5t-98 -19q-92 0 -151 53.5t-59 157.5v121q0 128 -11 164h86q16 -14 16 -88v-184q0 -76 37.5 -112.5t88.5 -36.5q69 0 106.5 60.5t37.5 167.5q0 60 -11.5 115.5t-22.5 77.5zM268 700
h79l-54 -160h-49zM159 560h-1q-20 0 -33 14.5t-13 33.5q0 20 14 34.5t34 14.5t33 -14t13 -35q0 -20 -13 -34t-34 -14zM415 560h-1q-20 0 -33 14t-13 34t13.5 34.5t33.5 14.5t33.5 -14t13.5 -35q0 -20 -13 -34t-34 -14z" />
    <glyph glyph-name="alpha" unicode="&#x3b1;" horiz-adv-x="603" 
d="M458 484h77q-13 -153 -13 -335q0 -48 12.5 -69.5t40.5 -21.5l-6 -66q-14 -4 -35 -4q-37 0 -60.5 27t-27.5 83h-3q-62 -110 -186 -110q-95 0 -156 68t-61 177q0 113 70 188t166 75q59 0 103 -28.5t66 -76.5h4q2 52 9 93zM132 235v-1q0 -72 40 -123t109 -51q50 0 92.5 38.5
t56.5 89.5q5 20 5 64q0 31 -4 46q-12 53 -51 90.5t-92 37.5q-68 0 -112 -53.5t-44 -137.5z" />
    <glyph glyph-name="beta" unicode="&#x3b2;" horiz-adv-x="612" 
d="M168 58h-2v-68q0 -142 13 -190h-86q-16 43 -16 181v441q0 176 83 250q61 56 156 56q80 0 135 -47.5t55 -127.5q0 -52 -27.5 -95.5t-65.5 -61.5v-5q67 -12 113 -63t46 -130q0 -97 -67.5 -153.5t-159.5 -56.5q-110 0 -177 70zM166 431v-284q21 -34 63 -62t98 -28
q66 0 109.5 40t43.5 101q0 72 -48 110t-125 39h-31v60q12 0 19 1q60 2 93 40.5t33 87.5q0 58 -32 89.5t-82 31.5q-141 0 -141 -226z" />
    <glyph glyph-name="gamma" unicode="&#x3b3;" horiz-adv-x="506" 
d="M293 -200h-91q7 175 -15 269q-26 111 -84 229t-109 186h105q41 -52 91 -163t74 -215h3q129 202 129 347v31h87q2 -9 2 -33q0 -173 -189 -429q-6 -7 -6 -24q0 -2 3 -198z" />
    <glyph glyph-name="delta" unicode="&#x3b4;" horiz-adv-x="598" 
d="M509 678l-28 -61q-19 15 -61 29.5t-83 14.5q-45 0 -69 -13.5t-24 -33.5q0 -5 1 -9t3.5 -8.5t5 -8t7.5 -8t9 -8t11.5 -9t12.5 -9l15 -10.5t16 -11l89 -62q72 -50 108 -105.5t36 -127.5q0 -111 -74.5 -180.5t-184.5 -69.5q-108 0 -183.5 66.5t-75.5 181.5q0 87 55.5 151.5
t145.5 104.5v4l-26 19q-64 45 -64 96q0 46 48.5 81.5t135.5 35.5q53 0 101 -15t73 -35zM361 406l-64 45q-164 -77 -164 -215q0 -81 51.5 -131t120.5 -50q67 0 114.5 47.5t47.5 130.5q0 98 -106 173z" />
    <glyph glyph-name="epsilon" unicode="&#x3b5;" horiz-adv-x="478" 
d="M167 257v4q-50 11 -75.5 38.5t-25.5 64.5q0 53 54.5 92.5t152.5 39.5q104 0 166 -41l-20 -60q-19 13 -59.5 24.5t-78.5 11.5q-55 0 -89 -19.5t-34 -53.5t39 -51.5t103 -17.5h74v-64h-75q-74 0 -118 -20t-44 -60q0 -42 41 -65t101 -23q41 0 87 12.5t74 29.5l18 -60
q-31 -22 -86.5 -36.5t-111.5 -14.5q-90 0 -154.5 36t-64.5 112q0 44 34.5 78t91.5 43z" />
    <glyph glyph-name="zeta" unicode="&#x3b6;" horiz-adv-x="441" 
d="M371 -148l-58 18q8 14 19 53.5t12 59.5q-79 10 -128 26q-175 51 -175 230q0 106 69.5 216.5t194.5 189.5v4h-80q-88 0 -126 10l9 60q40 -6 129 -4h187l13 -64q-134 -63 -219 -175.5t-85 -222.5q0 -76 35 -116t101 -62q44 -16 153 -31q10 -2 10 -10q0 -43 -19.5 -98
t-41.5 -84z" />
    <glyph glyph-name="eta" unicode="&#x3b7;" horiz-adv-x="605" 
d="M162 398h3q21 40 67.5 69t108.5 29q29 0 58 -9.5t60 -31.5t50.5 -68t19.5 -110v-288q0 -146 12 -189h-88q-15 37 -15 189v280q0 69 -31 111t-96 42q-47 0 -82.5 -27.5t-50.5 -67.5q-7 -17 -7 -40v-287h-91v351q0 91 -14 133h82q16 -31 14 -86z" />
    <glyph glyph-name="theta" unicode="&#x3b8;" horiz-adv-x="585" 
d="M296 -12h-1q-121 0 -188 99t-67 276q0 96 27 177t87 134.5t145 53.5t142 -50.5t81 -130t24 -184.5t-24 -186.5t-82 -135t-144 -53.5zM131 402h324q0 112 -41.5 186t-120.5 74q-74 0 -118 -77.5t-44 -182.5zM456 336h-324q0 -131 46 -206.5t120 -75.5q77 0 117.5 77.5
t40.5 204.5z" />
    <glyph glyph-name="iota" unicode="&#x3b9;" horiz-adv-x="252" 
d="M171 484v-361q0 -36 10.5 -50t40.5 -13l-5 -66q-13 -6 -43 -6q-46 0 -70 27.5t-24 97.5v371h91z" />
    <glyph glyph-name="kappa" unicode="&#x3ba;" horiz-adv-x="534" 
d="M266 262v-4q62 -11 164 -133l100 -125h-108l-84 100q-48 56 -85 84t-73 29h-9v-213h-91v382q0 81 -12 102h89q14 -19 14 -81v-134h5q58 51 236 215h109v-4q-28 -24 -115.5 -99.5t-139.5 -118.5z" />
    <glyph glyph-name="lambda" unicode="&#x3bb;" horiz-adv-x="517" 
d="M402 0l-110 283q-17 40 -36 102h-5q-3 -13 -34 -99l-113 -286h-96l192 447q7 14 7 24q0 9 -6 25q-31 76 -62 117.5t-76 41.5q-13 0 -19 -1l9 70q16 4 36 4q68 0 111.5 -56t94.5 -179l206 -493h-99z" />
    <glyph glyph-name="uni03BC" unicode="&#x3bc;" horiz-adv-x="604" 
d="M444 83h-4q-21 -38 -60.5 -66t-95.5 -28q-86 0 -120 59v-56q0 -145 12 -192h-81q-15 44 -15 189v495h91v-275q0 -65 31 -105.5t93 -40.5q44 0 79 25t52 61q9 23 9 46v289h91v-341q0 -45 11 -63.5t40 -20.5l-7 -66q-20 -5 -32 -5q-38 0 -63.5 23.5t-30.5 71.5z" />
    <glyph glyph-name="nu" unicode="&#x3bd;" horiz-adv-x="514" 
d="M3 484h98l105 -271q11 -28 27.5 -72t21.5 -57h3q88 151 116 229q26 70 26 122q0 34 -1 49h86q4 -22 4 -37q0 -51 -15.5 -106t-49.5 -119.5t-60 -106.5t-75 -115h-88z" />
    <glyph glyph-name="xi" unicode="&#x3be;" horiz-adv-x="468" 
d="M389 442v-64h-30q-111 0 -167 -43.5t-56 -110.5q0 -60 41.5 -97t128.5 -58q58 -15 145 -24q10 0 10 -11q0 -39 -19.5 -96.5t-40.5 -84.5l-59 18q8 13 19 52.5t12 59.5q-35 4 -62.5 8.5t-64 13.5t-63.5 20t-55.5 29t-46.5 40.5t-29.5 53.5t-11.5 69q0 71 48 125.5
t118 71.5v4q-117 34 -117 141q0 66 58 117.5t165 51.5q85 0 136 -29l-20 -62q-44 26 -110 26q-65 0 -101.5 -32t-36.5 -80q0 -50 41.5 -78.5t108.5 -30.5h59z" />
    <glyph glyph-name="omicron" unicode="&#x3bf;" horiz-adv-x="604" 
d="M298 -12h-1q-111 0 -184.5 69.5t-73.5 179.5q0 116 75.5 187.5t190.5 71.5q116 0 187.5 -70.5t71.5 -177.5q0 -124 -79.5 -192t-186.5 -68zM299 55h1q72 0 121 51t49 138q0 72 -43 128.5t-124 56.5q-82 0 -126 -55t-44 -133q0 -84 48 -135t118 -51z" />
    <glyph glyph-name="pi" unicode="&#x3c0;" horiz-adv-x="606" 
d="M567 414h-73v-261q0 -101 14 -153h-89q-16 27 -16 142v272h-178q-5 -103 -27 -232.5t-47 -181.5h-88q27 69 49 192.5t25 221.5q-73 0 -111 -10l-12 54q42 26 147 26h417z" />
    <glyph glyph-name="rho" unicode="&#x3c1;" horiz-adv-x="619" 
d="M168 66h-3v-77q0 -146 8 -189h-88q-11 39 -11 189v199q0 89 20 140.5t56 88.5q73 79 187 79q109 0 175.5 -69t66.5 -176q0 -121 -71.5 -192t-172.5 -71q-117 0 -167 78zM165 219v-22q0 -18 4 -33q13 -43 55 -74.5t97 -31.5q76 0 121 52t45 137q0 75 -43 125t-116 50
q-66 0 -114.5 -52.5t-48.5 -150.5z" />
    <glyph glyph-name="uni03C2" unicode="&#x3c2;" horiz-adv-x="454" 
d="M446 471l-22 -65q-49 21 -104 21q-82 0 -134.5 -53.5t-52.5 -131.5q0 -71 39 -111.5t113 -59.5q58 -15 144 -26q10 -1 10 -16q0 -39 -19 -95t-38 -82l-61 18q8 14 19.5 53.5t12.5 58.5q-55 6 -108 19q-93 22 -149 79.5t-56 154.5q0 65 31 123.5t96.5 98t152.5 39.5
q79 0 126 -25z" />
    <glyph glyph-name="sigma" unicode="&#x3c3;" horiz-adv-x="611" 
d="M455 431l-1 -4q47 -29 73.5 -76.5t26.5 -104.5q0 -83 -39 -143.5t-96 -87.5t-122 -27q-111 0 -184.5 69t-73.5 179q0 118 76 189t202 71h111h59q105 0 113 1l-4 -69q-58 0 -141 3zM298 55h1q67 0 116 52t49 139q0 72 -42.5 127.5t-121.5 55.5q-80 0 -123.5 -55
t-43.5 -133q0 -84 48 -135t117 -51z" />
    <glyph glyph-name="tau" unicode="&#x3c4;" horiz-adv-x="450" 
d="M346 62l-4 -64q-17 -10 -52 -10q-61 0 -89.5 36t-28.5 118v272h-56q-70 0 -112 -7l-12 51q38 26 146 26h301l-11 -70h-165v-268q0 -85 61 -85q5 0 12 0.5t10 0.5z" />
    <glyph glyph-name="upsilon" unicode="&#x3c5;" horiz-adv-x="573" 
d="M400 484h86q14 -25 26 -78.5t12 -108.5q0 -45 -6.5 -86t-24 -82.5t-43.5 -72t-69 -49.5t-98 -19q-92 0 -151 53.5t-59 157.5v121q0 128 -11 164h86q16 -14 16 -88v-184q0 -76 37.5 -112.5t88.5 -36.5q69 0 106.5 60.5t37.5 167.5q0 60 -11.5 115.5t-22.5 77.5z" />
    <glyph glyph-name="phi" unicode="&#x3c6;" horiz-adv-x="693" 
d="M225 502l31 -53q-50 -26 -87.5 -76.5t-37.5 -124.5q0 -76 45 -129t130 -65v290q0 76 38 114.5t96 37.5q82 -2 147 -68.5t65 -171.5q0 -118 -76.5 -188t-185.5 -80v-188h-84v188q-112 7 -189 73t-77 186q0 96 58 163t127 92zM390 358v-305q80 11 127.5 63t47.5 139
q0 70 -39.5 123t-88.5 53q-22 0 -34.5 -19t-12.5 -54z" />
    <glyph glyph-name="chi" unicode="&#x3c7;" horiz-adv-x="497" 
d="M20 484h99l137 -262h4q7 13 26 49.5t32 60.5l79 152h90l-187 -326l195 -350l-86 -24l-161 299l-4 -1q-8 -14 -24.5 -46.5t-25.5 -49.5l-104 -202l-77 25l190 346z" />
    <glyph glyph-name="psi" unicode="&#x3c8;" horiz-adv-x="711" 
d="M324 -200v188q-249 12 -249 260v125q0 80 -9 111h84q14 -16 14 -88v-143q0 -101 45 -148.5t115 -50.5v566h84v-566q72 2 119 64t47 166q0 69 -13.5 126t-27.5 74h87q42 -62 42 -195q0 -53 -14 -102.5t-42 -94t-79.5 -73t-118.5 -31.5v-188h-84z" />
    <glyph glyph-name="omega" unicode="&#x3c9;" horiz-adv-x="752" 
d="M419 373l-3 -190q0 -54 26.5 -86.5t67.5 -32.5q45 0 79 52.5t34 146.5q0 68 -23.5 131t-60.5 96v2h87q37 -30 61.5 -91.5t24.5 -140.5q0 -132 -59 -202t-138 -70q-49 0 -86.5 23.5t-54.5 66.5h-3q-43 -90 -140 -90q-76 0 -133.5 66.5t-57.5 197.5q0 74 25.5 139t62.5 101
h85v-2q-37 -38 -60.5 -102t-23.5 -135q0 -95 35.5 -142t79.5 -47q37 0 63.5 33t25.5 84l-2 192h88z" />
    <glyph glyph-name="iotadieresis" unicode="&#x3ca;" horiz-adv-x="252" 
d="M32 557h-1q-22 0 -36 15.5t-14 36.5t15 36.5t37 15.5q21 0 35.5 -15t14.5 -37q0 -21 -14.5 -36.5t-36.5 -15.5zM225 557h-1q-21 0 -35 15.5t-14 36.5t15 36.5t36 15.5q22 0 36 -15t14 -37q0 -21 -14.5 -36.5t-36.5 -15.5zM171 484v-361q0 -36 10.5 -50t40.5 -13l-5 -66
q-13 -6 -43 -6q-46 0 -70 27.5t-24 97.5v371h91z" />
    <glyph glyph-name="upsilondieresis" unicode="&#x3cb;" horiz-adv-x="573" 
d="M186 557h-1q-22 0 -36.5 15.5t-14.5 36.5t15.5 36.5t37.5 15.5q21 0 35 -15t14 -37q0 -21 -14 -36.5t-36 -15.5zM378 557h-1q-21 0 -35 15.5t-14 36.5t15 36.5t36 15.5q22 0 36 -15t14 -37q0 -21 -14.5 -36.5t-36.5 -15.5zM400 484h86q14 -25 26 -78.5t12 -108.5
q0 -45 -6.5 -86t-24 -82.5t-43.5 -72t-69 -49.5t-98 -19q-92 0 -151 53.5t-59 157.5v121q0 128 -11 164h86q16 -14 16 -88v-184q0 -76 37.5 -112.5t88.5 -36.5q69 0 106.5 60.5t37.5 167.5q0 60 -11.5 115.5t-22.5 77.5z" />
    <glyph glyph-name="omicrontonos" unicode="&#x3cc;" horiz-adv-x="604" 
d="M320 690h96l-93 -146h-63zM298 -12h-1q-111 0 -184.5 69.5t-73.5 179.5q0 116 75.5 187.5t190.5 71.5q116 0 187.5 -70.5t71.5 -177.5q0 -124 -79.5 -192t-186.5 -68zM299 55h1q72 0 121 51t49 138q0 72 -43 128.5t-124 56.5q-82 0 -126 -55t-44 -133q0 -84 48 -135
t118 -51z" />
    <glyph glyph-name="upsilontonos" unicode="&#x3cd;" horiz-adv-x="573" 
d="M300 690h95l-92 -146h-63zM400 484h86q14 -25 26 -78.5t12 -108.5q0 -45 -6.5 -86t-24 -82.5t-43.5 -72t-69 -49.5t-98 -19q-92 0 -151 53.5t-59 157.5v121q0 128 -11 164h86q16 -14 16 -88v-184q0 -76 37.5 -112.5t88.5 -36.5q69 0 106.5 60.5t37.5 167.5
q0 60 -11.5 115.5t-22.5 77.5z" />
    <glyph glyph-name="omegatonos" unicode="&#x3ce;" horiz-adv-x="752" 
d="M390 690h96l-93 -146h-63zM419 373l-3 -190q0 -54 26.5 -86.5t67.5 -32.5q45 0 79 52.5t34 146.5q0 68 -23.5 131t-60.5 96v2h87q37 -30 61.5 -91.5t24.5 -140.5q0 -132 -59 -202t-138 -70q-49 0 -86.5 23.5t-54.5 66.5h-3q-43 -90 -140 -90q-76 0 -133.5 66.5
t-57.5 197.5q0 74 25.5 139t62.5 101h85v-2q-37 -38 -60.5 -102t-23.5 -135q0 -95 35.5 -142t79.5 -47q37 0 63.5 33t25.5 84l-2 192h88z" />
    <glyph glyph-name="afii10023" unicode="&#x401;" horiz-adv-x="537" 
d="M464 389v-74h-292v-241h326v-74h-417v674h400v-74h-309v-211h292zM181 720h-1q-22 0 -36 15.5t-14 36.5t15 36.5t37 15.5q21 0 35 -15t14 -37q0 -21 -14 -36.5t-36 -15.5zM374 720h-1q-21 0 -35 15.5t-14 36.5t15 36.5t36 15.5q22 0 36 -15t14 -37q0 -21 -14.5 -36.5
t-36.5 -15.5z" />
    <glyph glyph-name="afii10051" unicode="&#x402;" horiz-adv-x="724" 
d="M-6 674h571v-74h-272v-192h3q72 46 154 46q108 0 173 -80q58 -72 58 -192q0 -82 -28 -148t-77 -103q-59 -62 -149 -73l-14 69q81 20 121 70q52 63 52 173q0 95 -38 148q-46 62 -122 62q-73 0 -133 -46v-334h-91v600h-208v74z" />
    <glyph glyph-name="afii10052" unicode="&#x403;" horiz-adv-x="465" 
d="M81 674h390v-74h-299v-600h-91v674zM304 830h111l-128 -120h-75z" />
    <glyph glyph-name="afii10053" unicode="&#x404;" horiz-adv-x="640" 
d="M606 650l-22 -69q-68 32 -156 32q-121 0 -199 -63t-92 -171h393v-70h-393q4 -112 83.5 -179.5t204.5 -67.5q87 0 160 31l16 -68q-70 -37 -196 -37q-158 0 -262.5 91.5t-104.5 255.5q0 153 107.5 252t278.5 99q118 0 182 -36z" />
    <glyph glyph-name="afii10054" unicode="&#x405;" horiz-adv-x="537" 
d="M46 36l25 75q77 -49 175 -49q70 0 110.5 31.5t40.5 83.5q0 48 -31.5 77.5t-108.5 53.5q-100 31 -148 76.5t-48 116.5q0 81 64.5 133t167.5 52t167 -36l-26 -72q-62 35 -143 35q-70 0 -104 -31t-34 -71q0 -45 33.5 -73.5t112.5 -53.5q98 -32 144 -77.5t46 -122.5
q0 -82 -63.5 -139t-188.5 -57q-52 0 -106 13.5t-85 34.5z" />
    <glyph glyph-name="afii10055" unicode="&#x406;" horiz-adv-x="253" 
d="M81 674h91v-674h-91v674z" />
    <glyph glyph-name="afii10056" unicode="&#x407;" horiz-adv-x="253" 
d="M81 674h91v-674h-91v674zM31 720h-1q-22 0 -36 15.5t-14 36.5t15 36.5t37 15.5q21 0 35 -15t14 -37q0 -21 -14 -36.5t-36 -15.5zM224 720h-1q-21 0 -35 15.5t-14 36.5t15 36.5t36 15.5q22 0 36 -15t14 -37q0 -21 -14.5 -36.5t-36.5 -15.5z" />
    <glyph glyph-name="afii10057" unicode="&#x408;" horiz-adv-x="405" 
d="M240 244v430h91v-439q0 -247 -219 -247q-60 0 -108 19l15 73q37 -16 86 -16q68 0 101.5 40t33.5 140z" />
    <glyph glyph-name="afii10058" unicode="&#x409;" horiz-adv-x="963" 
d="M139 674h411v-249q37 5 93 5q54 0 101.5 -11.5t88 -35.5t64 -66t23.5 -99q0 -91 -59 -147q-79 -78 -255 -78q-62 0 -147 8v599h-231v-196q0 -63 -3 -109t-12.5 -102.5t-32.5 -98.5t-59 -66q-57 -36 -115 -36l-12 72q49 8 84 42q61 60 61 292v276zM550 356v-289
q31 -4 81 -4q82 0 138.5 38t56.5 114q0 78 -55.5 112t-140.5 34q-38 0 -80 -5z" />
    <glyph glyph-name="afii10059" unicode="&#x40a;" horiz-adv-x="973" 
d="M81 674h91v-265h297v265h91v-260q38 5 107 5q52 0 98 -11.5t83.5 -34.5t59.5 -63.5t22 -93.5q0 -92 -59 -148q-78 -75 -253 -75q-64 0 -149 8v332h-297v-333h-91v674zM560 345v-278q38 -5 81 -5q83 0 139 36.5t56 114.5q0 72 -53.5 104.5t-135.5 32.5q-52 0 -87 -5z" />
    <glyph glyph-name="afii10060" unicode="&#x40b;" horiz-adv-x="733" 
d="M-7 674h561v-74h-264v-189h3q84 49 168 49q85 0 135 -48q59 -56 59 -166v-246h-91v233q0 79 -36 118q-37 35 -95 35q-35 0 -75 -13.5t-68 -33.5v-339h-91v600h-206v74z" />
    <glyph glyph-name="afii10061" unicode="&#x40c;" horiz-adv-x="592" 
d="M81 674h91v-297h31l260 297h111l-284 -307q84 -10 129.5 -52.5t79.5 -121.5q8 -18 21 -50.5t20.5 -51.5t19.5 -44.5t23 -46.5h-99q-24 42 -68 156q-31 76 -77 114t-134 38h-33v-308h-91v674zM343 825h111l-128 -120h-75z" />
    <glyph glyph-name="afii10062" unicode="&#x40e;" horiz-adv-x="572" 
d="M1 674h105l151 -293q23 -48 55 -120h2q8 20 24 62t23 60l121 291h96l-161 -363q-79 -181 -137 -246q-69 -78 -161 -78q-34 0 -53 7l10 73q12 -3 36 -3q86 1 141 112q10 18 -3 41zM153 825h71q2 -19 6.5 -31.5t18.5 -22.5t37 -10q33 0 46 16.5t17 47.5h70
q-2 -52 -36 -81.5t-100 -29.5q-122 0 -130 111z" />
    <glyph glyph-name="afii10145" unicode="&#x40f;" horiz-adv-x="694" 
d="M81 674h91v-600h352v600h91v-674h-221l-8 -185h-76l-8 185h-221v674z" />
    <glyph glyph-name="afii10017" unicode="&#x410;" horiz-adv-x="671" 
d="M469 215h-269l-78 -215h-95l254 674h111l257 -674h-99zM220 285h229l-77 202q-16 43 -38 113h-2q-19 -68 -35 -112z" />
    <glyph glyph-name="afii10018" unicode="&#x411;" horiz-adv-x="588" 
d="M81 674h409v-74h-318v-175q37 5 94 5q109 0 183 -42q96 -54 96 -171q0 -89 -58 -147q-82 -77 -258 -77q-63 0 -148 8v673zM172 356v-289q37 -5 84 -5q101 0 155 54q39 37 39 99q0 78 -62 114q-49 32 -137 32q-37 0 -79 -5z" />
    <glyph glyph-name="afii10019" unicode="&#x412;" horiz-adv-x="585" 
d="M81 1v664q77 15 175 15q134 0 197 -49q60 -45 60 -121q0 -49 -32 -89t-86 -58v-3q55 -13 99.5 -55t44.5 -114q0 -81 -61 -135q-72 -63 -250 -63q-62 0 -147 8zM172 604v-215h94q74 0 114.5 31t40.5 81q0 110 -159 110q-62 0 -90 -7zM172 321v-254q25 -5 84 -5
q81 0 134 30.5t53 100.5q0 65 -51.5 96.5t-134.5 31.5h-85z" />
    <glyph glyph-name="afii10020" unicode="&#x413;" horiz-adv-x="465" 
d="M81 674h390v-74h-299v-600h-91v674z" />
    <glyph glyph-name="afii10021" unicode="&#x414;" horiz-adv-x="682" 
d="M170 674h412v-602l64 -2l-6 -240h-71l-7 170h-467l-6 -170h-71l-6 240l53 2q54 93 69 137q36 104 36 287v178zM255 600v-135q0 -171 -39 -278q-20 -54 -58 -114h333v527h-236z" />
    <glyph glyph-name="afii10022" unicode="&#x415;" horiz-adv-x="537" 
d="M464 389v-74h-292v-241h326v-74h-417v674h400v-74h-309v-211h292z" />
    <glyph glyph-name="afii10024" unicode="&#x416;" horiz-adv-x="872" 
d="M24 674h107l230 -297h31v297h89v-297h31l230 297h107l-261 -309q79 -6 122.5 -47.5t75.5 -123.5q9 -22 33 -90t41 -104h-93q-12 21 -22 46.5t-22 61t-17 49.5q-31 80 -70 115.5t-119 35.5h-36v-308h-89v308h-37q-56 0 -92.5 -19t-56.5 -48.5t-41 -83.5q-46 -131 -59 -157
h-94q18 37 44 107.5t31 84.5q32 82 75 123t122 50z" />
    <glyph glyph-name="afii10025" unicode="&#x417;" horiz-adv-x="529" 
d="M83 567l-26 65q88 54 192 54q93 0 151 -44t58 -122q0 -63 -41.5 -108t-104.5 -58v-2q76 -7 124.5 -51t48.5 -116q0 -52 -22.5 -92t-60.5 -62t-82 -32.5t-93 -10.5q-112 0 -192 47l25 70q78 -44 166 -44q77 0 120 35.5t43 92.5q0 49 -32 79t-71.5 39t-89.5 9h-46v68h47
q71 0 118.5 35.5t47.5 87.5q0 51 -34.5 78.5t-91.5 27.5q-77 0 -154 -46z" />
    <glyph glyph-name="afii10026" unicode="&#x418;" horiz-adv-x="722" 
d="M81 674h86v-298q0 -178 -7 -278l2 -1q42 77 137 219l250 358h92v-674h-86v305q0 163 8 259l-3 1q-46 -89 -140 -226l-239 -339h-100v674z" />
    <glyph glyph-name="afii10027" unicode="&#x419;" horiz-adv-x="722" 
d="M81 674h86v-298q0 -178 -7 -278l2 -1q42 77 137 219l250 358h92v-674h-86v305q0 163 8 259l-3 1q-46 -89 -140 -226l-239 -339h-100v674zM228 822h71q2 -19 6.5 -31.5t18.5 -22.5t37 -10q33 0 46 16.5t17 47.5h70q-2 -52 -36 -81.5t-100 -29.5q-122 0 -130 111z" />
    <glyph glyph-name="afii10028" unicode="&#x41a;" horiz-adv-x="592" 
d="M81 674h91v-297h31l260 297h111l-284 -307q84 -10 129.5 -52.5t79.5 -121.5q8 -18 21 -50.5t20.5 -51.5t19.5 -44.5t23 -46.5h-99q-24 42 -68 156q-31 76 -77 114t-134 38h-33v-308h-91v674z" />
    <glyph glyph-name="afii10029" unicode="&#x41b;" horiz-adv-x="649" 
d="M136 674h432v-674h-91v600h-250v-196q0 -64 -3 -109.5t-13 -102.5t-33 -98.5t-59 -65.5q-54 -36 -117 -36l-9 72q48 8 82 42q61 61 61 292v276z" />
    <glyph glyph-name="afii10030" unicode="&#x41c;" horiz-adv-x="872" 
d="M720 0l-17 298q-12 228 -12 299h-2q-38 -116 -96 -262l-130 -331h-72l-120 327q-53 150 -84 266h-2q-13 -278 -15 -306l-20 -291h-87l49 674h121l126 -333q40 -106 73 -225h2q30 103 79 226l134 332h120l43 -674h-90z" />
    <glyph glyph-name="afii10031" unicode="&#x41d;" horiz-adv-x="715" 
d="M81 674h91v-280h371v280h91v-674h-91v317h-371v-317h-91v674z" />
    <glyph glyph-name="afii10032" unicode="&#x41e;" horiz-adv-x="770" 
d="M380 -12h-1q-150 0 -245.5 96.5t-95.5 244.5q0 157 99 257t251 100q153 0 248 -96.5t95 -245.5q0 -163 -101 -259.5t-250 -96.5zM383 60h1q114 0 182.5 79t68.5 201q0 111 -66.5 192.5t-182.5 81.5q-119 0 -185.5 -81t-66.5 -201q0 -114 68.5 -193t180.5 -79z" />
    <glyph glyph-name="afii10033" unicode="&#x41f;" horiz-adv-x="699" 
d="M81 674h537v-674h-91v600h-355v-600h-91v674z" />
    <glyph glyph-name="afii10034" unicode="&#x420;" horiz-adv-x="576" 
d="M81 0v666q80 14 186 14q134 0 202 -58q63 -55 63 -142q0 -93 -56 -147q-76 -73 -222 -73q-56 0 -82 8v-268h-91zM172 602v-261q30 -9 86 -9q87 0 135 37.5t48 106.5q0 68 -47.5 100.5t-126.5 32.5q-55 0 -95 -7z" />
    <glyph glyph-name="afii10035" unicode="&#x421;" horiz-adv-x="648" 
d="M592 96l19 -71q-76 -37 -205 -37q-161 0 -264.5 92t-103.5 252q0 150 106.5 252t283.5 102q117 0 185 -34l-23 -72q-68 32 -158 32q-139 0 -218.5 -76t-79.5 -203q0 -118 76.5 -193.5t214.5 -75.5q100 0 167 32z" />
    <glyph glyph-name="afii10036" unicode="&#x422;" horiz-adv-x="544" 
d="M226 0v600h-233v74h558v-74h-234v-600h-91z" />
    <glyph glyph-name="afii10037" unicode="&#x423;" horiz-adv-x="572" 
d="M1 674h105l151 -293q23 -48 55 -120h2q8 20 24 62t23 60l121 291h96l-161 -363q-79 -181 -137 -246q-69 -78 -161 -78q-34 0 -53 7l10 73q12 -3 36 -3q86 1 141 112q10 18 -3 41z" />
    <glyph glyph-name="afii10038" unicode="&#x424;" horiz-adv-x="798" 
d="M356 704h88v-63q61 -2 115 -20t100.5 -52.5t73.5 -94.5t27 -138q0 -75 -26.5 -132.5t-72.5 -92.5t-101 -53.5t-118 -22.5v-65h-88v65q-62 3 -116 21t-100 51.5t-73 91.5t-27 133q0 64 19.5 116.5t51 86.5t74 58t85.5 35t88 13v63zM355 100v477q-40 -2 -77 -15t-71 -40
t-54.5 -74.5t-20.5 -110.5q0 -112 64 -170.5t159 -66.5zM443 577v-477q92 5 157.5 63.5t65.5 172.5q0 121 -64 179t-159 62z" />
    <glyph glyph-name="afii10039" unicode="&#x425;" horiz-adv-x="631" 
d="M602 0h-108l-95 145q-64 96 -89 138h-2q-21 -40 -84 -139l-88 -144h-108l229 341l-220 333h108l99 -159q38 -61 70 -116h2q23 40 70 115l103 160h109l-230 -329z" />
    <glyph glyph-name="afii10040" unicode="&#x426;" horiz-adv-x="713" 
d="M81 674h91v-600h351v600h91v-602l64 -2l-6 -240h-72l-6 170h-513v674z" />
    <glyph glyph-name="afii10041" unicode="&#x427;" horiz-adv-x="651" 
d="M76 674h91v-211q0 -76 41 -115t119 -39q82 0 152 44v321h91v-678h-91v287h-2q-78 -48 -182 -48q-30 0 -57.5 4.5t-58 19t-52.5 37t-36.5 62.5t-14.5 92v224z" />
    <glyph glyph-name="afii10042" unicode="&#x428;" horiz-adv-x="919" 
d="M81 674h90v-600h244v600h90v-600h243v600h90v-674h-757v674z" />
    <glyph glyph-name="afii10043" unicode="&#x429;" horiz-adv-x="938" 
d="M81 674h90v-600h244v600h90v-600h243v600h90v-602l64 -2l-6 -240h-72l-6 170h-737v674z" />
    <glyph glyph-name="afii10044" unicode="&#x42a;" horiz-adv-x="671" 
d="M-8 674h275v-246q35 5 90 5q52 0 98.5 -12t86 -36t62.5 -67t23 -99q0 -88 -53 -144q-79 -82 -253 -82q-60 0 -145 8v599h-184v74zM267 357v-290q35 -5 79 -5q81 0 133.5 38t52.5 115q0 78 -53.5 112.5t-131.5 34.5q-40 0 -80 -5z" />
    <glyph glyph-name="afii10045" unicode="&#x42b;" horiz-adv-x="800" 
d="M81 674h91v-247q32 6 91 6q120 0 199.5 -52t79.5 -163q0 -87 -53 -143q-79 -82 -260 -82q-63 0 -148 8v673zM172 357v-290q33 -5 81 -5q83 0 138.5 38.5t55.5 115.5t-57 111.5t-139 34.5q-51 0 -79 -5zM622 674h91v-674h-91v674z" />
    <glyph glyph-name="afii10046" unicode="&#x42c;" horiz-adv-x="588" 
d="M81 674h91v-247q33 6 94 6q119 0 199 -52t80 -162q0 -88 -53 -144q-79 -82 -263 -82q-63 0 -148 8v673zM172 357v-290q37 -5 83 -5q84 0 139.5 37.5t55.5 115.5t-55.5 112.5t-140.5 34.5q-40 0 -82 -5z" />
    <glyph glyph-name="afii10047" unicode="&#x42d;" horiz-adv-x="628" 
d="M141 309v70h350q-11 109 -79.5 171.5t-177.5 62.5q-79 0 -169 -39l-21 68q103 44 195 44q163 0 257 -96t94 -255q0 -86 -29.5 -154t-79.5 -109t-112.5 -62.5t-132.5 -21.5q-111 0 -201 38l19 72q79 -36 168 -36q117 0 191 66.5t79 180.5h-351z" />
    <glyph glyph-name="afii10048" unicode="&#x42e;" horiz-adv-x="954" 
d="M81 674h91v-291h109q15 139 100.5 221t218.5 82q146 0 231.5 -95.5t85.5 -245.5q0 -166 -92.5 -261.5t-231.5 -95.5q-137 0 -223 88.5t-92 231.5h-106v-308h-91v674zM595 59h1q104 0 166 79.5t62 202.5q0 71 -24 131.5t-77 101.5t-125 41q-109 0 -169.5 -81.5
t-60.5 -201.5q0 -114 62.5 -193.5t164.5 -79.5z" />
    <glyph glyph-name="afii10049" unicode="&#x42f;" horiz-adv-x="589" 
d="M114 0h-98q17 26 29 58q7 18 23 59.5t25.5 65t27.5 53.5t38 50q26 25 59 35v3q-69 8 -115 53.5t-46 112.5q0 84 60 134q70 56 212 56q99 0 179 -15v-665h-91v291h-77q-67 0 -102 -34q-23 -22 -40 -55.5t-36.5 -88.5t-24.5 -67q-12 -27 -23 -46zM417 361v241q-36 9 -97 9
q-172 0 -172 -125q0 -59 50 -92.5t130 -34.5q70 0 89 2z" />
    <glyph glyph-name="afii10065" unicode="&#x430;" horiz-adv-x="522" 
d="M448 289v-171q0 -73 8 -118h-83l-8 64h-3q-24 -31 -67.5 -53.5t-97.5 -22.5q-76 0 -117.5 42t-41.5 97q0 88 81 135.5t238 46.5v9q0 16 -3.5 31t-14.5 35.5t-37.5 33t-65.5 12.5q-82 0 -141 -40l-22 60q72 46 176 46q59 0 100.5 -18.5t61.5 -51t28.5 -65.5t8.5 -72z
M359 167v79q-228 6 -228 -107q0 -40 25.5 -62t64.5 -22q50 0 84.5 25t48.5 59q5 11 5 28z" />
    <glyph glyph-name="afii10066" unicode="&#x431;" horiz-adv-x="574" 
d="M483 727l-4 -74q-34 -13 -105 -22q-140 -19 -197 -94q-51 -64 -61 -171h3q27 58 78 88t110 30q101 0 164.5 -64.5t63.5 -175.5q0 -117 -64.5 -186.5t-181.5 -69.5q-66 0 -115 27.5t-77.5 75t-42 105.5t-13.5 126q0 165 84 265q38 49 94 75t139 39q82 12 125 26zM442 238
v1q0 71 -37 125.5t-116 54.5q-82 0 -123 -71q-27 -43 -27 -102q0 -74 40.5 -133t111.5 -59q76 0 113.5 52.5t37.5 131.5z" />
    <glyph glyph-name="afii10067" unicode="&#x432;" horiz-adv-x="535" 
d="M76 0v478q79 11 169 11q227 0 227 -122q0 -43 -29 -71t-73 -37v-2q56 -7 90.5 -37t34.5 -82q0 -143 -270 -143q-4 0 -149 5zM164 422v-141h76q141 0 141 75q0 70 -139 70q-21 0 -48 -2t-30 -2zM163 223v-163q45 -3 81 -3q157 0 157 83q0 49 -42.5 66t-120.5 17h-75z" />
    <glyph glyph-name="afii10068" unicode="&#x433;" horiz-adv-x="416" 
d="M76 484h322v-72h-231v-412h-91v484z" />
    <glyph glyph-name="afii10069" unicode="&#x434;" horiz-adv-x="568" 
d="M132 484h348v-416l53 -1l-6 -229h-71l-4 162h-363l-4 -162h-72l-4 228l44 2q34 50 49 97q30 90 30 198v121zM212 415v-82q0 -91 -26 -176q-9 -31 -39 -88h244v346h-179z" />
    <glyph glyph-name="afii10070" unicode="&#x435;" horiz-adv-x="547" 
d="M504 223h-377q1 -79 52.5 -121.5t130.5 -42.5q85 0 152 27l16 -65q-81 -33 -180 -33q-119 0 -189 67.5t-70 177.5q0 111 68 187t182 76q51 0 90.5 -16.5t63 -41.5t39 -57.5t21 -61t5.5 -56.5t-4 -40zM128 288h292q0 19 -5 40.5t-18 46.5t-43 41t-72 16
q-70 0 -108.5 -44.5t-45.5 -99.5z" />
    <glyph glyph-name="afii10072" unicode="&#x436;" horiz-adv-x="711" 
d="M14 484h106l174 -210h18v210h88v-210h17l175 210h105l-206 -219q109 -8 157 -127q5 -12 25 -63t33 -75h-92q-11 19 -49 113q-23 55 -58.5 77t-89.5 22h-17v-212h-88v212h-18q-55 0 -90.5 -21.5t-59.5 -77.5q-33 -85 -49 -113h-90q10 18 19.5 41t21 53t17.5 44
q27 62 64 92.5t94 34.5z" />
    <glyph glyph-name="afii10073" unicode="&#x437;" horiz-adv-x="463" 
d="M123 221v61h47q60 0 96 22t36 55q0 31 -28 51t-72 20q-66 0 -127 -38l-23 56q78 47 173 47q41 0 78 -10.5t67 -41t30 -77.5q0 -42 -34.5 -71.5t-78.5 -37.5v-2q58 -5 97 -37t39 -84q0 -74 -64 -109.5t-155 -35.5q-95 0 -171 43l25 61q63 -35 140 -37q56 0 89.5 23
t33.5 60q0 82 -150 82h-48z" />
    <glyph glyph-name="afii10074" unicode="&#x438;" horiz-adv-x="604" 
d="M76 484h88v-217q0 -69 -5 -181l3 -1q47 82 80 135l175 264h110v-484h-88v221q0 67 6 185h-3q-43 -76 -88 -145q-24 -36 -81 -124.5t-88 -136.5h-109v484z" />
    <glyph glyph-name="afii10075" unicode="&#x439;" horiz-adv-x="604" 
d="M76 484h88v-217q0 -69 -5 -181l3 -1q47 82 80 135l175 264h110v-484h-88v221q0 67 6 185h-3q-43 -76 -88 -145q-24 -36 -81 -124.5t-88 -136.5h-109v484zM167 685h67q2 -34 19 -56.5t47 -22.5q32 0 49.5 22t20.5 57h67q-2 -61 -39.5 -94.5t-99.5 -33.5q-67 0 -97.5 36.5
t-33.5 91.5z" />
    <glyph glyph-name="afii10076" unicode="&#x43a;" horiz-adv-x="517" 
d="M80 484h91v-210h24l200 210h114l-231 -219q60 -5 102 -41.5t77 -108.5q42 -94 55 -115h-96q-19 27 -49 95q-29 62 -70 89.5t-106 27.5h-20v-212h-91v484z" />
    <glyph glyph-name="afii10077" unicode="&#x43b;" horiz-adv-x="548" 
d="M109 484h363v-484h-91v413h-186v-113q0 -110 -15.5 -174.5t-58.5 -94.5q-42 -37 -111 -37l-7 72q33 6 50 19q35 24 45.5 72t10.5 144v183z" />
    <glyph glyph-name="afii10078" unicode="&#x43c;" horiz-adv-x="673" 
d="M43 0l38 484h113l96 -254q22 -59 44 -126h2q22 69 63 170l83 210h114l34 -484h-87l-12 239q-1 24 -4.5 81t-4.5 82h-3q-14 -42 -56 -147l-102 -252h-65l-94 248q-5 13 -49 149h-4q-1 -29 -3.5 -89.5t-3.5 -72.5l-14 -238h-85z" />
    <glyph glyph-name="afii10079" unicode="&#x43d;" horiz-adv-x="593" 
d="M76 484h91v-192h258v192h91v-484h-91v221h-258v-221h-91v484z" />
    <glyph glyph-name="afii10080" unicode="&#x43e;" horiz-adv-x="604" 
d="M298 -12h-1q-111 0 -184.5 69.5t-73.5 179.5q0 116 75.5 187.5t190.5 71.5q116 0 187.5 -70.5t71.5 -177.5q0 -124 -79.5 -192t-186.5 -68zM299 55h1q72 0 121 51t49 138q0 72 -43 128.5t-124 56.5q-82 0 -126 -55t-44 -133q0 -84 48 -135t118 -51z" />
    <glyph glyph-name="afii10081" unicode="&#x43f;" horiz-adv-x="589" 
d="M76 484h436v-484h-91v413h-254v-413h-91v484z" />
    <glyph glyph-name="afii10082" unicode="&#x440;" horiz-adv-x="626" 
d="M80 -200v524q0 93 -4 160h82l5 -89h2q63 101 194 101q97 0 162 -69.5t65 -175.5q0 -124 -71 -193.5t-172 -69.5q-55 0 -100 21.5t-70 61.5h-2v-271h-91zM171 273v-70q0 -19 4 -34q13 -46 54.5 -78.5t96.5 -32.5q77 0 122.5 51t45.5 138q0 75 -44 126.5t-119 51.5
q-53 0 -95.5 -31t-57.5 -85q-7 -19 -7 -36z" />
    <glyph glyph-name="afii10083" unicode="&#x441;" horiz-adv-x="496" 
d="M445 88l16 -69q-70 -31 -158 -31q-119 0 -191 69.5t-72 178.5q0 115 78 187.5t205 72.5q84 0 140 -29l-21 -69q-50 26 -119 26q-88 0 -139 -51.5t-51 -130.5q0 -82 53 -131.5t134 -49.5q62 0 125 27z" />
    <glyph glyph-name="afii10084" unicode="&#x442;" horiz-adv-x="442" 
d="M11 484h419v-71h-164v-413h-91v413h-164v71z" />
    <glyph glyph-name="afii10085" unicode="&#x443;" horiz-adv-x="513" 
d="M8 484h101l119 -289q18 -45 35 -98h2q33 95 35 101l108 286h99l-150 -356q-55 -134 -95 -200t-86 -100q-57 -43 -115 -51l-19 76q41 9 80 37q51 35 83 104q7 11 7 20q0 10 -7 24z" />
    <glyph glyph-name="afii10086" unicode="&#x444;" horiz-adv-x="696" 
d="M306 716h86l-1 -222q118 -8 191.5 -74.5t73.5 -175.5q0 -115 -75 -181t-190 -73l1 -190h-86l1 189q-118 6 -192.5 72.5t-74.5 175.5q0 117 75 183.5t192 73.5zM307 52v380q-79 -8 -127.5 -60t-48.5 -131q0 -78 49 -129.5t127 -59.5zM391 432v-380q77 8 125.5 61t48.5 131
q0 79 -48 129.5t-126 58.5z" />
    <glyph glyph-name="afii10087" unicode="&#x445;" horiz-adv-x="505" 
d="M16 484h103l78 -104q24 -31 55 -76h2q16 24 54 78l75 102h102l-182 -232l188 -252h-105l-80 108q-5 7 -58 85h-2q-12 -19 -58 -85l-78 -108h-103l191 248z" />
    <glyph glyph-name="afii10088" unicode="&#x446;" horiz-adv-x="596" 
d="M76 484h91v-413h251v413h91v-416l53 -1l-6 -229h-71l-4 162h-405v484z" />
    <glyph glyph-name="afii10089" unicode="&#x447;" horiz-adv-x="555" 
d="M71 484h91v-156q0 -52 25.5 -80t85.5 -28q66 0 115 37v227h91v-492h-91v201h-1q-63 -40 -145 -40q-77 0 -124 40.5t-47 124.5v166z" />
    <glyph glyph-name="afii10090" unicode="&#x448;" horiz-adv-x="787" 
d="M76 484h91v-413h181v413h91v-413h181v413h91v-484h-635v484z" />
    <glyph glyph-name="afii10091" unicode="&#x449;" horiz-adv-x="799" 
d="M76 484h91v-413h181v413h91v-413h181v413h91v-416l53 -1l-6 -229h-71l-4 162h-607v484z" />
    <glyph glyph-name="afii10092" unicode="&#x44a;" horiz-adv-x="617" 
d="M15 484h243v-161q31 5 95 5q41 0 78 -8t71.5 -25.5t55 -51.5t20.5 -81q0 -69 -50 -109q-67 -58 -222 -58q-23 0 -140 6v412h-151v71zM257 258v-195q38 -4 75 -4q155 0 155 101q0 104 -158 104q-24 0 -72 -6z" />
    <glyph glyph-name="afii10093" unicode="&#x44b;" horiz-adv-x="711" 
d="M76 484h92v-163q37 7 89 7q59 0 106.5 -14.5t81.5 -52.5t34 -97q0 -68 -50 -110q-69 -59 -212 -59q-24 0 -141 6v483zM167 258v-195q38 -4 70 -4q63 0 107 24t44 78q0 56 -42 79.5t-103 23.5q-34 0 -76 -6zM543 484h91v-484h-91v484z" />
    <glyph glyph-name="afii10094" unicode="&#x44c;" horiz-adv-x="534" 
d="M76 484h92v-162q32 6 91 6q237 0 237 -165q0 -67 -50 -109q-69 -59 -229 -59q-24 0 -141 6v483zM167 259v-196q38 -4 75 -4q28 0 54 4.5t52 15t41.5 31.5t15.5 51q0 31 -16 53t-42.5 32t-52 14t-54.5 4q-33 0 -73 -5z" />
    <glyph glyph-name="afii10095" unicode="&#x44d;" horiz-adv-x="510" 
d="M107 215v62h270q-7 68 -53.5 109t-130.5 41q-68 0 -132 -32l-22 59q79 42 169 42q119 0 190 -67q72 -69 72 -191q0 -110 -74.5 -180t-202.5 -70q-90 0 -161 38l19 64q68 -30 138 -30q80 0 130 41.5t57 113.5h-269z" />
    <glyph glyph-name="afii10096" unicode="&#x44e;" horiz-adv-x="765" 
d="M76 484h90v-204h91q12 94 76 155t160 61q104 0 168 -69.5t64 -178.5q0 -112 -67 -186t-172 -74q-96 0 -159.5 61.5t-71.5 161.5h-89v-211h-90v484zM488 54h1q68 0 106.5 56t38.5 135q0 76 -38.5 130t-105.5 54t-107 -54t-40 -137q0 -77 39 -130.5t106 -53.5z" />
    <glyph glyph-name="afii10097" unicode="&#x44f;" horiz-adv-x="535" 
d="M459 479v-479h-91v202h-79q-52 0 -84 -29q-17 -13 -29.5 -34t-25.5 -54.5t-18 -43.5q-10 -22 -22 -41h-98q15 21 32 56q6 11 20 47t28.5 59.5t35.5 39.5q24 20 53 26v2q-54 5 -94.5 36.5t-40.5 84.5q0 71 68 107q59 32 172 32q87 0 173 -11zM368 264v160q-50 6 -86 6
t-65 -6t-52.5 -26t-23.5 -52q0 -42 44 -62.5t93 -20.5q25 0 52.5 0.5t37.5 0.5z" />
    <glyph glyph-name="afii10071" unicode="&#x451;" horiz-adv-x="547" 
d="M504 223h-377q1 -79 52.5 -121.5t130.5 -42.5q85 0 152 27l16 -65q-81 -33 -180 -33q-119 0 -189 67.5t-70 177.5q0 111 68 187t182 76q51 0 90.5 -16.5t63 -41.5t39 -57.5t21 -61t5.5 -56.5t-4 -40zM128 288h292q0 19 -5 40.5t-18 46.5t-43 41t-72 16
q-70 0 -108.5 -44.5t-45.5 -99.5zM195 571h-1q-22 0 -36.5 15.5t-14.5 37.5t15.5 37.5t37.5 15.5q21 0 35.5 -15.5t14.5 -37.5t-14 -37.5t-37 -15.5zM390 571h-2q-22 0 -36 15.5t-14 37.5t15 37.5t37 15.5t36.5 -15.5t14.5 -37.5t-14 -37.5t-37 -15.5z" />
    <glyph glyph-name="afii10099" unicode="&#x452;" horiz-adv-x="604" 
d="M6 628h92v88h91v-88h243v-66h-243v-145h2q71 73 163 73t148 -79q61 -83 61 -219q0 -102 -29 -177t-80 -112q-57 -47 -133 -54l-16 71q67 14 103 51q63 68 63 215q0 110 -44 175q-37 56 -101 56q-68 0 -124 -66q-13 -16 -13 -46v-305h-91v562h-92v66z" />
    <glyph glyph-name="afii10100" unicode="&#x453;" horiz-adv-x="416" 
d="M76 484h322v-72h-231v-412h-91v484zM267 697h103l-128 -146h-66z" />
    <glyph glyph-name="afii10101" unicode="&#x454;" horiz-adv-x="503" 
d="M470 461l-22 -65q-62 31 -125 31q-82 0 -131 -41t-58 -109h269v-62h-268q7 -71 57.5 -113t127.5 -42q66 0 132 28l18 -65q-70 -35 -164 -35q-122 0 -194 69t-72 179q0 121 81 190.5t204 69.5q80 0 145 -35z" />
    <glyph glyph-name="afii10102" unicode="&#x455;" horiz-adv-x="432" 
d="M45 24l22 68q62 -37 130 -37q51 0 76 20.5t25 52.5t-22.5 51t-76.5 35q-139 42 -139 137q0 61 48.5 103t130.5 42q77 0 129 -32l-22 -66q-49 31 -111 31q-41 0 -63.5 -19t-22.5 -49t23.5 -47t78.5 -35q71 -23 103.5 -56.5t32.5 -88.5q0 -64 -51 -105t-142 -41
q-84 0 -149 36z" />
    <glyph glyph-name="afii10103" unicode="&#x456;" horiz-adv-x="250" 
d="M171 0h-91v484h91v-484zM125 568h-1q-25 0 -40.5 16.5t-15.5 39.5t16 39.5t42 16.5q25 0 41 -16t16 -40q0 -23 -16 -39.5t-42 -16.5z" />
    <glyph glyph-name="afii10104" unicode="&#x457;" horiz-adv-x="250" 
d="M171 0h-91v484h91v-484zM28 571h-1q-22 0 -36.5 15.5t-14.5 37.5t15.5 37.5t37.5 15.5q21 0 35.5 -15.5t14.5 -37.5t-14 -37.5t-37 -15.5zM223 571h-2q-22 0 -36 15.5t-14 37.5t15 37.5t37 15.5t36.5 -15.5t14.5 -37.5t-14 -37.5t-37 -15.5z" />
    <glyph glyph-name="afii10105" unicode="&#x458;" horiz-adv-x="262" 
d="M-42 -215l-9 72q72 3 106 37q20 22 28.5 61.5t8.5 129.5v399h91v-437q0 -142 -61 -204q-57 -58 -164 -58zM137 568h-1q-25 0 -40.5 16.5t-15.5 39.5t16.5 39.5t42.5 16.5q25 0 40.5 -16.5t15.5 -39.5t-15.5 -39.5t-42.5 -16.5z" />
    <glyph glyph-name="afii10106" unicode="&#x459;" horiz-adv-x="836" 
d="M116 484h356v-162q35 5 90 5q46 0 85 -7.5t74.5 -25t56 -51.5t20.5 -82q0 -64 -47 -106q-67 -60 -228 -60q-26 0 -143 6v412h-179v-114q0 -210 -82 -269q-39 -36 -109 -36l-7 72q34 6 51 18q36 24 49 75.5t13 141.5v183zM471 258v-195q38 -4 75 -4q39 0 72 7t61 31t28 63
q0 31 -14.5 52.5t-39.5 32t-49 14.5t-50 4q-20 0 -83 -5z" />
    <glyph glyph-name="afii10107" unicode="&#x45a;" horiz-adv-x="843" 
d="M76 484h91v-178h226v178h92v-166q31 6 94 6q55 0 103 -13.5t85 -51.5t37 -97q0 -68 -48 -109q-65 -58 -220 -58q-26 0 -143 6v236h-226v-237h-91v484zM484 255v-192q38 -4 75 -4q38 0 69.5 7t58 31t26.5 62q0 30 -13.5 51t-37 31.5t-48 15t-52.5 4.5q-30 0 -78 -6z" />
    <glyph glyph-name="afii10108" unicode="&#x45b;" horiz-adv-x="623" 
d="M5 628h93v88h91v-88h211v-66h-211v-164h2q26 40 66 65q48 27 103 27q87 0 137 -57.5t50 -161.5v-271h-91v262q0 68 -31 110.5t-96 42.5q-46 0 -81.5 -26.5t-51.5 -64.5q-7 -18 -7 -48v-276h-91v562h-93v66z" />
    <glyph glyph-name="afii10109" unicode="&#x45c;" horiz-adv-x="517" 
d="M80 484h91v-210h24l200 210h114l-231 -219q60 -5 102 -41.5t77 -108.5q42 -94 55 -115h-96q-19 27 -49 95q-29 62 -70 89.5t-106 27.5h-20v-212h-91v484zM300 697h103l-128 -146h-66z" />
    <glyph glyph-name="afii10110" unicode="&#x45e;" horiz-adv-x="513" 
d="M8 484h101l119 -289q18 -45 35 -98h2q33 95 35 101l108 286h99l-150 -356q-55 -134 -95 -200t-86 -100q-57 -43 -115 -51l-19 76q41 9 80 37q51 35 83 104q7 11 7 20q0 10 -7 24zM121 685h67q2 -34 19 -56.5t47 -22.5q32 0 49.5 22t20.5 57h67q-2 -61 -39.5 -94.5
t-99.5 -33.5q-67 0 -97.5 36.5t-33.5 91.5z" />
    <glyph glyph-name="afii10193" unicode="&#x45f;" horiz-adv-x="585" 
d="M76 484h91v-413h250v413h91v-484h-172l-6 -165h-73l-8 165h-173v484z" />
    <glyph glyph-name="afii10050" unicode="&#x490;" horiz-adv-x="484" 
d="M81 674h322l17 126h67l-11 -200h-304v-600h-91v674z" />
    <glyph glyph-name="afii10098" unicode="&#x491;" horiz-adv-x="426" 
d="M76 484h252l12 113h65l-6 -185h-232v-412h-91v484z" />
    <glyph glyph-name="afii10846" unicode="&#x4d9;" horiz-adv-x="547" 
d="M84 397l-16 65q84 34 180 34q118 0 188 -67.5t70 -177.5q0 -111 -67.5 -187t-180.5 -76q-51 0 -91 16.5t-63.5 41.5t-39 57.5t-21 61t-5.5 56.5t4 40h376q-1 79 -51 121.5t-130 42.5q-83 0 -153 -28zM417 196h-291q0 -19 5 -40.5t18.5 -46.5t43.5 -41t72 -16
q48 0 83 24.5t49.5 55t19.5 64.5z" />
    <glyph glyph-name="Wgrave" unicode="&#x1e80;" horiz-adv-x="910" 
d="M296 0h-98l-185 674h97l88 -347q13 -52 55 -229h2q13 71 59 230l100 346h99l89 -350q37 -151 50 -224h2q13 61 59 228l100 346h94l-211 -674h-97l-91 358q-38 145 -48 220h-2q-16 -84 -57 -219zM301 830h111l92 -119h-75z" />
    <glyph glyph-name="wgrave" unicode="&#x1e81;" horiz-adv-x="793" 
d="M20 484h93l71 -249q25 -89 39 -154h2q13 52 47 154l87 249h79l83 -245q29 -90 46 -158h2q13 65 41 157l77 246h90l-168 -484h-85l-79 230q-32 90 -49 164h-2q-16 -71 -49 -164l-85 -230h-85zM261 697h103l91 -146h-66z" />
    <glyph glyph-name="Wacute" unicode="&#x1e82;" horiz-adv-x="910" 
d="M296 0h-98l-185 674h97l88 -347q13 -52 55 -229h2q13 71 59 230l100 346h99l89 -350q37 -151 50 -224h2q13 61 59 228l100 346h94l-211 -674h-97l-91 358q-38 145 -48 220h-2q-16 -84 -57 -219zM510 830h111l-128 -120h-75z" />
    <glyph glyph-name="wacute" unicode="&#x1e83;" horiz-adv-x="793" 
d="M20 484h93l71 -249q25 -89 39 -154h2q13 52 47 154l87 249h79l83 -245q29 -90 46 -158h2q13 65 41 157l77 246h90l-168 -484h-85l-79 230q-32 90 -49 164h-2q-16 -71 -49 -164l-85 -230h-85zM439 697h103l-128 -146h-66z" />
    <glyph glyph-name="Wdieresis" unicode="&#x1e84;" horiz-adv-x="910" 
d="M296 0h-98l-185 674h97l88 -347q13 -52 55 -229h2q13 71 59 230l100 346h99l89 -350q37 -151 50 -224h2q13 61 59 228l100 346h94l-211 -674h-97l-91 358q-38 145 -48 220h-2q-16 -84 -57 -219zM363 720h-1q-22 0 -36 15.5t-14 36.5t15 36.5t37 15.5q21 0 35 -15t14 -37
q0 -21 -14 -36.5t-36 -15.5zM556 720h-1q-21 0 -35 15.5t-14 36.5t15 36.5t36 15.5q22 0 36 -15t14 -37q0 -21 -14.5 -36.5t-36.5 -15.5z" />
    <glyph glyph-name="wdieresis" unicode="&#x1e85;" horiz-adv-x="793" 
d="M20 484h93l71 -249q25 -89 39 -154h2q13 52 47 154l87 249h79l83 -245q29 -90 46 -158h2q13 65 41 157l77 246h90l-168 -484h-85l-79 230q-32 90 -49 164h-2q-16 -71 -49 -164l-85 -230h-85zM300 571h-1q-22 0 -36.5 15.5t-14.5 37.5t15.5 37.5t37.5 15.5
q21 0 35.5 -15.5t14.5 -37.5t-14 -37.5t-37 -15.5zM495 571h-2q-22 0 -36 15.5t-14 37.5t15 37.5t37 15.5t36.5 -15.5t14.5 -37.5t-14 -37.5t-37 -15.5z" />
    <glyph glyph-name="Ygrave" unicode="&#x1ef2;" horiz-adv-x="590" 
d="M340 0h-91v286l-235 388h105l107 -192q67 -123 72 -135h2q14 30 74 135l110 192h105l-249 -387v-287zM154 823h111l92 -119h-75z" />
    <glyph glyph-name="ygrave" unicode="&#x1ef3;" horiz-adv-x="513" 
d="M8 484h101l119 -289q18 -45 35 -98h2q33 95 35 101l108 286h99l-150 -356q-55 -134 -95 -200t-86 -100q-57 -43 -115 -51l-19 76q41 9 80 37q51 35 83 104q7 11 7 20q0 10 -7 24zM123 697h103l91 -146h-66z" />
    <glyph glyph-name="endash" unicode="&#x2013;" horiz-adv-x="500" 
d="M30 283h440v-61h-440v61z" />
    <glyph glyph-name="emdash" unicode="&#x2014;" horiz-adv-x="1000" 
d="M30 283h940v-61h-940v61z" />
    <glyph glyph-name="quoteleft" unicode="&#x2018;" horiz-adv-x="217" 
d="M134 459l-95 -10q18 63 46 134t49 106l59 6q-39 -105 -59 -236z" />
    <glyph glyph-name="quoteright" unicode="&#x2019;" horiz-adv-x="217" 
d="M98 685l95 10q-18 -64 -46 -135t-49 -105l-59 -6q39 103 59 236z" />
    <glyph glyph-name="quotesinglbase" unicode="&#x201a;" horiz-adv-x="217" 
d="M80 -111l-59 -6q39 105 59 236l95 10q-18 -63 -46 -134t-49 -106z" />
    <glyph glyph-name="quotedblleft" unicode="&#x201c;" horiz-adv-x="370" 
d="M134 459l-95 -10q17 61 45 132t49 108l60 6q-39 -105 -59 -236zM287 459l-95 -10q18 63 46 134t49 106l59 6q-39 -105 -59 -236z" />
    <glyph glyph-name="quotedblright" unicode="&#x201d;" horiz-adv-x="370" 
d="M98 685l95 10q-18 -64 -46 -135t-49 -105l-59 -6q39 103 59 236zM251 685l95 10q-17 -62 -45 -133t-49 -107l-60 -6q39 103 59 236z" />
    <glyph glyph-name="quotedblbase" unicode="&#x201e;" horiz-adv-x="372" 
d="M80 -111l-59 -6q39 105 59 236l95 10q-18 -63 -46 -134t-49 -106zM234 -111l-60 -6q39 105 59 236l95 10q-17 -61 -45 -132t-49 -108z" />
    <glyph glyph-name="dagger" unicode="&#x2020;" horiz-adv-x="540" 
d="M228 674h85l-8 -215l188 8v-74l-188 8l8 -451h-85l8 451l-188 -8v74l188 -8z" />
    <glyph glyph-name="daggerdbl" unicode="&#x2021;" horiz-adv-x="540" 
d="M228 674h85l-7 -202l187 8v-74l-187 8v-200l187 8v-74l-187 8l6 -206h-84l6 206l-186 -8v74l187 -8v200l-187 -8v74l187 -8z" />
    <glyph glyph-name="bullet" unicode="&#x2022;" horiz-adv-x="290" 
d="M145 155h-1q-44 0 -75.5 31t-31.5 76q-1 45 31 76.5t77 31.5t76.5 -31.5t31.5 -76.5q0 -44 -31.5 -75.5t-76.5 -31.5z" />
    <glyph glyph-name="ellipsis" unicode="&#x2026;" horiz-adv-x="1000" 
d="M167 -12h-1q-27 0 -44.5 18.5t-16.5 45.5q0 29 17 47t45 18t45 -18t17 -47q0 -27 -17.5 -45.5t-44.5 -18.5zM500 -12h-1q-27 0 -44.5 18.5t-16.5 45.5q0 29 17 47t45 18t45 -18t17 -47q0 -27 -17.5 -45.5t-44.5 -18.5zM833 -12h-1q-27 0 -44.5 18.5t-16.5 45.5
q0 29 17 47t45 18t45 -18t17 -47q0 -27 -17.5 -45.5t-44.5 -18.5z" />
    <glyph glyph-name="perthousand" unicode="&#x2030;" horiz-adv-x="1230" 
d="M199 662h1q73 0 116 -50t43 -143q0 -99 -47.5 -153.5t-119.5 -54.5q-68 0 -114.5 50.5t-47.5 145.5q0 96 48 150.5t121 54.5zM195 608h-1q-42 0 -66.5 -40.5t-24.5 -106.5q-1 -66 24 -106t68 -40q45 0 68 39t23 110q0 144 -91 144zM251 -12h-58l394 673h58zM650 393h1
q73 0 116 -50t43 -142q0 -99 -47.5 -153.5t-119.5 -54.5q-68 0 -114 50t-47 145q0 96 48 150.5t120 54.5zM647 339h-1q-42 0 -66.5 -40t-24.5 -106q-1 -66 24 -106t67 -40q45 0 68 39t23 109q0 144 -90 144zM1040 393h1q73 0 116 -50t43 -142q0 -99 -47.5 -153.5
t-119.5 -54.5q-68 0 -114.5 50t-47.5 145q0 96 48 150.5t121 54.5zM1036 339h-1q-42 0 -66.5 -40t-24.5 -106q-1 -66 24 -106t68 -40q45 0 68 39t23 109q0 144 -91 144z" />
    <glyph glyph-name="guilsinglleft" unicode="&#x2039;" horiz-adv-x="270" 
d="M246 440l-143 -188l144 -187h-74l-143 187l142 188h74z" />
    <glyph glyph-name="guilsinglright" unicode="&#x203a;" horiz-adv-x="270" 
d="M167 252l-144 188h74l143 -188l-143 -187h-73z" />
    <glyph glyph-name="fraction" unicode="&#x2044;" horiz-adv-x="440" 
d="M53 -12h-59l393 674h59z" />
    <glyph glyph-name="fraction" unicode="&#x2215;" horiz-adv-x="440" 
d="M53 -12h-59l393 674h59z" />
    <glyph glyph-name="zerosuperior" unicode="&#x2070;" horiz-adv-x="360" 
d="M177 446h-1q-69 0 -110 53t-41 146t42.5 147t114.5 54t112.5 -52t40.5 -145q0 -92 -40 -147.5t-118 -55.5zM179 497h1q39 0 60.5 39.5t21.5 111.5q0 147 -83 147q-37 0 -59 -39t-22 -108q0 -72 22 -111.5t59 -39.5z" />
    <glyph glyph-name="foursuperior" unicode="&#x2074;" horiz-adv-x="373" 
d="M292 451h-71v101h-203v43l189 245h85v-237h59v-51h-59v-101zM221 603v121q0 8 0.5 18t1.5 22t1 19l-2 1q-17 -32 -34 -56l-97 -124l1 -1h129z" />
    <glyph glyph-name="fivesuperior" unicode="&#x2075;" horiz-adv-x="329" 
d="M284 838v-56h-167l-13 -83q18 2 36 2q60 0 97 -20q60 -30 60 -103q0 -58 -45 -95.5t-117 -37.5q-66 0 -114 26l15 50q41 -23 97 -23q37 0 65 20.5t28 54.5q0 78 -120 78q-20 0 -63 -5l26 192h215z" />
    <glyph glyph-name="sixsuperior" unicode="&#x2076;" horiz-adv-x="354" 
d="M283 845l1 -54q-21 2 -43 -1q-62 -7 -99.5 -40t-45.5 -81h1q39 43 101 43q59 0 95 -34.5t36 -91.5q0 -59 -42 -99.5t-105 -40.5q-72 0 -114.5 47t-42.5 122q0 110 71 171q54 50 147 57q36 2 40 2zM182 498h1q33 0 54.5 24t21.5 59q0 37 -22.5 59.5t-60.5 22.5
q-25 0 -46 -13.5t-32 -33.5q-5 -12 -5 -20q0 -41 23.5 -69.5t65.5 -28.5z" />
    <glyph glyph-name="sevensuperior" unicode="&#x2077;" horiz-adv-x="317" 
d="M23 838h279v-44l-183 -343h-74l183 331v1h-205v55z" />
    <glyph glyph-name="eightsuperior" unicode="&#x2078;" horiz-adv-x="348" 
d="M177 846h1q61 0 94.5 -29t33.5 -69q0 -60 -66 -87v-2q38 -12 60.5 -37t22.5 -60q0 -52 -42 -84t-109 -32q-69 0 -108 31.5t-39 75.5q0 68 81 98v3q-66 26 -66 85q0 47 39 77t98 30zM173 495h1q35 0 56.5 17.5t21.5 43.5q0 56 -86 75q-71 -17 -71 -70q0 -26 21.5 -46
t56.5 -20zM174 798h-1q-32 0 -50 -16t-18 -39q0 -48 76 -64q60 15 60 62q0 23 -17 40t-50 17z" />
    <glyph glyph-name="ninesuperior" unicode="&#x2079;" horiz-adv-x="348" 
d="M62 447v53q11 -1 45 1q56 5 92 35q44 33 54 90h-2q-35 -40 -97 -40q-57 0 -93 34t-36 87q0 58 43 98.5t107 40.5q69 0 108.5 -46t39.5 -121q0 -117 -71 -179q-54 -46 -140 -51q-33 -3 -50 -2zM172 795h-1q-34 0 -55.5 -25t-21.5 -61q0 -31 21 -52.5t56 -21.5q52 0 78 39
q5 7 5 17q0 45 -20.5 74.5t-61.5 29.5z" />
    <glyph glyph-name="parenleftsuperior" unicode="&#x207d;" horiz-adv-x="188" 
d="M121 875h53q-74 -105 -74 -242q0 -131 74 -240h-53q-80 106 -80 240q0 136 80 242z" />
    <glyph glyph-name="parenrightsuperior" unicode="&#x207e;" horiz-adv-x="188" 
d="M67 393h-53q74 109 74 241q0 135 -74 241h53q79 -108 79 -241q0 -134 -79 -241z" />
    <glyph glyph-name="zeroinferior" unicode="&#x2080;" horiz-adv-x="360" 
d="M177 -152h-1q-69 0 -110 53t-41 146t42.5 147t114.5 54t112.5 -52t40.5 -145q0 -92 -40 -147.5t-118 -55.5zM179 -101h1q39 0 60.5 39.5t21.5 111.5q0 147 -83 147q-37 0 -59 -39t-22 -108q0 -72 22 -111.5t59 -39.5z" />
    <glyph glyph-name="oneinferior" unicode="&#x2081;" horiz-adv-x="255" 
d="M183 -147h-73v327h-2l-71 -33l-12 53l93 43h65v-390z" />
    <glyph glyph-name="twoinferior" unicode="&#x2082;" horiz-adv-x="333" 
d="M15 -147v40l71 61q75 66 102.5 99t27.5 66q0 30 -20 50.5t-61 20.5q-44 0 -90 -32l-22 46q53 44 130 44q69 0 104.5 -35t35.5 -80q0 -52 -33 -93t-109 -104l-31 -25v-2h180v-56h-285z" />
    <glyph glyph-name="threeinferior" unicode="&#x2083;" horiz-adv-x="328" 
d="M50 166l-19 49q54 33 125 33q65 0 97 -27.5t32 -67.5q0 -30 -22 -54t-59 -37v-2q44 -5 71 -32t27 -64q0 -48 -44 -82t-121 -34q-81 0 -126 30l20 51q43 -28 101 -28q47 0 70.5 21t22.5 45q-1 35 -34 52t-78 17h-33v47h34q36 0 65 15.5t30 47.5q0 19 -16.5 34t-50.5 15
q-50 0 -92 -29z" />
    <glyph glyph-name="fourinferior" unicode="&#x2084;" horiz-adv-x="373" 
d="M292 -147h-71v101h-203v43l189 245h85v-237h59v-51h-59v-101zM221 5v121q0 8 0.5 18t1.5 22t1 19l-2 1q-17 -32 -34 -56l-97 -124l1 -1h129z" />
    <glyph glyph-name="fiveinferior" unicode="&#x2085;" horiz-adv-x="329" 
d="M284 240v-56h-167l-13 -83q18 2 36 2q60 0 97 -20q60 -30 60 -103q0 -58 -45 -95.5t-117 -37.5q-66 0 -114 26l15 50q41 -23 97 -23q37 0 65 20.5t28 54.5q0 78 -120 78q-20 0 -63 -5l26 192h215z" />
    <glyph glyph-name="sixinferior" unicode="&#x2086;" horiz-adv-x="354" 
d="M283 247l1 -54q-21 2 -43 -1q-62 -7 -99.5 -40t-45.5 -81h1q39 43 101 43q59 0 95 -34.5t36 -91.5q0 -59 -42 -99.5t-105 -40.5q-72 0 -114.5 47t-42.5 122q0 110 71 171q54 50 147 57q36 2 40 2zM182 -100h1q33 0 54.5 24t21.5 59q0 37 -22.5 59.5t-60.5 22.5
q-25 0 -46 -13.5t-32 -33.5q-5 -12 -5 -20q0 -41 23.5 -69.5t65.5 -28.5z" />
    <glyph glyph-name="seveninferior" unicode="&#x2087;" horiz-adv-x="317" 
d="M23 240h279v-44l-183 -343h-74l183 331v1h-205v55z" />
    <glyph glyph-name="eightinferior" unicode="&#x2088;" horiz-adv-x="348" 
d="M177 248h1q61 0 94.5 -29t33.5 -69q0 -60 -66 -87v-2q38 -12 60.5 -37t22.5 -60q0 -52 -42 -84t-109 -32q-69 0 -108 31.5t-39 75.5q0 68 81 98v3q-66 26 -66 85q0 47 39 77t98 30zM173 -103h1q35 0 56.5 17.5t21.5 43.5q0 56 -86 75q-71 -17 -71 -70q0 -26 21.5 -46
t56.5 -20zM174 200h-1q-32 0 -50 -16t-18 -39q0 -48 76 -64q60 15 60 62q0 23 -17 40t-50 17z" />
    <glyph glyph-name="nineinferior" unicode="&#x2089;" horiz-adv-x="348" 
d="M62 -151v53q11 -1 45 1q56 5 92 35q44 33 54 90h-2q-35 -40 -97 -40q-57 0 -93 34t-36 87q0 58 43 98.5t107 40.5q69 0 108.5 -46t39.5 -121q0 -117 -71 -179q-54 -46 -140 -51q-33 -3 -50 -2zM172 197h-1q-34 0 -55.5 -25t-21.5 -61q0 -31 21 -52.5t56 -21.5q52 0 78 39
q5 7 5 17q0 45 -20.5 74.5t-61.5 29.5z" />
    <glyph glyph-name="parenleftinferior" unicode="&#x208d;" horiz-adv-x="188" 
d="M121 277h53q-74 -105 -74 -242q0 -131 74 -240h-53q-80 106 -80 240q0 136 80 242z" />
    <glyph glyph-name="parenrightinferior" unicode="&#x208e;" horiz-adv-x="188" 
d="M67 -205h-53q74 109 74 241q0 135 -74 241h53q79 -108 79 -241q0 -134 -79 -241z" />
    <glyph glyph-name="Euro" unicode="&#x20ac;" horiz-adv-x="556" 
d="M520 98l18 -64q-67 -46 -166 -46q-140 0 -224 97q-60 65 -74 163h-66v51h60v15q0 15 2 45h-62v51h71q20 100 86 164q86 88 216 88q82 0 150 -34l-21 -68q-55 31 -127 31q-91 0 -149 -60q-46 -44 -62 -121h315v-51h-326q-2 -28 -2 -43v-17h328v-51h-320q12 -78 60 -126
q60 -60 156 -60q75 0 137 36z" />
    <glyph glyph-name="afii61289" unicode="&#x2113;" horiz-adv-x="540" 
d="M203 515v-229q145 137 145 268q0 99 -70 99q-32 0 -53.5 -35.5t-21.5 -102.5zM463 166l47 -42q-77 -134 -219 -134q-76 0 -119 42.5t-53 111.5v6l-60 -39l-26 53q54 36 84 60v271q0 110 46.5 165.5t122.5 55.5q65 0 102 -45t37 -116q0 -90 -55 -175t-167 -180v-8
q3 -126 110 -126q86 0 150 100z" />
    <glyph glyph-name="afii61352" unicode="&#x2116;" horiz-adv-x="986" 
d="M785 635h1q77 0 123 -48.5t46 -125.5q0 -89 -49.5 -134.5t-121.5 -45.5q-75 0 -123 47t-48 127q0 82 49.5 131t122.5 49zM784 584h-1q-45 0 -69.5 -38t-24.5 -90q0 -55 28.5 -89.5t66.5 -34.5q42 0 68.5 33.5t26.5 92.5q0 51 -24 88.5t-71 37.5zM926 184h-283v54h283v-54
zM159 0h-81v650h104l189 -329q75 -135 109 -212l1 1q-9 111 -9 265v275h81v-650h-94l-190 330q-63 112 -112 218l-3 -1q5 -102 5 -265v-282z" />
    <glyph glyph-name="trademark" unicode="&#x2122;" horiz-adv-x="655" 
d="M32 674h244v-46h-95v-226h-55v226h-94v46zM645 402h-57l-10 160q-1 11 -1.5 37t-0.5 39h-4q-2 -8 -10.5 -37.5t-13.5 -43.5l-54 -151h-58l-53 155q-3 10 -10.5 37.5t-10.5 39.5h-3q0 -28 -2 -76l-11 -160h-55l22 272h85l51 -135q6 -17 19 -68h2q14 48 20 67l51 136h82z
" />
    <glyph glyph-name="estimated" unicode="&#x212e;" horiz-adv-x="817" 
d="M782 316h-605q-5 0 -5 -4v-183q0 -10 9 -21q93 -99 229 -99q145 0 240 111h55q-52 -61 -130 -96t-166 -35q-155 0 -264.5 98.5t-109.5 237.5t109.5 237.5t264.5 98.5t264 -98.5t109 -237.5v-9zM646 340v184q0 12 -10 22q-95 95 -226 95q-133 0 -228 -98q-10 -10 -10 -23
v-180q0 -5 5 -5h464q5 0 5 5z" />
    <glyph glyph-name="partialdiff" unicode="&#x2202;" horiz-adv-x="572" 
d="M91 609l-30 61q79 56 189 56q118 0 200.5 -97t82.5 -261q0 -176 -84.5 -278t-207.5 -102q-105 0 -161 64.5t-56 147.5q0 100 67.5 171.5t165.5 71.5q66 0 116 -31t71 -68h1q1 13 1 39q0 125 -60.5 197t-142.5 72q-90 0 -152 -43zM249 62h1q71 0 120 59t63 144
q-16 42 -59.5 73.5t-101.5 31.5q-65 0 -110.5 -48t-45.5 -119q0 -62 36.5 -101.5t96.5 -39.5z" />
    <glyph glyph-name="uni2206" unicode="&#x2206;" horiz-adv-x="622" 
d="M594 0h-567v51l233 605h104l230 -605v-51zM496 74l-133 354q-19 48 -55 154h-2q-5 -14 -21.5 -64t-24.5 -74l-140 -370h376z" />
    <glyph glyph-name="product" unicode="&#x220f;" horiz-adv-x="671" 
d="M661 576h-104v-666h-87v666h-269v-666h-87v666h-104v74h651v-74z" />
    <glyph glyph-name="summation" unicode="&#x2211;" horiz-adv-x="549" 
d="M560 -90h-552v53l274 314l-260 312v61h503v-74h-384v-3l242 -293l-254 -292v-4h431v-74z" />
    <glyph glyph-name="minus" unicode="&#x2212;" horiz-adv-x="596" 
d="M40 298h516v-62h-516v62z" />
    <glyph glyph-name="radical" unicode="&#x221a;" horiz-adv-x="572" 
d="M599 828l-241 -923h-66l-169 428l-76 -33l-20 47l141 61l133 -352q12 -30 19 -58h2q4 26 13 59l195 771h69z" />
    <glyph glyph-name="infinity" unicode="&#x221e;" horiz-adv-x="729" 
d="M543 115h-1q-32 0 -65 16.5t-52.5 33.5t-50.5 47l-9 9q-25 -25 -32.5 -32t-31 -26.5t-38 -26t-37.5 -14t-47 -7.5q-63 0 -103.5 42t-40.5 107q0 61 43.5 105t108.5 44q27 0 50.5 -8t50 -29t37.5 -31t40 -39q37 37 55.5 53.5t55.5 35t75 18.5q63 0 103.5 -42t40.5 -107
q0 -61 -43.5 -105t-108.5 -44zM543 176h1q36 0 61 26t25 62q0 38 -24 63t-60 25q-26 0 -54.5 -16t-43 -29.5t-42.5 -42.5q4 -4 22.5 -22t27 -25.5t24.5 -19t31.5 -16.5t31.5 -5zM184 176h1q25 0 53.5 15.5t43.5 29.5t42 42q-2 2 -22 22.5t-27.5 26t-24.5 18.5t-32 17.5
t-31 4.5q-37 0 -62 -26t-25 -62q0 -38 24 -63t60 -25z" />
    <glyph glyph-name="integral" unicode="&#x222b;" horiz-adv-x="318" 
d="M312 788l-12 -57q-18 4 -31 4q-30 0 -48 -22q-30 -38 -30 -157q0 -72 7 -233t7 -237q0 -130 -44 -187q-35 -50 -98 -50q-39 0 -57 10l12 58q18 -6 38 -6q27 0 45 21q33 37 33 154q0 76 -7 239.5t-7 235.5q0 139 54 196q34 38 91 38q29 0 47 -7z" />
    <glyph glyph-name="approxequal" unicode="&#x2248;" horiz-adv-x="596" 
d="M530 418l40 -41q-26 -34 -67.5 -57.5t-85.5 -23.5q-20 0 -40.5 4.5t-31.5 8.5t-31 12.5t-25 10.5q-7 3 -23 10.5t-26.5 11.5t-28.5 8t-35 4q-61 0 -117 -60l-36 43q27 33 68 56t86 23q20 0 40.5 -4.5t31.5 -8.5t30 -12.5t24 -10.5q6 -3 22.5 -10.5t27.5 -11.5t28.5 -8
t34.5 -4q61 0 114 60zM536 219l38 -40q-25 -35 -67 -58.5t-87 -23.5q-20 0 -40 4.5t-31 8.5t-31 12.5t-24 10.5q-6 2 -23 10t-27.5 12t-28.5 8t-36 4q-61 0 -115 -60l-37 43q26 33 67.5 56t85.5 23q20 0 40.5 -4t32 -8.5t30.5 -13t25 -10.5q7 -3 23 -10t26.5 -11.5t28 -8.5
t34.5 -4q64 0 116 60z" />
    <glyph glyph-name="notequal" unicode="&#x2260;" horiz-adv-x="596" 
d="M556 139h-310l-75 -121h-67l78 121h-142v62h181l89 137h-270v62h309l75 121h67l-78 -121h143v-62h-182l-89 -137h271v-62z" />
    <glyph glyph-name="lessequal" unicode="&#x2264;" horiz-adv-x="596" 
d="M530 100l-464 192v60l464 192v-69l-379 -152v-2l379 -153v-68zM530 0h-461v59h461v-59z" />
    <glyph glyph-name="greaterequal" unicode="&#x2265;" horiz-adv-x="596" 
d="M530 292l-464 -192v68l379 153v2l-379 152v69l464 -192v-60zM527 0h-461v59h461v-59z" />
    <glyph glyph-name="lozenge" unicode="&#x25ca;" horiz-adv-x="538" 
d="M495 324l-190 -360h-73l-189 360l189 361h73zM416 323l-137 272q-7 13 -10 22h-2q-5 -11 -11 -22l-135 -269l138 -273q7 -11 10 -21h2q5 13 11 21z" />
    <glyph glyph-name="uniEFED" unicode="&#xefed;" 
d="M151 720h-1q-21 0 -35.5 15.5t-14.5 36.5t15 36.5t37 15.5q21 0 35 -15.5t14 -36.5t-14.5 -36.5t-35.5 -15.5z" />
    <glyph glyph-name="uniEFEE" unicode="&#xefee;" 
d="M21 838h54q12 -50 76 -50q66 0 76 50h53q-2 -48 -33.5 -78.5t-97.5 -30.5q-65 0 -95.5 30t-32.5 79z" />
    <glyph glyph-name="uniEFF1" unicode="&#xeff1;" 
d="M123 3h58q-56 -63 -56 -100q0 -23 14 -37t39 -14t47 10l15 -46q-30 -24 -83 -24q-45 0 -71 22.5t-26 65.5q0 58 63 123z" />
    <glyph glyph-name="uniEFF2" unicode="&#xeff2;" 
d="M134 1h57l-33 -52q31 -6 51.5 -25.5t20.5 -49.5q0 -41 -30.5 -61.5t-75.5 -20.5t-73 17l14 45q28 -13 57 -13q44 0 44 31q0 33 -81 43z" />
    <glyph glyph-name="uniEFF3" unicode="&#xeff3;" horiz-adv-x="400" 
d="M201 880h1q45 0 72.5 -26t27.5 -66q0 -38 -28.5 -63.5t-72.5 -25.5q-45 0 -73.5 25.5t-28.5 63.5q0 39 28 65.5t74 26.5zM200 843h-1q-22 0 -35 -16t-13 -39q0 -21 14 -36.5t35 -15.5q22 0 35.5 15t13.5 38t-14 38.5t-35 15.5z" />
    <glyph glyph-name="uniEFF5" unicode="&#xeff5;" 
d="M69 715h-49q-2 47 17.5 75.5t53.5 28.5q24 0 63 -22q34 -18 51 -18q12 0 18.5 8.5t8.5 31.5h48q2 -99 -69 -99q-27 0 -65 20q-36 20 -50 20q-22 0 -27 -45z" />
    <glyph glyph-name="uniEFF7" unicode="&#xeff7;" 
d="M115 830h67l111 -120h-76l-67 74h-2l-68 -74h-73z" />
    <glyph glyph-name="uniF629" unicode="&#xf629;" horiz-adv-x="339" 
d="M220 -8h-47v60q-61 7 -99 45q-35 38 -35 98q0 59 36 101t98 51v58h47v-57q34 0 70 -15l-14 -51q-28 15 -66 15q-46 0 -74 -26.5t-28 -70.5q0 -46 28.5 -71.5t71.5 -25.5q37 0 72 14l12 -47q-33 -16 -72 -19v-59z" />
    <glyph glyph-name="uniF62A" unicode="&#xf62a;" horiz-adv-x="340" 
d="M191 -50h-46v58q-65 2 -106 29l17 51q47 -29 102 -29q33 0 53 14t20 37q0 21 -17 35t-56 26q-58 19 -85.5 43t-27.5 64t27.5 67.5t75.5 34.5v58h46v-56q51 -1 90 -23l-17 -50q-40 23 -91 23q-33 0 -48 -13.5t-15 -31.5q0 -19 17.5 -32t63.5 -29q55 -18 80.5 -43.5
t25.5 -67.5q0 -38 -28.5 -67.5t-80.5 -36.5v-61z" />
    <glyph glyph-name="uniF62B" unicode="&#xf62b;" horiz-adv-x="198" 
d="M18 207h162v-49h-162v49z" />
    <glyph glyph-name="uniF62C" unicode="&#xf62c;" horiz-adv-x="188" 
d="M121 424h53q-74 -105 -74 -242q0 -131 74 -240h-53q-80 106 -80 240q0 136 80 242z" />
    <glyph glyph-name="uniF62D" unicode="&#xf62d;" horiz-adv-x="188" 
d="M67 -58h-53q74 109 74 241q0 135 -74 241h53q79 -108 79 -241q0 -134 -79 -241z" />
    <glyph glyph-name="uniF62E" unicode="&#xf62e;" horiz-adv-x="339" 
d="M220 259h-47v60q-61 7 -99 45q-35 38 -35 98q0 59 36 101t98 51v58h47v-57q34 0 70 -15l-14 -51q-28 15 -66 15q-46 0 -74 -26.5t-28 -70.5q0 -46 28.5 -71.5t71.5 -25.5q37 0 72 14l12 -47q-33 -16 -72 -19v-59z" />
    <glyph glyph-name="uniF62F" unicode="&#xf62f;" horiz-adv-x="340" 
d="M191 217h-46v58q-65 2 -106 29l17 51q47 -29 102 -29q33 0 53 14t20 37q0 21 -17 35t-56 26q-58 19 -85.5 43t-27.5 64t27.5 67.5t75.5 34.5v58h46v-56q51 -1 90 -23l-17 -50q-40 23 -91 23q-33 0 -48 -13.5t-15 -31.5q0 -19 17.5 -32t63.5 -29q55 -18 80.5 -43.5
t25.5 -67.5q0 -38 -28.5 -67.5t-80.5 -36.5v-61z" />
    <glyph glyph-name="uniF630" unicode="&#xf630;" horiz-adv-x="198" 
d="M18 474h162v-49h-162v49z" />
    <glyph glyph-name="uniF631" unicode="&#xf631;" horiz-adv-x="188" 
d="M121 691h53q-74 -105 -74 -242q0 -131 74 -240h-53q-80 106 -80 240q0 136 80 242z" />
    <glyph glyph-name="uniF632" unicode="&#xf632;" horiz-adv-x="188" 
d="M67 209h-53q74 109 74 241q0 135 -74 241h53q79 -108 79 -241q0 -134 -79 -241z" />
    <glyph glyph-name="uniF633" unicode="&#xf633;" horiz-adv-x="786" 
d="M482 356l19 102q-27 9 -58 9q-69 0 -118.5 -49.5t-49.5 -121.5q0 -35 19.5 -58t55.5 -23q45 0 84 45.5t48 95.5zM541 75l17 -47q-80 -40 -188 -40q-135 0 -230 90.5t-95 231.5q0 156 105 266t277 110q140 0 229 -86t89 -219q0 -99 -55 -160.5t-130 -61.5q-34 0 -57.5 23
t-22.5 68h-3q-56 -91 -154 -91q-48 0 -82 36.5t-34 95.5q0 97 70.5 164.5t174.5 67.5q68 0 119 -23l-32 -175q-22 -113 33 -115q43 -2 78 44.5t35 123.5q0 115 -71.5 187.5t-195.5 72.5q-132 0 -222 -88t-90 -233q0 -124 78.5 -201.5t195.5 -77.5q98 0 161 37z" />
    <glyph glyph-name="uniF634" unicode="&#xf634;" 
d="M90 -224l-17 42q79 11 79 66q0 33 -34 61l66 15q41 -27 41 -75q0 -53 -40 -80t-95 -29z" />
    <glyph glyph-name="uniF638" unicode="&#xf638;" horiz-adv-x="556" 
d="M155 167l224 374q-36 52 -101 52q-67 0 -108 -72t-42 -192q-1 -96 27 -162zM405 483l-224 -376q38 -50 95 -50q75 0 113.5 71.5t38.5 200.5q0 91 -23 154zM516 647l-55 -80q56 -85 56 -233q0 -164 -63 -255t-181 -91q-81 0 -137 52l-41 -65l-47 33l51 75q-59 89 -60 239
q-1 160 67.5 250t177.5 90q85 0 140 -52l44 69z" />
    <glyph glyph-name="uniF639" unicode="&#xf639;" horiz-adv-x="556" 
d="M273 -12h-1q-104 0 -167.5 88t-65.5 246q0 160 68 250t177 90q111 0 172 -86.5t61 -241.5q0 -164 -63 -255t-181 -91zM276 57h1q73 0 110.5 71.5t37.5 200.5q0 126 -36.5 195t-110.5 69q-65 0 -106 -71.5t-41 -192.5q-2 -127 38 -199.5t107 -72.5z" />
    <glyph glyph-name="uniF63A" unicode="&#xf63a;" horiz-adv-x="484" 
d="M453 0h-449v54l74 65q156 140 210.5 207t55.5 131q0 56 -32.5 93.5t-107.5 37.5q-81 0 -153 -62l-31 63q86 73 203 73q104 0 158.5 -57.5t54.5 -134.5q0 -83 -56 -157t-189 -192l-54 -45v-2h316v-74z" />
    <glyph glyph-name="uniF63B" unicode="&#xf63b;" horiz-adv-x="489" 
d="M9 37l25 70q26 -16 70.5 -30.5t91.5 -14.5q85 0 122 40t36 85q-1 65 -53.5 96.5t-126.5 31.5h-60v69h61q60 0 107 27.5t47 80.5q0 40 -30.5 68.5t-93.5 28.5q-80 0 -146 -47l-26 66q31 22 82.5 38t105.5 16q99 0 150 -46t51 -111q0 -52 -32.5 -92t-94.5 -61v-2
q67 -12 110.5 -57t43.5 -109q0 -82 -66.5 -139t-187.5 -57q-58 0 -108 14.5t-78 34.5z" />
    <glyph glyph-name="uniF63C" unicode="&#xf63c;" horiz-adv-x="545" 
d="M429 0h-87v177h-331v58l316 415h102v-404h98v-69h-98v-177zM105 246h237v229q0 47 3 93l-4 1q-35 -59 -54 -88l-182 -233v-2z" />
    <glyph glyph-name="uniF63D" unicode="&#xf63d;" horiz-adv-x="496" 
d="M435 650v-76h-272l-24 -165q34 4 62 4q85 0 146 -31q45 -21 75 -66t30 -106q0 -95 -72.5 -158.5t-183.5 -63.5q-109 0 -180 44l24 69q68 -40 156 -40q67 0 115.5 39t47.5 100q-1 63 -49 102.5t-150 39.5q-48 0 -104 -8l42 316h337z" />
    <glyph glyph-name="uniF63E" unicode="&#xf63e;" horiz-adv-x="559" 
d="M451 661v-74q-33 2 -73 -4q-106 -15 -169.5 -79t-74.5 -151h2q27 35 71.5 57.5t100.5 22.5q95 0 155 -59t60 -154q0 -93 -65 -162.5t-170 -69.5q-112 0 -180.5 75.5t-68.5 205.5q0 92 32.5 168t86.5 125q87 80 224 95q39 6 69 4zM289 58h1q62 0 101 45t39 111
q0 69 -40.5 109.5t-108.5 40.5q-44 0 -82.5 -23.5t-58.5 -59.5q-10 -20 -10 -38q1 -79 42 -132t117 -53z" />
    <glyph glyph-name="uniF63F" unicode="&#xf63f;" horiz-adv-x="445" 
d="M3 650h441v-61l-307 -589h-95l306 574v2h-345v74z" />
    <glyph glyph-name="uniF640" unicode="&#xf640;" horiz-adv-x="556" 
d="M283 662h1q97 0 151.5 -47.5t54.5 -114.5q0 -103 -114 -151v-4q67 -21 103.5 -63.5t36.5 -100.5q0 -87 -69 -140t-171 -53q-106 0 -171 51t-65 128q0 119 136 171v3q-110 45 -110 145q0 77 61.5 126.5t155.5 49.5zM277 55h1q65 0 104.5 33.5t39.5 81.5q0 57 -40 89.5
t-120 49.5q-62 -13 -95 -47.5t-33 -82.5q-3 -50 37 -87t106 -37zM280 597h-1q-59 0 -92.5 -30.5t-33.5 -74.5q-1 -46 35 -75t103 -43q49 12 79.5 42.5t30.5 74.5q0 42 -30 74t-91 32z" />
    <glyph glyph-name="uniF641" unicode="&#xf641;" horiz-adv-x="561" 
d="M106 -11v74q28 -3 78 3q91 10 152 66q72 64 89 170h-3q-61 -75 -170 -75q-93 0 -150.5 58.5t-57.5 142.5q0 96 68.5 165t173.5 69q106 0 169 -74.5t63 -204.5q0 -199 -121 -306q-84 -73 -202 -83q-49 -7 -89 -5zM278 593h-1q-63 0 -102.5 -47t-39.5 -113q0 -59 38 -98
t100 -39q48 0 85.5 20t58.5 52q8 14 8 29q1 84 -36 140t-111 56z" />
    <glyph glyph-name="uniF642" unicode="&#xf642;" horiz-adv-x="867" 
d="M195 601h1q73 0 116 -50t43 -142q0 -99 -47.5 -153.5t-119.5 -54.5q-68 0 -114.5 50t-47.5 145q-1 96 47.5 150.5t121.5 54.5zM191 547h-1q-42 0 -66 -40t-25 -106t24 -106t68 -40q45 0 68 39t23 109q0 144 -91 144zM281 -12h-58l362 618h58zM680 393h1q73 0 116 -50
t43 -142q0 -99 -47.5 -153.5t-119.5 -54.5q-68 0 -114 50t-47 145q-1 96 47.5 150.5t120.5 54.5zM677 339h-1q-41 0 -65.5 -40t-25.5 -106t24 -106t67 -40q45 0 68 39t23 109q0 144 -90 144z" />
    <glyph glyph-name="uniF643" unicode="&#xf643;" horiz-adv-x="578" 
d="M289 -12h-1q-105 0 -174.5 70t-69.5 184q0 111 70 182.5t175 71.5q106 0 176 -70t70 -184q0 -112 -70 -183t-176 -71zM289 56h2q70 0 113 51.5t43 134.5q0 84 -43 135t-115 51q-71 0 -114 -51t-43 -135t43 -135t114 -51z" />
    <glyph glyph-name="uniF644" unicode="&#xf644;" horiz-adv-x="578" 
d="M396 0h-87v408h-2l-200 -90l-16 67l228 99h77v-484z" />
    <glyph glyph-name="uniF645" unicode="&#xf645;" horiz-adv-x="578" 
d="M504 0h-431v49l50 30q138 82 193.5 135.5t55.5 110.5q0 49 -32 75t-84 26q-77 0 -152 -55l-25 59q91 68 199 68q85 0 136 -43t51 -118q0 -66 -49 -120.5t-144 -113.5l-54 -33v-3q35 4 85 4h201v-71z" />
    <glyph glyph-name="uniF646" unicode="&#xf646;" horiz-adv-x="578" 
d="M68 -93l11 66q53 -20 127 -20q79 0 128.5 33t49.5 89q0 47 -44.5 74t-120.5 27q-21 0 -60 -3l-2 66l20 1q81 5 129.5 32.5t48.5 72.5q0 81 -114 81q-66 0 -138 -39l-19 58q28 20 77 35.5t101 15.5q82 0 133.5 -36t51.5 -100q0 -49 -34 -86t-89 -52v-3q67 -9 110.5 -45.5
t43.5 -98.5q0 -84 -77 -138t-188 -54q-95 0 -145 24z" />
    <glyph glyph-name="uniF647" unicode="&#xf647;" horiz-adv-x="578" 
d="M541 48h-98v-165h-86v165h-320v59l304 385h102v-375h98v-69zM357 117v209q0 59 2 88h-4q-27 -47 -55 -86l-170 -208l1 -3h226z" />
    <glyph glyph-name="uniF648" unicode="&#xf648;" horiz-adv-x="578" 
d="M86 -97l12 65q48 -16 118 -16q74 0 124 34.5t50 95.5q0 39 -30 69q-56 58 -253 44l53 289h313l-12 -73h-240l-30 -148q172 7 245 -62q47 -45 47 -113q0 -92 -72.5 -148.5t-192.5 -56.5q-77 0 -132 20z" />
    <glyph glyph-name="uniF649" unicode="&#xf649;" horiz-adv-x="578" 
d="M480 606l6 -67q-140 -4 -223.5 -65.5t-101.5 -153.5h3q59 76 162 76q87 0 145.5 -53t58.5 -140q0 -96 -68 -155.5t-156 -59.5q-109 0 -175.5 69t-66.5 181q0 159 112.5 260.5t303.5 107.5zM305 57h1q53 0 93 38t40 104q0 60 -37 97t-98 37q-71 0 -116 -49
q-32 -32 -32 -78q0 -57 41 -103t108 -46z" />
    <glyph glyph-name="uniF64A" unicode="&#xf64a;" horiz-adv-x="578" 
d="M492 484v-59q-101 -248 -305 -542l-86 17q70 95 162 249t135 259v2h-328v74h422z" />
    <glyph glyph-name="uniF64B" unicode="&#xf64b;" horiz-adv-x="578" 
d="M382 321v-3q64 -21 101 -60t37 -90q0 -80 -68 -130t-168 -50q-102 0 -166.5 46.5t-64.5 122.5q0 103 133 157v2q-107 39 -107 128q0 70 60.5 116.5t151.5 46.5t147 -44.5t56 -106.5q0 -88 -112 -135zM291 545h-1q-51 0 -86 -26t-35 -69q0 -78 132 -105q47 10 77 37t30 68
q0 44 -34.5 69.5t-82.5 25.5zM284 54h1q60 0 100 30.5t40 76.5q0 91 -157 126q-56 -15 -89 -47.5t-33 -73.5q0 -50 37.5 -81t100.5 -31z" />
    <glyph glyph-name="uniF64C" unicode="&#xf64c;" horiz-adv-x="578" 
d="M101 -115l-6 67q135 3 219 60t107 152h-2q-18 -29 -62.5 -51.5t-98.5 -22.5q-86 0 -144.5 53t-58.5 139q0 90 68 153t168 63t165.5 -64.5t65.5 -179.5q0 -167 -117.5 -266.5t-303.5 -102.5zM281 155h1q44 0 83.5 23t55.5 55q10 20 10 47q0 65 -42 106t-102 41
q-56 0 -98.5 -37t-42.5 -103q0 -63 38.5 -97.5t96.5 -34.5z" />
    <glyph glyph-name="uniF64E" unicode="&#xf64e;" horiz-adv-x="578" 
d="M507 86l12 -61q-57 -37 -155 -37q-119 0 -195 76q-45 45 -61 113h-69v50h62q-2 24 -2 25q0 7 2 35h-62v49h70q19 64 63 110q82 81 208 81q74 0 138 -32l-22 -62q-49 28 -118 28q-84 0 -138 -53q-34 -34 -41 -72h278v-49h-289q-2 -26 -2 -28q0 -18 2 -32h289v-50h-279
q14 -43 38 -65q58 -55 142 -55q73 0 129 29z" />
    <glyph glyph-name="uniF64F" unicode="&#xf64f;" horiz-adv-x="578" 
d="M147 280v57h104l6 51q5 41 17 76.5t34.5 69.5t61 53.5t89.5 19.5q41 0 73 -16l-18 -66q-29 11 -55 11q-51 0 -79 -40t-35 -103l-6 -56h131v-57h-139l-20 -173q-13 -109 -54.5 -166.5t-128.5 -57.5q-52 0 -82 16l16 64q26 -11 59 -11q48 1 71 40.5t32 119.5l19 168h-96z
" />
    <glyph glyph-name="uniF650" unicode="&#xf650;" horiz-adv-x="578" 
d="M226 229h113l18 141h-112zM194 0h-63l23 167h-89v62h98l19 141h-92v62h101l22 162h62l-22 -162h113l22 162h62l-21 -162h88v-62h-97l-19 -141h92v-62h-102l-22 -167h-62l22 167h-113z" />
    <glyph glyph-name="uniF651" unicode="&#xf651;" horiz-adv-x="578" 
d="M520 0h-446v50q53 23 83 57t30 75q0 24 -4 41h-104v57h93q-7 32 -7 56q0 87 56 143.5t148 56.5q75 0 119 -27l-20 -66q-37 22 -99 22q-59 0 -89 -35t-30 -97q0 -21 6 -53h162v-57h-151q2 -9 2 -29q-3 -77 -65 -119v-2h316v-73z" />
    <glyph glyph-name="uniF652" unicode="&#xf652;" horiz-adv-x="578" 
d="M331 0h-86v113h-163v51h163v61h-163v51h136l-160 239h98l93 -154q32 -57 41 -76h3q12 25 44 79l98 151h96l-171 -239h135v-51h-164v-61h164v-51h-164v-113z" />
    <glyph glyph-name="uniF653" unicode="&#xf653;" horiz-adv-x="578" 
d="M322 -85h-58v84q-99 2 -160 41l26 62q22 -16 63.5 -26.5t80.5 -10.5q47 0 79.5 19t32.5 51q0 29 -23 46t-82 35q-88 27 -126 58t-38 81q0 51 42 85.5t111 41.5v88h59v-86q82 -4 132 -33l-24 -61q-57 32 -127 32q-42 0 -71.5 -17t-29.5 -44t23 -43.5t92 -37.5
q83 -25 120 -58.5t37 -82.5q0 -48 -42 -88t-117 -51v-85z" />
    <glyph glyph-name="uniF654" unicode="&#xf654;" horiz-adv-x="578" 
d="M439 129l14 -61q-44 -23 -110 -26v-73h-56v73q-89 9 -143 60.5t-54 138.5q0 83 54 140t143 69v68h56v-67q59 0 110 -22l-18 -62q-36 21 -105 21q-67 0 -110 -38.5t-43 -102.5q0 -67 42.5 -103.5t105.5 -36.5t114 22z" />
    <glyph glyph-name="uniF655" unicode="&#xf655;" horiz-adv-x="360" 
d="M177 -5h-1q-69 0 -110 53t-41 146t42.5 147t114.5 54t112.5 -52t40.5 -145q0 -92 -40 -147.5t-118 -55.5zM179 46h1q39 0 60.5 39.5t21.5 111.5q0 147 -83 147q-37 0 -59 -39t-22 -108q0 -72 22 -111.5t59 -39.5z" />
    <glyph glyph-name="uniF656" unicode="&#xf656;" horiz-adv-x="255" 
d="M183 0h-73v327h-2l-71 -33l-12 53l93 43h65v-390z" />
    <glyph glyph-name="uniF657" unicode="&#xf657;" horiz-adv-x="333" 
d="M15 0v40l71 61q75 66 102.5 99t27.5 66q0 30 -20 50.5t-61 20.5q-44 0 -90 -32l-22 46q53 44 130 44q69 0 104.5 -35t35.5 -80q0 -52 -33 -93t-109 -104l-31 -25v-2h180v-56h-285z" />
    <glyph glyph-name="uniF658" unicode="&#xf658;" horiz-adv-x="328" 
d="M50 313l-19 49q54 33 125 33q65 0 97 -27.5t32 -67.5q0 -30 -22 -54t-59 -37v-2q44 -5 71 -32t27 -64q0 -48 -44 -82t-121 -34q-81 0 -126 30l20 51q43 -28 101 -28q47 0 70.5 21t22.5 45q-1 35 -34 52t-78 17h-33v47h34q36 0 65 15.5t30 47.5q0 19 -16.5 34t-50.5 15
q-50 0 -92 -29z" />
    <glyph glyph-name="uniF659" unicode="&#xf659;" horiz-adv-x="373" 
d="M292 0h-71v101h-203v43l189 245h85v-237h59v-51h-59v-101zM221 152v121q0 8 0.5 18t1.5 22t1 19l-2 1q-17 -32 -34 -56l-97 -124l1 -1h129z" />
    <glyph glyph-name="uniF65A" unicode="&#xf65a;" horiz-adv-x="329" 
d="M284 387v-56h-167l-13 -83q18 2 36 2q60 0 97 -20q60 -30 60 -103q0 -58 -45 -95.5t-117 -37.5q-66 0 -114 26l15 50q41 -23 97 -23q37 0 65 20.5t28 54.5q0 78 -120 78q-20 0 -63 -5l26 192h215z" />
    <glyph glyph-name="uniF65B" unicode="&#xf65b;" horiz-adv-x="354" 
d="M283 394l1 -54q-21 2 -43 -1q-62 -7 -99.5 -40t-45.5 -81h1q39 43 101 43q59 0 95 -34.5t36 -91.5q0 -59 -42 -99.5t-105 -40.5q-72 0 -114.5 47t-42.5 122q0 110 71 171q54 50 147 57q36 2 40 2zM182 47h1q33 0 54.5 24t21.5 59q0 37 -22.5 59.5t-60.5 22.5
q-25 0 -46 -13.5t-32 -33.5q-5 -12 -5 -20q0 -41 23.5 -69.5t65.5 -28.5z" />
    <glyph glyph-name="uniF65C" unicode="&#xf65c;" horiz-adv-x="317" 
d="M23 387h279v-44l-183 -343h-74l183 331v1h-205v55z" />
    <glyph glyph-name="uniF65D" unicode="&#xf65d;" horiz-adv-x="348" 
d="M177 395h1q61 0 94.5 -29t33.5 -69q0 -60 -66 -87v-2q38 -12 60.5 -37t22.5 -60q0 -52 -42 -84t-109 -32q-69 0 -108 31.5t-39 75.5q0 68 81 98v3q-66 26 -66 85q0 47 39 77t98 30zM173 44h1q35 0 56.5 17.5t21.5 43.5q0 56 -86 75q-71 -17 -71 -70q0 -26 21.5 -46
t56.5 -20zM174 347h-1q-32 0 -50 -16t-18 -39q0 -48 76 -64q60 15 60 62q0 23 -17 40t-50 17z" />
    <glyph glyph-name="uniF65E" unicode="&#xf65e;" horiz-adv-x="348" 
d="M62 -4v53q11 -1 45 1q56 5 92 35q44 33 54 90h-2q-35 -40 -97 -40q-57 0 -93 34t-36 87q0 58 43 98.5t107 40.5q69 0 108.5 -46t39.5 -121q0 -117 -71 -179q-54 -46 -140 -51q-33 -3 -50 -2zM172 344h-1q-34 0 -55.5 -25t-21.5 -61q0 -31 21 -52.5t56 -21.5q52 0 78 39
q5 7 5 17q0 45 -20.5 74.5t-61.5 29.5z" />
    <glyph glyph-name="uniF65F" unicode="&#xf65f;" horiz-adv-x="132" 
d="M49 -65l-51 -5q27 73 40 157l77 6q-28 -94 -66 -158z" />
    <glyph glyph-name="uniF660" unicode="&#xf660;" horiz-adv-x="132" 
d="M65 -6h-1q-19 0 -31.5 13.5t-12.5 32.5q0 20 13 33t33 13t32.5 -13t12.5 -33q0 -19 -13 -32.5t-33 -13.5z" />
    <glyph glyph-name="uniF661" unicode="&#xf661;" horiz-adv-x="360" 
d="M177 262h-1q-69 0 -110 53t-41 146t42.5 147t114.5 54t112.5 -52t40.5 -145q0 -92 -40 -147.5t-118 -55.5zM179 313h1q39 0 60.5 39.5t21.5 111.5q0 147 -83 147q-37 0 -59 -39t-22 -108q0 -72 22 -111.5t59 -39.5z" />
    <glyph glyph-name="uniF662" unicode="&#xf662;" horiz-adv-x="255" 
d="M183 267h-73v327h-2l-71 -33l-12 53l93 43h65v-390z" />
    <glyph glyph-name="uniF663" unicode="&#xf663;" horiz-adv-x="333" 
d="M15 267v40l71 61q75 66 102.5 99t27.5 66q0 30 -20 50.5t-61 20.5q-44 0 -90 -32l-22 46q53 44 130 44q69 0 104.5 -35t35.5 -80q0 -52 -33 -93t-109 -104l-31 -25v-2h180v-56h-285z" />
    <glyph glyph-name="uniF664" unicode="&#xf664;" horiz-adv-x="328" 
d="M50 580l-19 49q54 33 125 33q65 0 97 -27.5t32 -67.5q0 -30 -22 -54t-59 -37v-2q44 -5 71 -32t27 -64q0 -48 -44 -82t-121 -34q-81 0 -126 30l20 51q43 -28 101 -28q47 0 70.5 21t22.5 45q-1 35 -34 52t-78 17h-33v47h34q36 0 65 15.5t30 47.5q0 19 -16.5 34t-50.5 15
q-50 0 -92 -29z" />
    <glyph glyph-name="uniF665" unicode="&#xf665;" horiz-adv-x="373" 
d="M292 267h-71v101h-203v43l189 245h85v-237h59v-51h-59v-101zM221 419v121q0 8 0.5 18t1.5 22t1 19l-2 1q-17 -32 -34 -56l-97 -124l1 -1h129z" />
    <glyph glyph-name="uniF666" unicode="&#xf666;" horiz-adv-x="329" 
d="M284 654v-56h-167l-13 -83q18 2 36 2q60 0 97 -20q60 -30 60 -103q0 -58 -45 -95.5t-117 -37.5q-66 0 -114 26l15 50q41 -23 97 -23q37 0 65 20.5t28 54.5q0 78 -120 78q-20 0 -63 -5l26 192h215z" />
    <glyph glyph-name="uniF667" unicode="&#xf667;" horiz-adv-x="354" 
d="M283 661l1 -54q-21 2 -43 -1q-62 -7 -99.5 -40t-45.5 -81h1q39 43 101 43q59 0 95 -34.5t36 -91.5q0 -59 -42 -99.5t-105 -40.5q-72 0 -114.5 47t-42.5 122q0 110 71 171q54 50 147 57q36 2 40 2zM182 314h1q33 0 54.5 24t21.5 59q0 37 -22.5 59.5t-60.5 22.5
q-25 0 -46 -13.5t-32 -33.5q-5 -12 -5 -20q0 -41 23.5 -69.5t65.5 -28.5z" />
    <glyph glyph-name="uniF668" unicode="&#xf668;" horiz-adv-x="317" 
d="M23 654h279v-44l-183 -343h-74l183 331v1h-205v55z" />
    <glyph glyph-name="uniF669" unicode="&#xf669;" horiz-adv-x="348" 
d="M177 662h1q61 0 94.5 -29t33.5 -69q0 -60 -66 -87v-2q38 -12 60.5 -37t22.5 -60q0 -52 -42 -84t-109 -32q-69 0 -108 31.5t-39 75.5q0 68 81 98v3q-66 26 -66 85q0 47 39 77t98 30zM173 311h1q35 0 56.5 17.5t21.5 43.5q0 56 -86 75q-71 -17 -71 -70q0 -26 21.5 -46
t56.5 -20zM174 614h-1q-32 0 -50 -16t-18 -39q0 -48 76 -64q60 15 60 62q0 23 -17 40t-50 17z" />
    <glyph glyph-name="uniF66A" unicode="&#xf66a;" horiz-adv-x="348" 
d="M62 263v53q11 -1 45 1q56 5 92 35q44 33 54 90h-2q-35 -40 -97 -40q-57 0 -93 34t-36 87q0 58 43 98.5t107 40.5q69 0 108.5 -46t39.5 -121q0 -117 -71 -179q-54 -46 -140 -51q-33 -3 -50 -2zM172 611h-1q-34 0 -55.5 -25t-21.5 -61q0 -31 21 -52.5t56 -21.5q52 0 78 39
q5 7 5 17q0 45 -20.5 74.5t-61.5 29.5z" />
    <glyph glyph-name="uniF66B" unicode="&#xf66b;" horiz-adv-x="132" 
d="M49 202l-51 -5q27 73 40 157l77 6q-28 -94 -66 -158z" />
    <glyph glyph-name="uniF66C" unicode="&#xf66c;" horiz-adv-x="132" 
d="M65 261h-1q-19 0 -31.5 13.5t-12.5 32.5q0 20 13 33t33 13t32.5 -13t12.5 -33q0 -19 -13 -32.5t-33 -13.5z" />
    <glyph glyph-name="uniF6AE" unicode="&#xf6ae;" horiz-adv-x="294" 
d="M204 734h71q-132 -173 -132 -411q0 -224 132 -405h-71q-137 174 -137 406t137 410z" />
    <glyph glyph-name="uniF6AF" unicode="&#xf6af;" horiz-adv-x="294" 
d="M90 -82h-71q132 180 132 409q0 228 -132 407h71q137 -174 137 -408q0 -230 -137 -408z" />
    <glyph glyph-name="uniF6B0" unicode="&#xf6b0;" horiz-adv-x="294" 
d="M279 -73h-195v798h195v-55h-124v-688h124v-55z" />
    <glyph glyph-name="uniF6B1" unicode="&#xf6b1;" horiz-adv-x="294" 
d="M15 725h195v-798h-195v55h124v688h-124v55z" />
    <glyph glyph-name="uniF6B2" unicode="&#xf6b2;" horiz-adv-x="294" 
d="M28 301v51q51 0 68 21t17 55q0 27 -8 83q-9 50 -9 82q0 67 40.5 99.5t111.5 32.5h23v-56h-19q-46 0 -66 -22.5t-20 -67.5q0 -22 8 -70q8 -46 8 -76q1 -85 -73 -105v-2q74 -18 73 -106q0 -28 -8 -76q-8 -50 -8 -70q0 -91 86 -91h19v-56h-23q-152 0 -152 140q0 32 9 79
q8 54 8 79q0 76 -85 76z" />
    <glyph glyph-name="uniF6B3" unicode="&#xf6b3;" horiz-adv-x="294" 
d="M266 352v-51q-85 0 -85 -76q0 -30 9 -79q8 -52 8 -79q0 -140 -152 -140h-23v56h19q86 0 86 91q0 20 -8 70q-8 48 -8 76q-1 88 73 106v2q-74 20 -73 105q0 30 8 76q8 48 8 70q0 45 -20 67.5t-66 22.5h-19v56h23q71 0 111.5 -32.5t40.5 -99.5q0 -26 -8 -82q-9 -50 -9 -83
q0 -34 17 -55t68 -21z" />
    <glyph glyph-name="uniF6B4" unicode="&#xf6b4;" horiz-adv-x="239" 
d="M170 0h-101l16 474h69zM120 682h1q27 0 44 -18t17 -47q0 -27 -17.5 -45.5t-44.5 -18.5t-45 18.5t-17 45.5q0 29 17 47t45 18z" />
    <glyph glyph-name="uniF6B5" unicode="&#xf6b5;" horiz-adv-x="438" 
d="M258 682h1q27 0 44 -18t17 -47q0 -27 -17.5 -45.5t-44.5 -18.5t-44.5 18.5t-17.5 45.5q0 29 17 47t45 18zM217 477h82l2 -30q8 -82 -68 -167q-74 -79 -74 -133q0 -39 25.5 -63t75.5 -25q68 0 113 36l26 -65q-64 -45 -158 -45q-85 0 -130.5 43.5t-45.5 107.5q0 45 22 83
t68 86q67 74 64 144z" />
    <glyph glyph-name="uniF6B6" unicode="&#xf6b6;" horiz-adv-x="441" 
d="M246 515l-143 -188l144 -187h-74l-143 187l142 188h74zM417 515l-143 -188l144 -187h-74l-143 187l142 188h74z" />
    <glyph glyph-name="uniF6B7" unicode="&#xf6b7;" horiz-adv-x="441" 
d="M168 327l-144 188h73l143 -188l-143 -187h-72zM338 327l-144 188h73l143 -188l-143 -187h-73z" />
    <glyph glyph-name="uniF6B8" unicode="&#xf6b8;" horiz-adv-x="270" 
d="M246 515l-143 -188l144 -187h-74l-143 187l142 188h74z" />
    <glyph glyph-name="uniF6B9" unicode="&#xf6b9;" horiz-adv-x="270" 
d="M167 327l-144 188h74l143 -188l-143 -187h-73z" />
    <glyph glyph-name="uniF6BA" unicode="&#xf6ba;" horiz-adv-x="316" 
d="M30 381h256v-66h-256v66z" />
    <glyph glyph-name="uniF6BB" unicode="&#xf6bb;" horiz-adv-x="500" 
d="M30 358h440v-61h-440v61z" />
    <glyph glyph-name="uniF6BC" unicode="&#xf6bc;" horiz-adv-x="1000" 
d="M30 358h940v-61h-940v61z" />
    <glyph glyph-name="uniF6BD" unicode="&#xf6bd;" horiz-adv-x="211" 
d="M105 275h-1q-27 0 -44.5 18.5t-16.5 45.5q0 29 17 47t45 18t45 -18t17 -47q0 -27 -17.5 -45.5t-44.5 -18.5z" />
    <glyph glyph-name="commaaccent" unicode="&#xf6c3;" 
d="M90 -224l-17 42q34 4 56.5 20.5t22.5 45.5q0 33 -34 61l66 15q41 -27 41 -75q0 -53 -40 -80t-95 -29z" />
    <glyph glyph-name="Acute" unicode="&#xf6c9;" 
d="M197 830h111l-128 -120h-75z" />
    <glyph glyph-name="Caron" unicode="&#xf6ca;" 
d="M185 710h-67l-111 120h76l68 -73h2l67 73h73z" />
    <glyph glyph-name="Dieresis" unicode="&#xf6cb;" 
d="M54 720h-1q-22 0 -36 15.5t-14 36.5t15 36.5t37 15.5q21 0 35 -15t14 -37q0 -21 -14 -36.5t-36 -15.5zM247 720h-1q-21 0 -35 15.5t-14 36.5t15 36.5t36 15.5q22 0 36 -15t14 -37q0 -21 -14.5 -36.5t-36.5 -15.5z" />
    <glyph glyph-name="DieresisAcute" unicode="&#xf6cc;" 
d="M7 719h-1q-21 0 -34.5 15t-13.5 36t14.5 36t36.5 15q20 0 34 -15t14 -36q0 -22 -14 -36.5t-36 -14.5zM292 719h-1q-20 0 -33.5 15t-13.5 36t14.5 36t35.5 15t35 -15t14 -36q0 -22 -14.5 -36.5t-36.5 -14.5zM139 830h108l-119 -119h-70z" />
    <glyph glyph-name="DieresisGrave" unicode="&#xf6cd;" 
d="M7 719h-1q-21 0 -34.5 15t-13.5 36t14.5 36t36.5 15q20 0 34 -15t14 -36q0 -22 -14 -36.5t-36 -14.5zM292 719h-1q-20 0 -33.5 15t-13.5 36t14.5 36t35.5 15t35 -15t14 -36q0 -22 -14.5 -36.5t-36.5 -14.5zM52 830h109l81 -119h-70z" />
    <glyph glyph-name="Grave" unicode="&#xf6ce;" 
d="M-8 830h111l92 -119h-75z" />
    <glyph glyph-name="Hungarumlaut" unicode="&#xf6cf;" 
d="M122 830h101l-115 -116h-68zM276 830h101l-115 -116h-68z" />
    <glyph glyph-name="Macron" unicode="&#xf6d0;" 
d="M27 789h248v-56h-248v56z" />
    <glyph glyph-name="cyrBreve" unicode="&#xf6d1;" 
d="M17 840h71q2 -19 6.5 -31.5t18.5 -22.5t37 -10q33 0 46 16.5t17 47.5h70q-2 -52 -36 -81.5t-100 -29.5q-122 0 -130 111z" />
    <glyph glyph-name="cyrFlex" unicode="&#xf6d2;" 
d="M283 729h-70q-4 27 -17 44t-46 17t-45.5 -16.5t-16.5 -44.5h-71q3 50 37 79t99 29q63 0 95.5 -29.5t34.5 -78.5z" />
    <glyph glyph-name="dblGrave" unicode="&#xf6d3;" 
d="M-49 830h109l89 -119h-70zM131 830h109l89 -119h-70z" />
    <glyph glyph-name="cyrbreve" unicode="&#xf6d4;" horiz-adv-x="301" 
d="M15 685h67q2 -34 19 -56.5t47 -22.5q32 0 49.5 22t20.5 57h67q-2 -61 -39.5 -94.5t-99.5 -33.5q-67 0 -97.5 36.5t-33.5 91.5z" />
    <glyph glyph-name="cyrflex" unicode="&#xf6d5;" 
d="M80 563h-67q2 61 39.5 94.5t99.5 33.5q67 0 97.5 -36.5t33.5 -91.5h-67q-2 35 -19 57t-47 22q-32 0 -49.5 -22t-20.5 -57z" />
    <glyph glyph-name="dblgrave" unicode="&#xf6d6;" 
d="M6 690h95l80 -145h-59zM161 690h96l79 -145h-59z" />
    <glyph glyph-name="dieresisacute" unicode="&#xf6d7;" horiz-adv-x="301" 
d="M20 576h-1q-21 0 -34.5 15t-13.5 36t14.5 36t36.5 15q20 0 34 -15t14 -36q0 -22 -14 -36.5t-36 -14.5zM272 576h-1q-20 0 -33.5 15t-13.5 36t14.5 36t35.5 15t35 -15t14 -36q0 -22 -14.5 -36.5t-36.5 -14.5zM148 708h98l-114 -147h-61z" />
    <glyph glyph-name="dieresisgrave" unicode="&#xf6d8;" horiz-adv-x="301" 
d="M25 576h-1q-21 0 -34.5 15t-13.5 36t14.5 36t36.5 15q20 0 34 -15t14 -36q0 -22 -14 -36.5t-36 -14.5zM270 576h-1q-20 0 -33.5 15t-13.5 36t14.5 36t35.5 15t35 -15t14 -36q0 -22 -14.5 -36.5t-36.5 -14.5zM52 708h98l77 -147h-61z" />
    <glyph glyph-name="uniF6DC" unicode="&#xf6dc;" horiz-adv-x="346" 
d="M160 0v567h-2l-114 -60l-18 69l144 74h78v-650h-88z" />
    <glyph glyph-name="centinferior" unicode="&#xf6df;" horiz-adv-x="339" 
d="M220 -155h-47v60q-61 7 -99 45q-35 38 -35 98q0 59 36 101t98 51v58h47v-57q34 0 70 -15l-14 -51q-28 15 -66 15q-46 0 -74 -26.5t-28 -70.5q0 -46 28.5 -71.5t71.5 -25.5q37 0 72 14l12 -47q-33 -16 -72 -19v-59z" />
    <glyph glyph-name="centsuperior" unicode="&#xf6e0;" horiz-adv-x="339" 
d="M220 443h-47v60q-61 7 -99 45q-35 38 -35 98q0 59 36 101t98 51v58h47v-57q34 0 70 -15l-14 -51q-28 15 -66 15q-46 0 -74 -26.5t-28 -70.5q0 -46 28.5 -71.5t71.5 -25.5q37 0 72 14l12 -47q-33 -16 -72 -19v-59z" />
    <glyph glyph-name="commainferior" unicode="&#xf6e1;" horiz-adv-x="132" 
d="M49 -212l-51 -5q27 73 40 157l77 6q-28 -94 -66 -158z" />
    <glyph glyph-name="commasuperior" unicode="&#xf6e2;" horiz-adv-x="132" 
d="M49 386l-51 -5q27 73 40 157l77 6q-28 -94 -66 -158z" />
    <glyph glyph-name="dollarinferior" unicode="&#xf6e3;" horiz-adv-x="340" 
d="M191 -197h-46v58q-65 2 -106 29l17 51q47 -29 102 -29q33 0 53 14t20 37q0 21 -17 35t-56 26q-58 19 -85.5 43t-27.5 64t27.5 67.5t75.5 34.5v58h46v-56q51 -1 90 -23l-17 -50q-40 23 -91 23q-33 0 -48 -13.5t-15 -31.5q0 -19 17.5 -32t63.5 -29q55 -18 80.5 -43.5
t25.5 -67.5q0 -38 -28.5 -67.5t-80.5 -36.5v-61z" />
    <glyph glyph-name="dollarsuperior" unicode="&#xf6e4;" horiz-adv-x="340" 
d="M191 401h-46v58q-65 2 -106 29l17 51q47 -29 102 -29q33 0 53 14t20 37q0 21 -17 35t-56 26q-58 19 -85.5 43t-27.5 64t27.5 67.5t75.5 34.5v58h46v-56q51 -1 90 -23l-17 -50q-40 23 -91 23q-33 0 -48 -13.5t-15 -31.5q0 -19 17.5 -32t63.5 -29q55 -18 80.5 -43.5
t25.5 -67.5q0 -38 -28.5 -67.5t-80.5 -36.5v-61z" />
    <glyph glyph-name="hypheninferior" unicode="&#xf6e5;" horiz-adv-x="198" 
d="M18 60h162v-49h-162v49z" />
    <glyph glyph-name="hyphensuperior" unicode="&#xf6e6;" horiz-adv-x="198" 
d="M18 658h162v-49h-162v49z" />
    <glyph glyph-name="periodinferior" unicode="&#xf6e7;" horiz-adv-x="132" 
d="M65 -153h-1q-19 0 -31.5 13.5t-12.5 32.5q0 20 13 33t33 13t32.5 -13t12.5 -33q0 -19 -13 -32.5t-33 -13.5z" />
    <glyph glyph-name="periodsuperior" unicode="&#xf6e8;" horiz-adv-x="132" 
d="M65 445h-1q-19 0 -31.5 13.5t-12.5 32.5q0 20 13 33t33 13t32.5 -13t12.5 -33q0 -19 -13 -32.5t-33 -13.5z" />
    <glyph glyph-name="zerooldstyle" unicode="&#xf730;" horiz-adv-x="578" 
d="M289 -12h-1q-105 0 -174.5 70t-69.5 184q0 111 70 182.5t175 71.5q106 0 176 -70t70 -184q0 -112 -70 -183t-176 -71zM289 56h2q70 0 113 51.5t43 134.5q0 84 -43 135t-115 51q-71 0 -114 -51t-43 -135t43 -135t114 -51z" />
    <glyph glyph-name="oneoldstyle" unicode="&#xf731;" horiz-adv-x="394" 
d="M285 0h-87v406h-2l-149 -65l-16 67l177 76h77v-484z" />
    <glyph glyph-name="twooldstyle" unicode="&#xf732;" horiz-adv-x="486" 
d="M457 0h-431v49l50 30q138 82 193.5 135.5t55.5 110.5q0 49 -32 75t-84 26q-77 0 -152 -55l-25 59q91 68 199 68q85 0 136 -43t51 -118q0 -66 -49 -120.5t-144 -113.5l-54 -33v-3q35 4 85 4h201v-71z" />
    <glyph glyph-name="threeoldstyle" unicode="&#xf733;" horiz-adv-x="468" 
d="M18 -93l11 66q53 -20 127 -20q79 0 128.5 33t49.5 89q0 47 -44.5 74t-120.5 27q-21 0 -60 -3l-2 66l20 1q81 5 129.5 32.5t48.5 72.5q0 81 -114 81q-66 0 -138 -39l-19 58q28 20 77 35.5t101 15.5q82 0 133.5 -36t51.5 -100q0 -49 -34 -86t-89 -52v-3q67 -9 110.5 -45.5
t43.5 -98.5q0 -84 -77 -138t-188 -54q-95 0 -145 24z" />
    <glyph glyph-name="fouroldstyle" unicode="&#xf734;" horiz-adv-x="544" 
d="M525 48h-98v-165h-86v165h-320v59l304 385h102v-375h98v-69zM341 117v209q0 59 2 88h-4q-27 -47 -55 -86l-170 -208l1 -3h226z" />
    <glyph glyph-name="fiveoldstyle" unicode="&#xf735;" horiz-adv-x="479" 
d="M39 -97l12 65q48 -16 118 -16q74 0 124 34.5t50 95.5q0 39 -30 69q-56 58 -253 44l53 289h313l-12 -73h-240l-30 -148q172 7 245 -62q47 -45 47 -113q0 -92 -72.5 -148.5t-192.5 -56.5q-77 0 -132 20z" />
    <glyph glyph-name="sixoldstyle" unicode="&#xf736;" horiz-adv-x="565" 
d="M468 606l6 -67q-140 -4 -223.5 -65.5t-101.5 -153.5h3q59 76 162 76q87 0 145.5 -53t58.5 -140q0 -96 -68 -155.5t-156 -59.5q-109 0 -175.5 69t-66.5 181q0 159 112.5 260.5t303.5 107.5zM293 57h1q53 0 93 38t40 104q0 60 -37 97t-98 37q-71 0 -116 -49
q-32 -32 -32 -78q0 -57 41 -103t108 -46z" />
    <glyph glyph-name="sevenoldstyle" unicode="&#xf737;" horiz-adv-x="461" 
d="M437 484v-59q-101 -248 -305 -542l-86 17q70 95 162 249t135 259v2h-328v74h422z" />
    <glyph glyph-name="eightoldstyle" unicode="&#xf738;" horiz-adv-x="554" 
d="M372 321v-3q64 -21 101 -60t37 -90q0 -80 -68 -130t-168 -50q-102 0 -166.5 46.5t-64.5 122.5q0 103 133 157v2q-107 39 -107 128q0 70 60.5 116.5t151.5 46.5t147 -44.5t56 -106.5q0 -88 -112 -135zM281 545h-1q-51 0 -86 -26t-35 -69q0 -78 132 -105q47 10 77 37t30 68
q0 44 -34.5 69.5t-82.5 25.5zM274 54h1q60 0 100 30.5t40 76.5q0 91 -157 126q-56 -15 -89 -47.5t-33 -73.5q0 -50 37.5 -81t100.5 -31z" />
    <glyph glyph-name="nineoldstyle" unicode="&#xf739;" horiz-adv-x="565" 
d="M93 -115l-6 67q135 3 219 60t107 152h-2q-18 -29 -62.5 -51.5t-98.5 -22.5q-86 0 -144.5 53t-58.5 139q0 90 68 153t168 63t165.5 -64.5t65.5 -179.5q0 -167 -117.5 -266.5t-303.5 -102.5zM273 155h1q44 0 83.5 23t55.5 55q10 20 10 47q0 65 -42 106t-102 41
q-56 0 -98.5 -37t-42.5 -103q0 -63 38.5 -97.5t96.5 -34.5z" />
    </font>
</defs>
</svg>
